Kufam-BoldItalic.ufo
<glyph name="exclam" format="2">
  <advance width="343.6"/>
  <unicode hex="0021"/>
  <note>
exclam
</note>
  <outline>
    <contour>
      <point x="97.2" y="256.0" type="curve"/>
      <point x="244.8" y="256.0" type="line"/>
      <point x="259.6" y="294.8"/>
      <point x="282.5" y="381.6"/>
      <point x="299.6" y="466.4" type="curve" smooth="yes"/>
      <point x="319.2" y="564.0" type="line" smooth="yes"/>
      <point x="328.8" y="610.9"/>
      <point x="340.2" y="673.2"/>
      <point x="355.2" y="709.2" type="curve"/>
      <point x="352.4" y="720.0" type="line"/>
      <point x="174.0" y="720.0" type="line"/>
      <point x="123.6" y="466.4" type="line" smooth="yes"/>
      <point x="107.1" y="384.6"/>
      <point x="98.4" y="300.8"/>
    </contour>
    <contour>
      <point x="123.0" y="-10.8" type="curve" smooth="yes"/>
      <point x="186.0" y="-10.8"/>
      <point x="236.39999999999998" y="37.6"/>
      <point x="236.39999999999998" y="104.4" type="curve" smooth="yes"/>
      <point x="236.39999999999998" y="150.4"/>
      <point x="203.1" y="181.6"/>
      <point x="153.0" y="181.6" type="curve" smooth="yes"/>
      <point x="88.7" y="181.6"/>
      <point x="39.6" y="133.2"/>
      <point x="39.6" y="66.4" type="curve" smooth="yes"/>
      <point x="39.6" y="20.4"/>
      <point x="72.3" y="-10.8"/>
    </contour>
  </outline>
</glyph>
<glyph name="quotedbl" format="2">
  <advance width="417.2"/>
  <unicode hex="0022"/>
  <note>
quotedbl
</note>
  <outline>
    <contour>
      <point x="288.4" y="467.2" type="line"/>
      <point x="412.0" y="467.2" type="line"/>
      <point x="468.4" y="720.0" type="line"/>
      <point x="331.2" y="720.0" type="line"/>
    </contour>
    <contour>
      <point x="93.2" y="467.2" type="line"/>
      <point x="216.8" y="467.2" type="line"/>
      <point x="273.2" y="720.0" type="line"/>
      <point x="136.0" y="720.0" type="line"/>
    </contour>
  </outline>
</glyph>
<glyph name="numbersign" format="2">
  <advance width="616.0"/>
  <unicode hex="0023"/>
  <note>
numbersign
</note>
  <outline>
    <contour>
      <point x="307.6" y="0.0" type="line"/>
      <point x="420.0" y="0.0" type="line"/>
      <point x="552.0" y="720.0" type="line"/>
      <point x="439.6" y="720.0" type="line"/>
    </contour>
    <contour>
      <point x="40.4" y="192.0" type="line"/>
      <point x="568.4" y="192.0" type="line"/>
      <point x="568.4" y="294.8" type="line"/>
      <point x="40.4" y="294.8" type="line"/>
    </contour>
    <contour>
      <point x="80.8" y="0.0" type="line"/>
      <point x="193.2" y="0.0" type="line"/>
      <point x="325.2" y="720.0" type="line"/>
      <point x="212.8" y="720.0" type="line"/>
    </contour>
    <contour>
      <point x="64.4" y="425.2" type="line"/>
      <point x="592.4" y="425.2" type="line"/>
      <point x="592.4" y="528.0" type="line"/>
      <point x="64.4" y="528.0" type="line"/>
    </contour>
  </outline>
</glyph>
<glyph name="dollar" format="2">
  <advance width="616.0"/>
  <unicode hex="0024"/>
  <note>
dollar
</note>
  <outline>
    <contour>
      <point x="315.2" y="652.8" type="line"/>
      <point x="460.8" y="652.8" type="line"/>
      <point x="500.2" y="860.0" type="line"/>
      <point x="354.6" y="860.0" type="line"/>
    </contour>
    <contour>
      <point x="30.0" y="28.9" type="line"/>
      <point x="75.2" y="8.3"/>
      <point x="176.1" y="-12.0"/>
      <point x="249.6" y="-12.0" type="curve" smooth="yes"/>
      <point x="414.4" y="-12.0"/>
      <point x="558.4" y="58.0"/>
      <point x="558.4" y="212.0" type="curve" smooth="yes"/>
      <point x="558.4" y="322.0"/>
      <point x="485.0" y="375.9"/>
      <point x="388.4" y="402.0" type="curve" smooth="yes"/>
      <point x="339.6" y="415.2" type="line" smooth="yes"/>
      <point x="292.4" y="428.0"/>
      <point x="267.6" y="445.6"/>
      <point x="267.6" y="492.4" type="curve" smooth="yes"/>
      <point x="267.6" y="551.7"/>
      <point x="323.2" y="594.8"/>
      <point x="426.4" y="594.8" type="curve" smooth="yes"/>
      <point x="487.6" y="594.8"/>
      <point x="543.1" y="576.3"/>
      <point x="573.6" y="561.2" type="curve"/>
      <point x="584.4" y="561.2" type="line"/>
      <point x="612.2" y="706.4" type="line"/>
      <point x="564.4" y="722.6"/>
      <point x="495.7" y="732.0"/>
      <point x="431.6" y="732.0" type="curve" smooth="yes"/>
      <point x="204.4" y="732.0"/>
      <point x="97.2" y="624.4"/>
      <point x="97.2" y="481.6" type="curve" smooth="yes"/>
      <point x="97.2" y="367.2"/>
      <point x="163.7" y="310.9"/>
      <point x="279.6" y="279.2" type="curve" smooth="yes"/>
      <point x="328.4" y="266.0" type="line" smooth="yes"/>
      <point x="366.8" y="255.9"/>
      <point x="386.8" y="235.8"/>
      <point x="386.8" y="204.0" type="curve" smooth="yes"/>
      <point x="386.8" y="160.8"/>
      <point x="341.8" y="128.0"/>
      <point x="257.6" y="128.0" type="curve" smooth="yes"/>
      <point x="177.6" y="128.0"/>
      <point x="110.0" y="153.6"/>
      <point x="70.0" y="180.39999999999998" type="curve"/>
      <point x="59.2" y="180.39999999999998" type="line"/>
    </contour>
    <contour>
      <point x="200.2" y="47.2" type="line"/>
      <point x="160.8" y="-160.0" type="line"/>
      <point x="306.4" y="-160.0" type="line"/>
      <point x="345.8" y="47.2" type="line"/>
    </contour>
  </outline>
</glyph>
<glyph name="ampersand" format="2">
  <advance width="686.0"/>
  <unicode hex="0026"/>
  <note>
ampersand
</note>
  <outline>
    <contour>
      <point x="33.2" y="176.8" type="curve" smooth="yes"/>
      <point x="33.2" y="40.8"/>
      <point x="145.2" y="-12.0"/>
      <point x="297.2" y="-12.0" type="curve" smooth="yes"/>
      <point x="383.2" y="-12.0"/>
      <point x="466.4" y="4.0"/>
      <point x="535.2" y="26.8" type="curve"/>
      <point x="539.2" y="34.8" type="line"/>
      <point x="542.0" y="91.2"/>
      <point x="551.9" y="151.0"/>
      <point x="562.0" y="205.0" type="curve" smooth="yes"/>
      <point x="577.8" y="288.8" type="line"/>
      <point x="648.0" y="288.8" type="line"/>
      <point x="672.4" y="417.6" type="line"/>
      <point x="362.8" y="417.6" type="line" smooth="yes"/>
      <point x="301.4" y="417.6"/>
      <point x="258.4" y="431.6"/>
      <point x="258.4" y="488.0" type="curve" smooth="yes"/>
      <point x="258.4" y="554.0"/>
      <point x="323.2" y="588.0"/>
      <point x="425.2" y="588.0" type="curve" smooth="yes"/>
      <point x="501.6" y="588.0"/>
      <point x="567.2" y="569.2"/>
      <point x="603.6" y="550.4" type="curve"/>
      <point x="614.4" y="550.4" type="line"/>
      <point x="643.6" y="701.2" type="line"/>
      <point x="605.0" y="718.6"/>
      <point x="517.2" y="732.0"/>
      <point x="436.0" y="732.0" type="curve" smooth="yes"/>
      <point x="200.4" y="732.0"/>
      <point x="81.2" y="639.6"/>
      <point x="81.2" y="478.4" type="curve" smooth="yes"/>
      <point x="81.2" y="401.2"/>
      <point x="129.6" y="351.6"/>
      <point x="194.0" y="320.8" type="curve"/>
      <point x="188.0" y="364.4" type="line"/>
      <point x="94.4" y="338.0"/>
      <point x="33.2" y="276.8"/>
    </contour>
    <contour>
      <point x="313.6" y="121.19999999999999" type="curve" smooth="yes"/>
      <point x="253.6" y="121.19999999999999"/>
      <point x="206.39999999999998" y="138.4"/>
      <point x="206.39999999999998" y="193.2" type="curve" smooth="yes"/>
      <point x="206.39999999999998" y="257.6"/>
      <point x="254.8" y="288.8"/>
      <point x="330.8" y="288.8" type="curve" smooth="yes"/>
      <point x="415.2" y="288.8" type="line"/>
      <point x="399.2" y="205.6" type="line" smooth="yes"/>
      <point x="391.4" y="169.1"/>
      <point x="388.8" y="133.9"/>
      <point x="394.0" y="107.6" type="curve"/>
      <point x="415.6" y="149.6" type="line"/>
      <point x="389.6" y="133.6"/>
      <point x="371.0" y="121.19999999999999"/>
    </contour>
  </outline>
</glyph>
<glyph name="parenleft" format="2">
  <advance width="381.2"/>
  <unicode hex="0028"/>
  <note>
parenleft
</note>
  <outline>
    <contour>
      <point x="136.0" y="-88.0" type="curve"/>
      <point x="299.6" y="-88.0" type="line"/>
      <point x="299.6" y="-81.2" type="line"/>
      <point x="249.2" y="-6.6"/>
      <point x="220.0" y="82.6"/>
      <point x="220.0" y="194.4" type="curve" smooth="yes"/>
      <point x="220.0" y="424.2"/>
      <point x="324.4" y="617.6"/>
      <point x="463.6" y="753.2" type="curve"/>
      <point x="463.6" y="760.0" type="line"/>
      <point x="289.2" y="760.0" type="line"/>
      <point x="138.8" y="607.6"/>
      <point x="57.6" y="396.2"/>
      <point x="57.6" y="194.4" type="curve" smooth="yes"/>
      <point x="57.6" y="72.1"/>
      <point x="94.3" y="-29.4"/>
    </contour>
  </outline>
</glyph>
<glyph name="parenright" format="2">
  <advance width="381.2"/>
  <unicode hex="0029"/>
  <note>
parenright
</note>
  <outline>
    <contour>
      <point x="-58.099999999999994" y="-81.2" type="curve"/>
      <point x="-58.099999999999994" y="-88.0" type="line"/>
      <point x="116.3" y="-88.0" type="line"/>
      <point x="266.7" y="64.4"/>
      <point x="347.9" y="275.8"/>
      <point x="347.9" y="477.6" type="curve" smooth="yes"/>
      <point x="347.9" y="599.9"/>
      <point x="311.2" y="701.4"/>
      <point x="269.5" y="760.0" type="curve"/>
      <point x="105.9" y="760.0" type="line"/>
      <point x="105.9" y="753.2" type="line"/>
      <point x="156.3" y="678.6"/>
      <point x="185.5" y="589.4"/>
      <point x="185.5" y="477.6" type="curve" smooth="yes"/>
      <point x="185.5" y="247.8"/>
      <point x="81.1" y="54.4"/>
    </contour>
  </outline>
</glyph>
<glyph name="asterisk" format="2">
  <advance width="544.0"/>
  <unicode hex="002A"/>
  <note>
asterisk
</note>
  <outline>
    <contour>
      <point x="191.8" y="263.2" type="line"/>
      <point x="315.0" y="263.2" type="line"/>
      <point x="337.4" y="491.6" type="line"/>
      <point x="404.6" y="720.0" type="line"/>
      <point x="281.4" y="720.0" type="line"/>
      <point x="255.0" y="491.6" type="line"/>
    </contour>
    <contour>
      <point x="276.2" y="458.0" type="line"/>
      <point x="441.8" y="323.2" type="line"/>
      <point x="512.2" y="422.0" type="line"/>
      <point x="317.4" y="524.0" type="line"/>
      <point x="156.2" y="658.8" type="line"/>
      <point x="85.80000000000001" y="560.0" type="line"/>
    </contour>
    <contour>
      <point x="98.2" y="324.0" type="line"/>
      <point x="309.4" y="455.2" type="line"/>
      <point x="541.4" y="555.2" type="line"/>
      <point x="497.0" y="659.2" type="line"/>
      <point x="285.8" y="526.8" type="line"/>
      <point x="53.800000000000004" y="428.0" type="line"/>
    </contour>
  </outline>
</glyph>
<glyph name="plus" format="2">
  <advance width="616.0"/>
  <unicode hex="002B"/>
  <note>
plus
</note>
  <outline>
    <contour>
      <point x="259.6" y="72.0" type="line"/>
      <point x="373.2" y="72.0" type="line"/>
      <point x="373.2" y="560.0" type="line"/>
      <point x="259.6" y="560.0" type="line"/>
    </contour>
    <contour>
      <point x="72.4" y="259.2" type="line"/>
      <point x="560.4" y="259.2" type="line"/>
      <point x="560.4" y="372.8" type="line"/>
      <point x="72.4" y="372.8" type="line"/>
    </contour>
  </outline>
</glyph>
<glyph name="comma" format="2">
  <advance width="282.8"/>
  <unicode hex="002C"/>
  <note>
comma
</note>
  <outline>
    <contour>
      <point x="48.400000000000006" y="-0.8000000000000007" type="curve"/>
      <point x="-65.6" y="-150.8" type="line"/>
      <point x="-65.6" y="-158.8" type="line"/>
      <point x="60.8" y="-158.8" type="line"/>
      <point x="139.2" y="-46.0" type="line" smooth="yes"/>
      <point x="166.2" y="-7.6"/>
      <point x="206.0" y="46.2"/>
      <point x="206.0" y="99.19999999999999" type="curve" smooth="yes"/>
      <point x="206.0" y="149.2"/>
      <point x="169.2" y="181.6"/>
      <point x="119.2" y="181.6" type="curve" smooth="yes"/>
      <point x="55.8" y="181.6"/>
      <point x="8.0" y="133.0"/>
      <point x="8.0" y="69.2" type="curve" smooth="yes"/>
      <point x="8.0" y="31.099999999999998"/>
      <point x="28.5" y="9.7"/>
    </contour>
  </outline>
</glyph>
<glyph name="hyphen" format="2">
  <advance width="524.0"/>
  <unicode hex="002D"/>
  <note>
hyphen
</note>
  <outline>
    <contour>
      <point x="97.6" y="390.0" type="line"/>
      <point x="70.4" y="248.8" type="line"/>
      <point x="452.8" y="248.8" type="line"/>
      <point x="480.0" y="390.0" type="line"/>
    </contour>
  </outline>
</glyph>
<glyph name="period" format="2">
  <advance width="282.8"/>
  <unicode hex="002E"/>
  <note>
period
</note>
  <outline>
    <contour>
      <point x="92.6" y="-10.8" type="curve" smooth="yes"/>
      <point x="155.6" y="-10.8"/>
      <point x="206.0" y="37.6"/>
      <point x="206.0" y="104.4" type="curve" smooth="yes"/>
      <point x="206.0" y="150.4"/>
      <point x="172.7" y="181.6"/>
      <point x="122.6" y="181.6" type="curve" smooth="yes"/>
      <point x="58.3" y="181.6"/>
      <point x="9.200000000000003" y="133.2"/>
      <point x="9.200000000000003" y="66.4" type="curve" smooth="yes"/>
      <point x="9.200000000000003" y="20.4"/>
      <point x="41.900000000000006" y="-10.8"/>
    </contour>
  </outline>
</glyph>
<glyph name="slash" format="2">
  <advance width="566.4"/>
  <unicode hex="002F"/>
  <note>
slash
</note>
  <outline>
    <contour>
      <point x="-20.8" y="0.0" type="line"/>
      <point x="134.39999999999998" y="0.0" type="line"/>
      <point x="627.2" y="720.0" type="line"/>
      <point x="472.0" y="720.0" type="line"/>
    </contour>
  </outline>
</glyph>
<glyph name="zero" format="2">
  <advance width="616.0"/>
  <unicode hex="0030"/>
  <note>
zero
</note>
  <outline>
    <contour>
      <point x="280.4" y="-12.0" type="curve" smooth="yes"/>
      <point x="527.2" y="-12.0"/>
      <point x="619.6" y="270.2"/>
      <point x="619.6" y="461.6" type="curve" smooth="yes"/>
      <point x="619.6" y="624.8"/>
      <point x="542.0" y="732.0"/>
      <point x="375.6" y="732.0" type="curve" smooth="yes"/>
      <point x="128.8" y="732.0"/>
      <point x="36.400000000000006" y="449.8"/>
      <point x="36.400000000000006" y="258.4" type="curve" smooth="yes"/>
      <point x="36.400000000000006" y="95.2"/>
      <point x="114.0" y="-12.0"/>
    </contour>
    <contour>
      <point x="287.2" y="128.0" type="curve" smooth="yes"/>
      <point x="232.4" y="128.0"/>
      <point x="205.2" y="168.8"/>
      <point x="205.2" y="244.4" type="curve" smooth="yes"/>
      <point x="205.2" y="360.3"/>
      <point x="250.0" y="592.0"/>
      <point x="368.8" y="592.0" type="curve" smooth="yes"/>
      <point x="423.6" y="592.0"/>
      <point x="450.8" y="551.2"/>
      <point x="450.8" y="475.6" type="curve" smooth="yes"/>
      <point x="450.8" y="359.7"/>
      <point x="407.2" y="128.0"/>
    </contour>
  </outline>
</glyph>
<glyph name="one" format="2">
  <advance width="616.0"/>
  <unicode hex="0031"/>
  <note>
one
</note>
  <outline>
    <contour>
      <point x="180.4" y="3.6000000000000014" type="line"/>
      <point x="357.6" y="3.6000000000000014" type="line"/>
      <point x="461.0" y="544.4" type="line" smooth="yes"/>
      <point x="469.0" y="584.4"/>
      <point x="486.3" y="668.0"/>
      <point x="500.4" y="704.0" type="curve"/>
      <point x="500.4" y="716.0" type="line"/>
      <point x="479.4" y="720.6"/>
      <point x="430.4" y="728.0"/>
      <point x="362.8" y="728.0" type="curve" smooth="yes"/>
      <point x="264.0" y="728.0"/>
      <point x="184.4" y="721.4"/>
      <point x="148.9" y="713.6" type="curve"/>
      <point x="123.6" y="578.4" type="line"/>
      <point x="296.9" y="578.4" type="line"/>
      <point x="288.5" y="562.4"/>
      <point x="278.2" y="516.0"/>
      <point x="273.2" y="492.0" type="curve" smooth="yes"/>
    </contour>
    <contour>
      <point x="0.8000000000000007" y="0.0" type="line"/>
      <point x="525.6" y="0.0" type="line"/>
      <point x="554.2" y="148.39999999999998" type="line"/>
      <point x="29.4" y="148.39999999999998" type="line"/>
    </contour>
  </outline>
</glyph>
<glyph name="two" format="2">
  <advance width="616.0"/>
  <unicode hex="0032"/>
  <note>
two
</note>
  <outline>
    <contour>
      <point x="7.200000000000003" y="0.0" type="curve"/>
      <point x="12.0" y="0.0" type="line"/>
      <point x="19.200000000000003" y="0.0" type="line"/>
      <point x="181.0" y="79.2" type="line"/>
      <point x="180.0" y="82.2"/>
      <point x="177.6" y="90.7"/>
      <point x="177.6" y="100.4" type="curve" smooth="yes"/>
      <point x="177.6" y="169.1"/>
      <point x="221.3" y="212.5"/>
      <point x="302.0" y="235.2" type="curve" smooth="yes"/>
      <point x="344.4" y="247.2" type="line" smooth="yes"/>
      <point x="505.8" y="293.4"/>
      <point x="598.0" y="363.6"/>
      <point x="598.0" y="515.2" type="curve" smooth="yes"/>
      <point x="598.0" y="634.4"/>
      <point x="515.6" y="732.0"/>
      <point x="337.6" y="732.0" type="curve" smooth="yes"/>
      <point x="267.6" y="732.0"/>
      <point x="209.7" y="720.0"/>
      <point x="158.2" y="700.0" type="curve"/>
      <point x="129.6" y="553.2" type="line"/>
      <point x="140.4" y="553.2" type="line"/>
      <point x="177.2" y="570.4"/>
      <point x="234.8" y="589.2"/>
      <point x="297.2" y="589.2" type="curve" smooth="yes"/>
      <point x="384.7" y="589.2"/>
      <point x="426.4" y="554.5"/>
      <point x="426.4" y="501.2" type="curve" smooth="yes"/>
      <point x="426.4" y="432.4"/>
      <point x="387.6" y="400.6"/>
      <point x="308.8" y="378.8" type="curve" smooth="yes"/>
      <point x="266.4" y="366.8" type="line" smooth="yes"/>
      <point x="79.1" y="313.4"/>
      <point x="3.200000000000003" y="202.0"/>
      <point x="3.200000000000003" y="40.0" type="curve" smooth="yes"/>
      <point x="3.200000000000003" y="25.3"/>
      <point x="5.200000000000003" y="8.0"/>
    </contour>
    <contour>
      <point x="19.200000000000003" y="0.0" type="line"/>
      <point x="511.2" y="0.0" type="line"/>
      <point x="538.4" y="142.8" type="line"/>
      <point x="46.4" y="142.8" type="line"/>
    </contour>
  </outline>
</glyph>
<glyph name="three" format="2">
  <advance width="616.0"/>
  <unicode hex="0033"/>
  <note>
three
</note>
  <outline>
    <contour>
      <point x="177.2" y="375.6" type="line"/>
      <point x="317.2" y="357.2" type="line"/>
      <point x="561.6" y="581.6" type="line" smooth="yes"/>
      <point x="602.4" y="618.7"/>
      <point x="622.8" y="656.6"/>
      <point x="617.2" y="708.0" type="curve"/>
      <point x="609.2" y="720.0" type="line"/>
      <point x="523.6" y="720.0" type="line"/>
    </contour>
    <contour>
      <point x="123.2" y="580.0" type="line"/>
      <point x="494.4" y="580.0" type="line"/>
      <point x="555.2" y="720.0" type="line"/>
      <point x="149.0" y="720.0" type="line"/>
    </contour>
    <contour>
      <point x="18.0" y="23.6" type="line"/>
      <point x="52.400000000000006" y="5.2"/>
      <point x="142.4" y="-12.0"/>
      <point x="214.0" y="-12.0" type="curve" smooth="yes"/>
      <point x="439.3" y="-12.0"/>
      <point x="562.8" y="89.6"/>
      <point x="562.8" y="232.4" type="curve" smooth="yes"/>
      <point x="562.8" y="338.0"/>
      <point x="495.6" y="416.0"/>
      <point x="364.4" y="424.4" type="curve"/>
      <point x="177.2" y="375.6" type="line"/>
      <point x="190.8" y="313.2" type="line"/>
      <point x="279.6" y="313.2" type="line" smooth="yes"/>
      <point x="354.4" y="313.2"/>
      <point x="389.6" y="284.4"/>
      <point x="389.6" y="229.6" type="curve" smooth="yes"/>
      <point x="389.6" y="164.8"/>
      <point x="332.0" y="122.4"/>
      <point x="220.8" y="122.4" type="curve" smooth="yes"/>
      <point x="146.4" y="122.4"/>
      <point x="83.6" y="149.2"/>
      <point x="56.0" y="167.6" type="curve"/>
      <point x="45.2" y="167.6" type="line"/>
    </contour>
  </outline>
</glyph>
<glyph name="four" format="2">
  <advance width="616.0"/>
  <unicode hex="0034"/>
  <note>
four
</note>
  <outline>
    <contour>
      <point x="10.0" y="162.4" type="line"/>
      <point x="134.6" y="162.4" type="line"/>
      <point x="273.0" y="464.8" type="line" smooth="yes"/>
      <point x="311.1" y="545.0"/>
      <point x="344.8" y="579.6"/>
      <point x="420.0" y="579.6" type="curve" smooth="yes"/>
      <point x="449.2" y="579.6"/>
      <point x="506.2" y="568.6"/>
      <point x="525.6" y="566.0" type="curve"/>
      <point x="618.8" y="709.2" type="line"/>
      <point x="588.0" y="719.2"/>
      <point x="543.4" y="728.0"/>
      <point x="486.4" y="728.0" type="curve" smooth="yes"/>
      <point x="327.6" y="728.0"/>
      <point x="212.6" y="681.1"/>
      <point x="122.8" y="482.4" type="curve" smooth="yes"/>
      <point x="33.8" y="288.8" type="line"/>
    </contour>
    <contour>
      <point x="308.8" y="0.0" type="line"/>
      <point x="474.8" y="0.0" type="line"/>
      <point x="580.0" y="553.2" type="line" smooth="yes"/>
      <point x="588.0" y="593.2"/>
      <point x="603.5" y="660.0"/>
      <point x="618.8" y="697.2" type="curve"/>
      <point x="618.8" y="709.2" type="line"/>
      <point x="448.0" y="709.2" type="line"/>
      <point x="448.0" y="635.6" type="line"/>
      <point x="433.4" y="615.6"/>
      <point x="419.1" y="578.4"/>
      <point x="410.8" y="534.4" type="curve" smooth="yes"/>
    </contour>
    <contour>
      <point x="91.6" y="162.4" type="line"/>
      <point x="586.4" y="162.4" type="line"/>
      <point x="613.6" y="305.2" type="line"/>
      <point x="118.8" y="305.2" type="line"/>
    </contour>
  </outline>
</glyph>
<glyph name="five" format="2">
  <advance width="616.0"/>
  <unicode hex="0035"/>
  <note>
five
</note>
  <outline>
    <contour>
      <point x="166.8" y="580.0" type="line"/>
      <point x="596.4" y="580.0" type="line"/>
      <point x="623.6" y="720.0" type="line"/>
      <point x="301.6" y="720.0" type="line" smooth="yes"/>
      <point x="236.4" y="720.0"/>
      <point x="198.0" y="716.0"/>
      <point x="163.2" y="708.3" type="curve"/>
    </contour>
    <contour>
      <point x="89.6" y="304.0" type="line"/>
      <point x="270.4" y="393.2" type="line"/>
      <point x="294.5" y="520.8" type="line" smooth="yes"/>
      <point x="301.8" y="558.2"/>
      <point x="302.0" y="612.0"/>
      <point x="299.2" y="640.0" type="curve"/>
      <point x="299.2" y="695.2" type="line"/>
      <point x="163.2" y="708.3" type="line"/>
      <point x="159.2" y="697.2" type="line"/>
      <point x="156.4" y="652.5"/>
      <point x="143.2" y="584.4"/>
      <point x="135.2" y="544.4" type="curve" smooth="yes"/>
    </contour>
    <contour>
      <point x="11.200000000000003" y="26.4" type="line"/>
      <point x="45.6" y="8.0"/>
      <point x="131.2" y="-12.0"/>
      <point x="208.4" y="-12.0" type="curve" smooth="yes"/>
      <point x="443.2" y="-12.0"/>
      <point x="565.2" y="86.4"/>
      <point x="565.2" y="239.2" type="curve" smooth="yes"/>
      <point x="565.2" y="354.8"/>
      <point x="489.2" y="441.6"/>
      <point x="326.4" y="441.6" type="curve" smooth="yes"/>
      <point x="245.2" y="441.6"/>
      <point x="166.2" y="417.6"/>
      <point x="127.6" y="404.4" type="curve"/>
      <point x="89.6" y="304.0" type="line"/>
      <point x="96.4" y="300.0" type="line"/>
      <point x="134.3" y="309.2"/>
      <point x="182.4" y="319.6"/>
      <point x="254.4" y="319.6" type="curve" smooth="yes"/>
      <point x="355.2" y="319.6"/>
      <point x="390.8" y="288.4"/>
      <point x="390.8" y="236.4" type="curve" smooth="yes"/>
      <point x="390.8" y="170.4"/>
      <point x="334.8" y="128.0"/>
      <point x="215.2" y="128.0" type="curve" smooth="yes"/>
      <point x="138.0" y="128.0"/>
      <point x="82.4" y="149.2"/>
      <point x="49.2" y="170.4" type="curve"/>
      <point x="38.4" y="170.4" type="line"/>
    </contour>
  </outline>
</glyph>
<glyph name="six" format="2">
  <advance width="616.0"/>
  <unicode hex="0036"/>
  <note>
six
</note>
  <outline>
    <contour>
      <point x="297.2" y="-12.0" type="curve" smooth="yes"/>
      <point x="461.2" y="-12.0"/>
      <point x="583.6" y="89.0"/>
      <point x="583.6" y="263.2" type="curve" smooth="yes"/>
      <point x="583.6" y="380.4"/>
      <point x="517.0" y="470.8"/>
      <point x="370.4" y="470.8" type="curve" smooth="yes"/>
      <point x="302.0" y="470.8"/>
      <point x="254.4" y="448.8"/>
      <point x="216.2" y="412.0" type="curve"/>
      <point x="154.0" y="289.2" type="line"/>
      <point x="197.6" y="289.2" type="line"/>
      <point x="224.6" y="320.0"/>
      <point x="267.0" y="343.2"/>
      <point x="319.0" y="343.2" type="curve" smooth="yes"/>
      <point x="383.0" y="343.2"/>
      <point x="416.0" y="309.2"/>
      <point x="416.0" y="248.0" type="curve" smooth="yes"/>
      <point x="416.0" y="186.4"/>
      <point x="381.4" y="121.19999999999999"/>
      <point x="304.0" y="121.19999999999999" type="curve" smooth="yes"/>
      <point x="234.2" y="121.19999999999999"/>
      <point x="205.2" y="167.2"/>
      <point x="205.2" y="248.6" type="curve" smooth="yes"/>
      <point x="205.2" y="393.1"/>
      <point x="240.0" y="592.0"/>
      <point x="457.4" y="592.0" type="curve" smooth="yes"/>
      <point x="503.4" y="592.0"/>
      <point x="543.4" y="582.8"/>
      <point x="565.2" y="573.6" type="curve"/>
      <point x="576.0" y="573.6" type="line"/>
      <point x="603.8" y="717.6" type="line"/>
      <point x="572.4" y="726.8"/>
      <point x="517.6" y="732.0"/>
      <point x="472.8" y="732.0" type="curve" smooth="yes"/>
      <point x="145.0" y="732.0"/>
      <point x="36.400000000000006" y="490.2"/>
      <point x="36.400000000000006" y="257.0" type="curve" smooth="yes"/>
      <point x="36.400000000000006" y="97.0"/>
      <point x="119.8" y="-12.0"/>
    </contour>
  </outline>
</glyph>
<glyph name="seven" format="2">
  <advance width="616.0"/>
  <unicode hex="0037"/>
  <note>
seven
</note>
  <outline>
    <contour>
      <point x="79.4" y="0.0" type="line"/>
      <point x="263.4" y="0.0" type="line"/>
      <point x="604.6" y="556.0" type="line" smooth="yes"/>
      <point x="635.6" y="605.5"/>
      <point x="653.6" y="647.6"/>
      <point x="653.6" y="687.5" type="curve" smooth="yes"/>
      <point x="653.6" y="694.7"/>
      <point x="652.9" y="701.2"/>
      <point x="652.2" y="708.0" type="curve"/>
      <point x="640.2" y="720.0" type="line"/>
      <point x="521.8" y="720.0" type="line"/>
      <point x="521.8" y="666.8" type="line"/>
      <point x="79.4" y="10.8" type="line"/>
    </contour>
    <contour>
      <point x="126.2" y="574.4" type="line"/>
      <point x="523.4" y="574.4" type="line"/>
      <point x="584.2" y="720.0" type="line"/>
      <point x="153.4" y="720.0" type="line"/>
    </contour>
  </outline>
</glyph>
<glyph name="eight" format="2">
  <advance width="616.0"/>
  <unicode hex="0038"/>
  <note>
eight
</note>
  <outline>
    <contour>
      <point x="19.200000000000003" y="169.2" type="curve" smooth="yes"/>
      <point x="19.200000000000003" y="68.0"/>
      <point x="103.6" y="-12.0"/>
      <point x="278.8" y="-12.0" type="curve" smooth="yes"/>
      <point x="454.8" y="-12.0"/>
      <point x="574.4" y="75.2"/>
      <point x="574.4" y="212.4" type="curve" smooth="yes"/>
      <point x="574.4" y="314.8"/>
      <point x="495.9" y="362.5"/>
      <point x="407.2" y="401.2" type="curve" smooth="yes"/>
      <point x="364.4" y="420.0" type="line" smooth="yes"/>
      <point x="301.4" y="447.8"/>
      <point x="264.8" y="468.0"/>
      <point x="264.8" y="516.4" type="curve" smooth="yes"/>
      <point x="264.8" y="569.2"/>
      <point x="304.0" y="604.4"/>
      <point x="369.2" y="604.4" type="curve" smooth="yes"/>
      <point x="429.9" y="604.4"/>
      <point x="462.0" y="576.8"/>
      <point x="462.0" y="527.2" type="curve" smooth="yes"/>
      <point x="462.0" y="469.0"/>
      <point x="413.0" y="424.1"/>
      <point x="360.4" y="402.0" type="curve"/>
      <point x="454.6" y="340.1" type="line"/>
      <point x="548.2" y="381.3"/>
      <point x="624.0" y="442.8"/>
      <point x="624.0" y="551.6" type="curve" smooth="yes"/>
      <point x="624.0" y="649.2"/>
      <point x="539.2" y="732.0"/>
      <point x="380.0" y="732.0" type="curve" smooth="yes"/>
      <point x="181.6" y="732.0"/>
      <point x="96.6" y="619.9"/>
      <point x="96.6" y="507.2" type="curve" smooth="yes"/>
      <point x="96.6" y="411.2"/>
      <point x="158.8" y="364.4"/>
      <point x="238.0" y="330.0" type="curve" smooth="yes"/>
      <point x="280.8" y="311.2" type="line" smooth="yes"/>
      <point x="344.4" y="283.1"/>
      <point x="402.8" y="264.8"/>
      <point x="402.8" y="205.6" type="curve" smooth="yes"/>
      <point x="402.8" y="151.5"/>
      <point x="355.7" y="115.6"/>
      <point x="285.6" y="115.6" type="curve" smooth="yes"/>
      <point x="214.8" y="115.6"/>
      <point x="181.2" y="148.6"/>
      <point x="181.2" y="196.8" type="curve" smooth="yes"/>
      <point x="181.2" y="262.7"/>
      <point x="236.4" y="303.1"/>
      <point x="298.8" y="325.2" type="curve"/>
      <point x="229.6" y="399.2" type="line"/>
      <point x="107.2" y="360.4"/>
      <point x="19.200000000000003" y="286.9"/>
    </contour>
  </outline>
</glyph>
<glyph name="nine" format="2">
  <advance width="616.0"/>
  <unicode hex="0039"/>
  <note>
nine
</note>
  <outline>
    <contour>
      <point x="183.2" y="-12.0" type="curve" smooth="yes"/>
      <point x="511.0" y="-12.0"/>
      <point x="619.6" y="229.8"/>
      <point x="619.6" y="463.0" type="curve" smooth="yes"/>
      <point x="619.6" y="623.0"/>
      <point x="536.2" y="732.0"/>
      <point x="358.8" y="732.0" type="curve" smooth="yes"/>
      <point x="194.8" y="732.0"/>
      <point x="72.4" y="631.0"/>
      <point x="72.4" y="456.8" type="curve" smooth="yes"/>
      <point x="72.4" y="339.6"/>
      <point x="139.0" y="249.2"/>
      <point x="285.6" y="249.2" type="curve" smooth="yes"/>
      <point x="354.0" y="249.2"/>
      <point x="401.6" y="271.2"/>
      <point x="439.8" y="308.0" type="curve"/>
      <point x="502.0" y="430.8" type="line"/>
      <point x="458.4" y="430.8" type="line"/>
      <point x="431.4" y="400.0"/>
      <point x="389.0" y="376.8"/>
      <point x="337.0" y="376.8" type="curve" smooth="yes"/>
      <point x="273.0" y="376.8"/>
      <point x="240.0" y="410.8"/>
      <point x="240.0" y="472.0" type="curve" smooth="yes"/>
      <point x="240.0" y="533.6"/>
      <point x="274.6" y="598.8"/>
      <point x="352.0" y="598.8" type="curve" smooth="yes"/>
      <point x="421.8" y="598.8"/>
      <point x="450.8" y="552.8"/>
      <point x="450.8" y="471.4" type="curve" smooth="yes"/>
      <point x="450.8" y="326.9"/>
      <point x="416.0" y="128.0"/>
      <point x="198.6" y="128.0" type="curve" smooth="yes"/>
      <point x="152.6" y="128.0"/>
      <point x="112.6" y="137.2"/>
      <point x="90.8" y="146.4" type="curve"/>
      <point x="80.0" y="146.4" type="line"/>
      <point x="52.2" y="2.4000000000000004" type="line"/>
      <point x="83.6" y="-6.8"/>
      <point x="138.4" y="-12.0"/>
    </contour>
  </outline>
</glyph>
<glyph name="colon" format="2">
  <advance width="282.8"/>
  <unicode hex="003A"/>
  <note>
colon
</note>
  <outline>
    <contour>
      <point x="164.2" y="351.6" type="curve" smooth="yes"/>
      <point x="227.2" y="351.6"/>
      <point x="277.6" y="400.0"/>
      <point x="277.6" y="466.8" type="curve" smooth="yes"/>
      <point x="277.6" y="512.8"/>
      <point x="244.3" y="544.0"/>
      <point x="194.2" y="544.0" type="curve" smooth="yes"/>
      <point x="129.9" y="544.0"/>
      <point x="80.80000000000001" y="495.6"/>
      <point x="80.80000000000001" y="428.8" type="curve" smooth="yes"/>
      <point x="80.80000000000001" y="382.8"/>
      <point x="113.5" y="351.6"/>
    </contour>
    <contour>
      <point x="92.6" y="-10.8" type="curve" smooth="yes"/>
      <point x="155.6" y="-10.8"/>
      <point x="206.0" y="37.6"/>
      <point x="206.0" y="104.4" type="curve" smooth="yes"/>
      <point x="206.0" y="150.4"/>
      <point x="172.7" y="181.6"/>
      <point x="122.6" y="181.6" type="curve" smooth="yes"/>
      <point x="58.3" y="181.6"/>
      <point x="9.200000000000003" y="133.2"/>
      <point x="9.200000000000003" y="66.4" type="curve" smooth="yes"/>
      <point x="9.200000000000003" y="20.4"/>
      <point x="41.900000000000006" y="-10.8"/>
    </contour>
  </outline>
</glyph>
<glyph name="semicolon" format="2">
  <advance width="282.8"/>
  <unicode hex="003B"/>
  <note>
semicolon
</note>
  <outline>
    <contour>
      <point x="164.2" y="351.6" type="curve" smooth="yes"/>
      <point x="227.2" y="351.6"/>
      <point x="277.6" y="400.0"/>
      <point x="277.6" y="466.8" type="curve" smooth="yes"/>
      <point x="277.6" y="512.8"/>
      <point x="244.3" y="544.0"/>
      <point x="194.2" y="544.0" type="curve" smooth="yes"/>
      <point x="129.9" y="544.0"/>
      <point x="80.80000000000001" y="495.6"/>
      <point x="80.80000000000001" y="428.8" type="curve" smooth="yes"/>
      <point x="80.80000000000001" y="382.8"/>
      <point x="113.5" y="351.6"/>
    </contour>
    <contour>
      <point x="49.6" y="-0.8000000000000007" type="curve"/>
      <point x="-64.4" y="-150.8" type="line"/>
      <point x="-64.4" y="-158.8" type="line"/>
      <point x="62.0" y="-158.8" type="line"/>
      <point x="140.4" y="-46.0" type="line" smooth="yes"/>
      <point x="167.4" y="-7.6"/>
      <point x="207.2" y="46.2"/>
      <point x="207.2" y="99.19999999999999" type="curve" smooth="yes"/>
      <point x="207.2" y="149.2"/>
      <point x="170.4" y="181.6"/>
      <point x="120.4" y="181.6" type="curve" smooth="yes"/>
      <point x="57.0" y="181.6"/>
      <point x="9.200000000000003" y="133.0"/>
      <point x="9.200000000000003" y="69.2" type="curve" smooth="yes"/>
      <point x="9.200000000000003" y="31.099999999999998"/>
      <point x="29.700000000000003" y="9.7"/>
    </contour>
  </outline>
</glyph>
<glyph name="less" format="2">
  <advance width="616.0"/>
  <unicode hex="003C"/>
  <note>
less
</note>
  <outline>
    <contour>
      <point x="92.4" y="282.4" type="line"/>
      <point x="532.4" y="61.2" type="line"/>
      <point x="540.4" y="61.2" type="line"/>
      <point x="540.4" y="185.6" type="line"/>
      <point x="258.8" y="318.8" type="line"/>
      <point x="540.4" y="456.0" type="line"/>
      <point x="540.4" y="577.6" type="line"/>
      <point x="532.4" y="577.6" type="line"/>
      <point x="92.4" y="355.2" type="line"/>
    </contour>
  </outline>
</glyph>
<glyph name="equal" format="2">
  <advance width="616.0"/>
  <unicode hex="003D"/>
  <note>
equal
</note>
  <outline>
    <contour>
      <point x="72.4" y="481.2" type="line"/>
      <point x="72.4" y="367.6" type="line"/>
      <point x="560.4" y="367.6" type="line"/>
      <point x="560.4" y="481.2" type="line"/>
    </contour>
    <contour>
      <point x="72.4" y="264.4" type="line"/>
      <point x="72.4" y="150.8" type="line"/>
      <point x="560.4" y="150.8" type="line"/>
      <point x="560.4" y="264.4" type="line"/>
    </contour>
  </outline>
</glyph>
<glyph name="greater" format="2">
  <advance width="616.0"/>
  <unicode hex="003E"/>
  <note>
greater
</note>
  <outline>
    <contour>
      <point x="100.4" y="61.2" type="line"/>
      <point x="540.4" y="282.4" type="line"/>
      <point x="540.4" y="355.2" type="line"/>
      <point x="100.4" y="577.6" type="line"/>
      <point x="92.4" y="577.6" type="line"/>
      <point x="92.4" y="456.0" type="line"/>
      <point x="374.0" y="318.8" type="line"/>
      <point x="92.4" y="185.6" type="line"/>
      <point x="92.4" y="61.2" type="line"/>
    </contour>
  </outline>
</glyph>
<glyph name="question" format="2">
  <advance width="505.6"/>
  <unicode hex="003F"/>
  <note>
question
</note>
  <outline>
    <contour>
      <point x="136.8" y="279.6" type="curve" smooth="yes"/>
      <point x="129.2" y="232.8" type="line"/>
      <point x="288.4" y="232.8" type="line"/>
      <point x="296.0" y="275.6" type="line" smooth="yes"/>
      <point x="301.3" y="308.0"/>
      <point x="311.4" y="330.3"/>
      <point x="346.8" y="350.4" type="curve" smooth="yes"/>
      <point x="382.0" y="370.0" type="line" smooth="yes"/>
      <point x="424.9" y="394.0"/>
      <point x="537.2" y="453.4"/>
      <point x="537.2" y="569.6" type="curve" smooth="yes"/>
      <point x="537.2" y="680.4"/>
      <point x="462.7" y="732.0"/>
      <point x="322.0" y="732.0" type="curve" smooth="yes"/>
      <point x="261.6" y="732.0"/>
      <point x="195.6" y="721.2"/>
      <point x="137.2" y="698.8" type="curve"/>
      <point x="110.0" y="560.4" type="line"/>
      <point x="120.8" y="560.4" type="line"/>
      <point x="165.3" y="582.8"/>
      <point x="220.8" y="597.6"/>
      <point x="272.0" y="597.6" type="curve" smooth="yes"/>
      <point x="330.1" y="597.6"/>
      <point x="358.8" y="580.1"/>
      <point x="358.8" y="540.4" type="curve" smooth="yes"/>
      <point x="358.8" y="494.9"/>
      <point x="320.7" y="467.8"/>
      <point x="275.6" y="443.2" type="curve" smooth="yes"/>
      <point x="230.0" y="418.4" type="line" smooth="yes"/>
      <point x="170.0" y="385.7"/>
      <point x="145.3" y="341.2"/>
    </contour>
    <contour>
      <point x="84.2" y="69.2" type="curve" smooth="yes"/>
      <point x="84.2" y="17.6"/>
      <point x="117.6" y="-10.8"/>
      <point x="167.6" y="-10.8" type="curve" smooth="yes"/>
      <point x="230.6" y="-10.8"/>
      <point x="281.0" y="40.4"/>
      <point x="281.0" y="101.6" type="curve" smooth="yes"/>
      <point x="281.0" y="153.2"/>
      <point x="247.0" y="181.6"/>
      <point x="197.6" y="181.6" type="curve" smooth="yes"/>
      <point x="134.0" y="181.6"/>
      <point x="84.2" y="130.4"/>
    </contour>
  </outline>
</glyph>
<glyph name="at" format="2">
  <advance width="985.6"/>
  <unicode hex="0040"/>
  <note>
at
</note>
  <outline>
    <contour>
      <point x="470.4" y="-178.4" type="curve" smooth="yes"/>
      <point x="541.2" y="-178.4"/>
      <point x="605.8" y="-169.2"/>
      <point x="654.2" y="-150.4" type="curve"/>
      <point x="672.4" y="-40.6" type="line"/>
      <point x="661.6" y="-40.6" type="line"/>
      <point x="614.8" y="-60.6"/>
      <point x="544.0" y="-70.4"/>
      <point x="480.0" y="-70.4" type="curve" smooth="yes"/>
      <point x="295.2" y="-70.4"/>
      <point x="159.6" y="27.2"/>
      <point x="159.6" y="226.8" type="curve" smooth="yes"/>
      <point x="159.6" y="494.8"/>
      <point x="328.4" y="628.4"/>
      <point x="557.6" y="628.4" type="curve" smooth="yes"/>
      <point x="743.2" y="628.4"/>
      <point x="858.8" y="542.0"/>
      <point x="858.8" y="398.4" type="curve" smooth="yes"/>
      <point x="858.8" y="255.6"/>
      <point x="787.1" y="184.5"/>
      <point x="684.3" y="154.2" type="curve"/>
      <point x="686.5" y="171.9"/>
      <point x="690.3" y="191.4"/>
      <point x="693.6" y="206.4" type="curve" smooth="yes"/>
      <point x="710.8" y="297.6" type="line" smooth="yes"/>
      <point x="738.0" y="442.2"/>
      <point x="656.4" y="505.2"/>
      <point x="525.6" y="505.2" type="curve" smooth="yes"/>
      <point x="473.6" y="505.2"/>
      <point x="421.2" y="494.6"/>
      <point x="386.0" y="482.8" type="curve"/>
      <point x="366.4" y="373.2" type="line"/>
      <point x="374.4" y="373.2" type="line"/>
      <point x="402.4" y="383.8"/>
      <point x="440.8" y="395.6"/>
      <point x="483.2" y="395.6" type="curve" smooth="yes"/>
      <point x="568.4" y="395.6"/>
      <point x="586.4" y="365.2"/>
      <point x="568.0" y="295.6" type="curve"/>
      <point x="553.1" y="216.8" type="line" smooth="yes"/>
      <point x="548.1" y="190.7"/>
      <point x="531.3" y="118.2"/>
      <point x="574.8" y="103.2" type="curve"/>
      <point x="589.6" y="135.6" type="line"/>
      <point x="561.5" y="133.2"/>
      <point x="535.3" y="133.2"/>
      <point x="510.8" y="133.2" type="curve" smooth="yes"/>
      <point x="459.2" y="133.2"/>
      <point x="422.4" y="143.6"/>
      <point x="422.4" y="180.2" type="curve" smooth="yes"/>
      <point x="422.4" y="216.8"/>
      <point x="455.2" y="234.8"/>
      <point x="509.6" y="234.8" type="curve" smooth="yes"/>
      <point x="538.4" y="234.8"/>
      <point x="556.1" y="229.9"/>
      <point x="570.8" y="224.4" type="curve"/>
      <point x="585.6" y="303.6" type="line"/>
      <point x="565.6" y="311.6"/>
      <point x="541.6" y="319.6"/>
      <point x="496.8" y="319.6" type="curve" smooth="yes"/>
      <point x="386.0" y="319.6"/>
      <point x="289.2" y="282.0"/>
      <point x="289.2" y="172.0" type="curve" smooth="yes"/>
      <point x="289.2" y="78.8"/>
      <point x="369.2" y="33.2"/>
      <point x="509.6" y="33.2" type="curve" smooth="yes"/>
      <point x="778.0" y="33.2"/>
      <point x="974.8" y="148.8"/>
      <point x="974.8" y="402.4" type="curve" smooth="yes"/>
      <point x="974.8" y="595.6"/>
      <point x="817.2" y="737.6"/>
      <point x="561.6" y="737.6" type="curve" smooth="yes"/>
      <point x="255.6" y="737.6"/>
      <point x="39.6" y="552.8"/>
      <point x="39.6" y="224.0" type="curve" smooth="yes"/>
      <point x="39.6" y="-23.6"/>
      <point x="211.2" y="-178.4"/>
    </contour>
  </outline>
</glyph>
<glyph name="A" format="2">
  <advance width="713.8"/>
  <unicode hex="0041"/>
  <note>
A
</note>
  <anchor x="303.9" y="0.0" name="bottom"/>
  <anchor x="588.7" y="0.0" name="ogonek"/>
  <anchor x="491.0" y="720.0" name="top"/>
  <outline>
    <contour>
      <point x="-15.299999999999999" y="0.0" type="line"/>
      <point x="165.89999999999998" y="0.0" type="line"/>
      <point x="331.7" y="466.0" type="line" smooth="yes"/>
      <point x="358.9" y="541.3"/>
      <point x="399.1" y="579.6"/>
      <point x="491.9" y="579.6" type="curve" smooth="yes"/>
      <point x="508.2" y="579.6"/>
      <point x="533.6" y="576.3"/>
      <point x="548.4" y="570.4" type="curve"/>
      <point x="541.8" y="611.0" type="line"/>
      <point x="532.3" y="591.3"/>
      <point x="520.3" y="557.1"/>
      <point x="513.5" y="520.4" type="curve" smooth="yes"/>
      <point x="411.5" y="0.0" type="line"/>
      <point x="588.7" y="0.0" type="line"/>
      <point x="696.7" y="553.2" type="line" smooth="yes"/>
      <point x="704.7" y="593.2"/>
      <point x="718.2" y="654.4"/>
      <point x="733.6" y="691.6" type="curve"/>
      <point x="728.0" y="703.6" type="line"/>
      <point x="674.5" y="718.4"/>
      <point x="615.9" y="728.0"/>
      <point x="548.3" y="728.0" type="curve" smooth="yes"/>
      <point x="362.3" y="728.0"/>
      <point x="229.0" y="683.0"/>
      <point x="154.5" y="474.0" type="curve" smooth="yes"/>
    </contour>
    <contour>
      <point x="178.4" y="183.6" type="line"/>
      <point x="489.6" y="183.6" type="line"/>
      <point x="516.8" y="326.4" type="line"/>
      <point x="220.4" y="326.4" type="line"/>
    </contour>
  </outline>
</glyph>
<glyph name="B" format="2">
  <advance width="684.8"/>
  <unicode hex="0042"/>
  <note>
B
</note>
  <anchor x="289.4" y="0.0" name="bottom"/>
  <anchor x="429.4" y="720.0" name="top"/>
  <outline>
    <contour>
      <point x="150.0" y="0.0" type="line"/>
      <point x="359.0" y="0.0" type="line" smooth="yes"/>
      <point x="517.5" y="0.0"/>
      <point x="630.2" y="83.0"/>
      <point x="630.2" y="211.2" type="curve" smooth="yes"/>
      <point x="630.2" y="286.9"/>
      <point x="583.8" y="335.6"/>
      <point x="496.0" y="350.0" type="curve"/>
      <point x="501.6" y="309.2" type="line"/>
      <point x="613.1" y="350.4"/>
      <point x="675.6" y="436.3"/>
      <point x="675.6" y="539.6" type="curve" smooth="yes"/>
      <point x="675.6" y="641.6"/>
      <point x="605.4" y="720.0"/>
      <point x="444.6" y="720.0" type="curve" smooth="yes"/>
      <point x="290.0" y="720.0" type="line"/>
      <point x="262.8" y="574.4" type="line"/>
      <point x="422.2" y="574.4" type="line" smooth="yes"/>
      <point x="466.2" y="574.4"/>
      <point x="501.2" y="558.8"/>
      <point x="501.2" y="507.6" type="curve" smooth="yes"/>
      <point x="501.2" y="447.6"/>
      <point x="457.4" y="392.0"/>
      <point x="388.6" y="392.0" type="curve" smooth="yes"/>
      <point x="227.6" y="392.0" type="line"/>
      <point x="203.2" y="263.2" type="line"/>
      <point x="398.4" y="263.2" type="line" smooth="yes"/>
      <point x="436.0" y="263.2"/>
      <point x="455.8" y="244.8"/>
      <point x="455.8" y="215.2" type="curve" smooth="yes"/>
      <point x="455.8" y="168.8"/>
      <point x="419.8" y="140.0"/>
      <point x="375.8" y="140.0" type="curve" smooth="yes"/>
      <point x="177.2" y="140.0" type="line"/>
    </contour>
    <contour>
      <point x="27.200000000000003" y="0.0" type="line"/>
      <point x="204.39999999999998" y="0.0" type="line"/>
      <point x="344.4" y="720.0" type="line"/>
      <point x="167.2" y="720.0" type="line"/>
    </contour>
  </outline>
</glyph>
<glyph name="C" format="2">
  <advance width="648.0"/>
  <unicode hex="0043"/>
  <note>
C
</note>
  <anchor x="283.6" y="0.0" name="bottom"/>
  <anchor x="423.6" y="720.0" name="top"/>
  <outline>
    <contour>
      <point x="54.0" y="308.6" type="curve" smooth="yes"/>
      <point x="54.0" y="108.2"/>
      <point x="172.0" y="-12.0"/>
      <point x="402.6" y="-12.0" type="curve" smooth="yes"/>
      <point x="462.6" y="-12.0"/>
      <point x="511.6" y="0.0"/>
      <point x="548.8" y="14.4" type="curve"/>
      <point x="577.2" y="165.2" type="line"/>
      <point x="566.4" y="165.2" type="line"/>
      <point x="532.2" y="148.2"/>
      <point x="480.4" y="137.6"/>
      <point x="426.0" y="137.6" type="curve" smooth="yes"/>
      <point x="295.6" y="137.6"/>
      <point x="235.2" y="201.6"/>
      <point x="235.2" y="317.0" type="curve" smooth="yes"/>
      <point x="235.2" y="459.2"/>
      <point x="324.8" y="582.4"/>
      <point x="497.2" y="582.4" type="curve" smooth="yes"/>
      <point x="564.8" y="582.4"/>
      <point x="607.4" y="569.0"/>
      <point x="637.0" y="552.0" type="curve"/>
      <point x="647.8" y="552.0" type="line"/>
      <point x="677.0" y="705.6" type="line"/>
      <point x="646.8" y="720.0"/>
      <point x="577.6" y="732.0"/>
      <point x="500.8" y="732.0" type="curve" smooth="yes"/>
      <point x="219.2" y="732.0"/>
      <point x="54.0" y="542.8"/>
    </contour>
  </outline>
</glyph>
<glyph name="D" format="2">
  <advance width="759.2"/>
  <unicode hex="0044"/>
  <note>
D
</note>
  <anchor x="321.6" y="0.0" name="bottom"/>
  <anchor x="191.4" y="363.8" name="center"/>
  <anchor x="474.6" y="720.0" name="top"/>
  <outline>
    <contour>
      <point x="290.0" y="720.0" type="line"/>
      <point x="260.0" y="566.0" type="line"/>
      <point x="402.4" y="566.0" type="line" smooth="yes"/>
      <point x="516.8" y="566.0"/>
      <point x="564.0" y="524.0"/>
      <point x="564.0" y="430.8" type="curve" smooth="yes"/>
      <point x="564.0" y="294.8"/>
      <point x="477.6" y="154.0"/>
      <point x="319.2" y="154.0" type="curve" smooth="yes"/>
      <point x="180.0" y="154.0" type="line"/>
      <point x="150.0" y="0.0" type="line"/>
      <point x="313.6" y="0.0" type="line" smooth="yes"/>
      <point x="605.2" y="0.0"/>
      <point x="745.2" y="230.8"/>
      <point x="745.2" y="440.4" type="curve" smooth="yes"/>
      <point x="745.2" y="628.0"/>
      <point x="624.4" y="720.0"/>
      <point x="416.4" y="720.0" type="curve" smooth="yes"/>
    </contour>
    <contour>
      <point x="27.200000000000003" y="0.0" type="line"/>
      <point x="204.39999999999998" y="0.0" type="line"/>
      <point x="344.4" y="720.0" type="line"/>
      <point x="167.2" y="720.0" type="line"/>
    </contour>
  </outline>
</glyph>
<glyph name="E" format="2">
  <advance width="613.2"/>
  <unicode hex="0045"/>
  <note>
E
</note>
  <anchor x="275.3" y="0.0" name="bottom"/>
  <anchor x="511.4" y="0.0" name="ogonek"/>
  <anchor x="414.6" y="720.0" name="top"/>
  <anchor x="107.0" y="720.0" name="topleft"/>
  <outline>
    <contour>
      <point x="27.200000000000003" y="0.0" type="line"/>
      <point x="204.39999999999998" y="0.0" type="line"/>
      <point x="344.4" y="720.0" type="line"/>
      <point x="167.2" y="720.0" type="line"/>
    </contour>
    <contour>
      <point x="150.0" y="0.0" type="line"/>
      <point x="511.4" y="0.0" type="line"/>
      <point x="540.0" y="154.0" type="line"/>
      <point x="180.0" y="154.0" type="line"/>
    </contour>
    <contour>
      <point x="209.6" y="288.4" type="line"/>
      <point x="508.6" y="288.4" type="line"/>
      <point x="535.8" y="434.0" type="line"/>
      <point x="236.8" y="434.0" type="line"/>
    </contour>
    <contour>
      <point x="260.0" y="566.0" type="line"/>
      <point x="613.6" y="566.0" type="line"/>
      <point x="642.2" y="720.0" type="line"/>
      <point x="290.0" y="720.0" type="line"/>
    </contour>
  </outline>
</glyph>
<glyph name="F" format="2">
  <advance width="583.2"/>
  <unicode hex="0046"/>
  <note>
F
</note>
  <anchor x="238.6" y="0.0" name="bottom"/>
  <anchor x="378.6" y="720.0" name="top"/>
  <outline>
    <contour>
      <point x="27.200000000000003" y="0.0" type="line"/>
      <point x="204.39999999999998" y="0.0" type="line"/>
      <point x="344.4" y="720.0" type="line"/>
      <point x="167.2" y="720.0" type="line"/>
    </contour>
    <contour>
      <point x="196.8" y="235.2" type="line"/>
      <point x="495.8" y="235.2" type="line"/>
      <point x="523.0" y="380.8" type="line"/>
      <point x="224.0" y="380.8" type="line"/>
    </contour>
    <contour>
      <point x="260.0" y="566.0" type="line"/>
      <point x="610.0" y="566.0" type="line"/>
      <point x="638.6" y="720.0" type="line"/>
      <point x="290.0" y="720.0" type="line"/>
    </contour>
  </outline>
</glyph>
<glyph name="G" format="2">
  <advance width="712.0"/>
  <unicode hex="0047"/>
  <note>
G
</note>
  <anchor x="303.0" y="0.0" name="bottom"/>
  <anchor x="443.0" y="720.0" name="top"/>
  <outline>
    <contour>
      <point x="54.6" y="308.6" type="curve" smooth="yes"/>
      <point x="54.6" y="104.0"/>
      <point x="169.8" y="-12.0"/>
      <point x="410.2" y="-12.0" type="curve" smooth="yes"/>
      <point x="467.4" y="-12.0"/>
      <point x="551.8" y="0.0"/>
      <point x="600.6" y="21.2" type="curve"/>
      <point x="666.6" y="366.8" type="line"/>
      <point x="502.0" y="366.8" type="line"/>
      <point x="444.8" y="70.2" type="line"/>
      <point x="490.1" y="162.8" type="line"/>
      <point x="470.0" y="143.1"/>
      <point x="438.0" y="133.6"/>
      <point x="401.4" y="133.6" type="curve" smooth="yes"/>
      <point x="285.3" y="133.6"/>
      <point x="235.8" y="201.6"/>
      <point x="235.8" y="312.8" type="curve" smooth="yes"/>
      <point x="235.8" y="464.4"/>
      <point x="328.8" y="582.4"/>
      <point x="507.8" y="582.4" type="curve" smooth="yes"/>
      <point x="579.6" y="582.4"/>
      <point x="636.4" y="564.7"/>
      <point x="666.0" y="549.2" type="curve"/>
      <point x="676.8" y="549.2" type="line"/>
      <point x="706.0" y="702.8" type="line"/>
      <point x="664.6" y="720.0"/>
      <point x="595.2" y="732.0"/>
      <point x="507.2" y="732.0" type="curve" smooth="yes"/>
      <point x="220.2" y="732.0"/>
      <point x="54.6" y="545.2"/>
    </contour>
  </outline>
</glyph>
<glyph name="H" format="2">
  <advance width="769.6"/>
  <unicode hex="0048"/>
  <note>
H
</note>
  <anchor x="328.3" y="0.0" name="bottom"/>
  <anchor x="447.9" y="575.8" name="center"/>
  <anchor x="472.5" y="720.0" name="top"/>
  <anchor x="704.5" y="720.0" name="topleft"/>
  <outline>
    <contour>
      <point x="606.8" y="720.0" type="line"/>
      <point x="466.8" y="0.0" type="line"/>
      <point x="644.0" y="0.0" type="line"/>
      <point x="784.0" y="720.0" type="line"/>
    </contour>
    <contour>
      <point x="204.39999999999998" y="0.0" type="line"/>
      <point x="344.4" y="720.0" type="line"/>
      <point x="167.2" y="720.0" type="line"/>
      <point x="27.200000000000003" y="0.0" type="line"/>
    </contour>
    <contour>
      <point x="578.4" y="284.4" type="line"/>
      <point x="608.4" y="438.4" type="line"/>
      <point x="228.4" y="438.4" type="line"/>
      <point x="198.4" y="284.4" type="line"/>
    </contour>
  </outline>
</glyph>
<glyph name="I" format="2">
  <advance width="330.0"/>
  <unicode hex="0049"/>
  <note>
I
</note>
  <anchor x="112.0" y="0.0" name="bottom"/>
  <anchor x="204.39999999999998" y="0.0" name="ogonek"/>
  <anchor x="252.0" y="720.0" name="top"/>
  <anchor x="107.0" y="720.0" name="topleft"/>
  <outline>
    <contour>
      <point x="167.2" y="720.0" type="line"/>
      <point x="27.200000000000003" y="0.0" type="line"/>
      <point x="204.39999999999998" y="0.0" type="line"/>
      <point x="344.4" y="720.0" type="line"/>
    </contour>
  </outline>
</glyph>
<glyph name="J" format="2">
  <advance width="462.4"/>
  <unicode hex="004A"/>
  <note>
J
</note>
  <anchor x="178.2" y="0.0" name="bottom"/>
  <anchor x="318.2" y="720.0" name="top"/>
  <outline>
    <contour>
      <point x="91.6" y="-12.0" type="curve" smooth="yes"/>
      <point x="252.8" y="-12.0"/>
      <point x="357.7" y="60.4"/>
      <point x="390.6" y="234.6" type="curve" smooth="yes"/>
      <point x="482.8" y="720.0" type="line"/>
      <point x="305.6" y="720.0" type="line"/>
      <point x="214.8" y="243.0" type="line" smooth="yes"/>
      <point x="199.3" y="164.39999999999998"/>
      <point x="153.2" y="133.6"/>
      <point x="78.8" y="133.6" type="curve" smooth="yes"/>
      <point x="48.4" y="133.6"/>
      <point x="26.4" y="140.2"/>
      <point x="10.399999999999999" y="149.6" type="curve"/>
      <point x="-0.40000000000000213" y="149.6" type="line"/>
      <point x="-27.6" y="4.0" type="line"/>
      <point x="-2.200000000000001" y="-4.0"/>
      <point x="49.2" y="-12.0"/>
    </contour>
  </outline>
</glyph>
<glyph name="K" format="2">
  <advance width="708.4"/>
  <unicode hex="004B"/>
  <note>
K
</note>
  <anchor x="301.2" y="0.0" name="bottom"/>
  <anchor x="441.2" y="720.0" name="top"/>
  <outline>
    <contour>
      <point x="200.8" y="246.4" type="line"/>
      <point x="302.4" y="246.4" type="line" smooth="yes"/>
      <point x="429.6" y="246.4"/>
      <point x="529.2" y="308.4"/>
      <point x="598.2" y="431.2" type="curve" smooth="yes"/>
      <point x="757.8" y="709.2" type="line"/>
      <point x="757.8" y="720.0" type="line"/>
      <point x="581.6" y="720.0" type="line"/>
      <point x="449.2" y="478.8" type="line" smooth="yes"/>
      <point x="423.5" y="430.8"/>
      <point x="382.8" y="397.6"/>
      <point x="317.6" y="397.6" type="curve" smooth="yes"/>
      <point x="230.8" y="397.6" type="line"/>
    </contour>
    <contour>
      <point x="27.200000000000003" y="0.0" type="line"/>
      <point x="204.39999999999998" y="0.0" type="line"/>
      <point x="344.4" y="720.0" type="line"/>
      <point x="167.2" y="720.0" type="line"/>
    </contour>
    <contour>
      <point x="442.0" y="0.0" type="line"/>
      <point x="625.0" y="0.0" type="line"/>
      <point x="625.0" y="10.8" type="line"/>
      <point x="484.8" y="331.2" type="line"/>
      <point x="330.8" y="277.2" type="line"/>
    </contour>
  </outline>
</glyph>
<glyph name="L" format="2">
  <advance width="560.0"/>
  <unicode hex="004C"/>
  <note>
L
</note>
  <anchor x="222.0" y="0.0" name="bottom"/>
  <anchor x="203.4" y="391.4" name="center"/>
  <anchor x="431.8" y="420.0" name="periodCAT"/>
  <anchor x="375.0" y="720.0" name="top"/>
  <anchor x="488.5" y="518.8" name="topright"/>
  <outline>
    <contour>
      <point x="27.200000000000003" y="0.0" type="line"/>
      <point x="479.4" y="0.0" type="line"/>
      <point x="508.0" y="154.0" type="line"/>
      <point x="234.39999999999998" y="154.0" type="line"/>
      <point x="344.4" y="720.0" type="line"/>
      <point x="167.2" y="720.0" type="line"/>
    </contour>
  </outline>
</glyph>
<glyph name="M" format="2">
  <advance width="873.2"/>
  <unicode hex="004D"/>
  <note>
M
</note>
  <anchor x="383.6" y="0.0" name="bottom"/>
  <anchor x="523.6" y="720.0" name="top"/>
  <outline>
    <contour>
      <point x="164.4" y="720.0" type="line"/>
      <point x="27.200000000000003" y="0.0" type="line"/>
      <point x="204.39999999999998" y="0.0" type="line"/>
      <point x="294.0" y="470.8" type="line"/>
      <point x="249.2" y="478.0" type="line"/>
      <point x="377.0" y="161.2" type="line"/>
      <point x="469.8" y="161.2" type="line"/>
      <point x="703.2" y="458.4" type="line"/>
      <point x="665.6" y="484.8" type="line"/>
      <point x="573.2" y="0.0" type="line"/>
      <point x="750.4" y="0.0" type="line"/>
      <point x="887.6" y="720.0" type="line"/>
      <point x="734.8" y="720.0" type="line"/>
      <point x="416.4" y="314.0" type="line"/>
      <point x="479.2" y="310.0" type="line"/>
      <point x="314.4" y="720.0" type="line"/>
    </contour>
  </outline>
</glyph>
<glyph name="N" format="2">
  <advance width="772.4"/>
  <unicode hex="004E"/>
  <note>
N
</note>
  <anchor x="333.2" y="0.0" name="bottom"/>
  <anchor x="473.2" y="720.0" name="top"/>
  <outline>
    <contour>
      <point x="472.4" y="0.0" type="line"/>
      <point x="649.6" y="0.0" type="line"/>
      <point x="786.8" y="720.0" type="line"/>
      <point x="609.6" y="720.0" type="line"/>
    </contour>
    <contour>
      <point x="27.200000000000003" y="0.0" type="line"/>
      <point x="204.39999999999998" y="0.0" type="line"/>
      <point x="300.8" y="510.0" type="line"/>
      <point x="253.6" y="515.2" type="line"/>
      <point x="554.4" y="119.6" type="line"/>
      <point x="594.0" y="340.0" type="line"/>
      <point x="304.8" y="720.0" type="line"/>
      <point x="164.4" y="720.0" type="line"/>
    </contour>
  </outline>
</glyph>
<glyph name="O" format="2">
  <advance width="818.3"/>
  <unicode hex="004F"/>
  <note>
O
</note>
  <anchor x="355.8" y="0.0" name="bottom"/>
  <anchor x="425.8" y="360.0" name="center"/>
  <anchor x="490.4" y="0.0" name="ogonek"/>
  <anchor x="495.8" y="720.0" name="top"/>
  <anchor x="107.0" y="720.0" name="topleft"/>
  <anchor x="576.5" y="715.1" name="topright"/>
  <outline>
    <contour>
      <point x="54.0" y="298.0" type="curve" smooth="yes"/>
      <point x="54.0" y="104.0"/>
      <point x="176.0" y="-12.0"/>
      <point x="383.6" y="-12.0" type="curve" smooth="yes"/>
      <point x="650.4" y="-12.0"/>
      <point x="803.6" y="194.4"/>
      <point x="803.6" y="422.0" type="curve" smooth="yes"/>
      <point x="803.6" y="610.4"/>
      <point x="681.6" y="732.0"/>
      <point x="474.0" y="732.0" type="curve" smooth="yes"/>
      <point x="208.4" y="732.0"/>
      <point x="54.0" y="520.0"/>
    </contour>
    <contour>
      <point x="235.2" y="306.4" type="curve" smooth="yes"/>
      <point x="235.2" y="424.0"/>
      <point x="307.6" y="582.4"/>
      <point x="464.4" y="582.4" type="curve" smooth="yes"/>
      <point x="559.2" y="582.4"/>
      <point x="622.4" y="528.4"/>
      <point x="622.4" y="413.6" type="curve" smooth="yes"/>
      <point x="622.4" y="296.0"/>
      <point x="550.0" y="137.6"/>
      <point x="393.2" y="137.6" type="curve" smooth="yes"/>
      <point x="298.4" y="137.6"/>
      <point x="235.2" y="191.6"/>
    </contour>
  </outline>
</glyph>
<glyph name="P" format="2">
  <advance width="684.4"/>
  <unicode hex="0050"/>
  <note>
P
</note>
  <anchor x="289.2" y="0.0" name="bottom"/>
  <anchor x="429.2" y="720.0" name="top"/>
  <outline>
    <contour>
      <point x="186.8" y="184.0" type="line"/>
      <point x="356.0" y="184.0" type="line" smooth="yes"/>
      <point x="557.6" y="184.0"/>
      <point x="696.4" y="329.2"/>
      <point x="696.4" y="495.6" type="curve" smooth="yes"/>
      <point x="696.4" y="647.6"/>
      <point x="598.4" y="720.0"/>
      <point x="435.2" y="720.0" type="curve" smooth="yes"/>
      <point x="290.0" y="720.0" type="line"/>
      <point x="262.8" y="571.6" type="line"/>
      <point x="421.6" y="571.6" type="line" smooth="yes"/>
      <point x="479.6" y="571.6"/>
      <point x="518.0" y="545.2"/>
      <point x="518.0" y="484.4" type="curve" smooth="yes"/>
      <point x="518.0" y="403.2"/>
      <point x="460.4" y="326.8"/>
      <point x="356.0" y="326.8" type="curve" smooth="yes"/>
      <point x="214.0" y="326.8" type="line"/>
    </contour>
    <contour>
      <point x="27.200000000000003" y="0.0" type="line"/>
      <point x="204.39999999999998" y="0.0" type="line"/>
      <point x="344.4" y="720.0" type="line"/>
      <point x="167.2" y="720.0" type="line"/>
    </contour>
  </outline>
</glyph>
<glyph name="Q" format="2">
  <advance width="817.6"/>
  <unicode hex="0051"/>
  <note>
Q
</note>
  <anchor x="355.8" y="0.0" name="bottom"/>
  <anchor x="495.8" y="720.0" name="top"/>
  <anchor x="425.8" y="360.0" name="center"/>
  <anchor x="490.4" y="0.0" name="ogonek"/>
  <anchor x="107.0" y="720.0" name="topleft"/>
  <anchor x="576.5" y="715.1" name="topright"/>
  <outline>
    <contour>
      <point x="536.8" y="112.0" type="line"/>
      <point x="370.8" y="67.6" type="line"/>
      <point x="572.0" y="-160.0" type="line"/>
      <point x="779.6" y="-160.0" type="line"/>
      <point x="779.6" y="-149.2" type="line"/>
    </contour>
    <component base="O"/>
  </outline>
</glyph>
<glyph name="R" format="2">
  <advance width="721.0"/>
  <unicode hex="0052"/>
  <note>
R
</note>
  <anchor x="307.5" y="0.0" name="bottom"/>
  <anchor x="447.5" y="720.0" name="top"/>
  <outline>
    <contour>
      <point x="180.0" y="171.2" type="line"/>
      <point x="367.6" y="171.2" type="line"/>
      <point x="503.6" y="171.2"/>
      <point x="703.2" y="296.0"/>
      <point x="703.2" y="493.2" type="curve" smooth="yes"/>
      <point x="703.2" y="643.6"/>
      <point x="611.6" y="720.0"/>
      <point x="441.2" y="720.0" type="curve" smooth="yes"/>
      <point x="287.2" y="720.0" type="line"/>
      <point x="260.0" y="571.6" type="line"/>
      <point x="424.4" y="571.6" type="line" smooth="yes"/>
      <point x="485.2" y="571.6"/>
      <point x="524.8" y="548.0"/>
      <point x="524.8" y="484.8" type="curve" smooth="yes"/>
      <point x="524.8" y="403.6"/>
      <point x="463.2" y="315.2"/>
      <point x="353.2" y="315.2" type="curve" smooth="yes"/>
      <point x="210.0" y="315.2" type="line"/>
    </contour>
    <contour>
      <point x="27.200000000000003" y="0.0" type="line"/>
      <point x="204.39999999999998" y="0.0" type="line"/>
      <point x="344.4" y="720.0" type="line"/>
      <point x="167.2" y="720.0" type="line"/>
    </contour>
    <contour>
      <point x="437.8" y="0.0" type="line"/>
      <point x="627.6" y="0.0" type="line"/>
      <point x="627.6" y="10.8" type="line"/>
      <point x="491.6" y="249.2" type="line"/>
      <point x="339.2" y="196.4" type="line"/>
    </contour>
  </outline>
</glyph>
<glyph name="S" format="2">
  <advance width="628.8"/>
  <unicode hex="0053"/>
  <note>
S
</note>
  <anchor x="261.4" y="0.0" name="bottom"/>
  <anchor x="401.4" y="720.0" name="top"/>
  <outline>
    <contour>
      <point x="49.6" y="184.39999999999998" type="line"/>
      <point x="20.4" y="33.6" type="line"/>
      <point x="80.0" y="6.8"/>
      <point x="168.8" y="-12.0"/>
      <point x="258.4" y="-12.0" type="curve" smooth="yes"/>
      <point x="444.0" y="-12.0"/>
      <point x="589.0" y="50.4"/>
      <point x="589.0" y="215.6" type="curve" smooth="yes"/>
      <point x="589.0" y="332.4"/>
      <point x="498.4" y="377.4"/>
      <point x="400.0" y="397.6" type="curve" smooth="yes"/>
      <point x="347.6" y="409.2" type="line" smooth="yes"/>
      <point x="283.2" y="422.7"/>
      <point x="256.0" y="440.8"/>
      <point x="256.0" y="485.8" type="curve" smooth="yes"/>
      <point x="256.0" y="557.0"/>
      <point x="322.4" y="588.0"/>
      <point x="422.8" y="588.0" type="curve" smooth="yes"/>
      <point x="506.0" y="588.0"/>
      <point x="568.0" y="569.2"/>
      <point x="604.4" y="550.4" type="curve"/>
      <point x="615.2" y="550.4" type="line"/>
      <point x="644.4" y="701.2" type="line"/>
      <point x="605.8" y="718.6"/>
      <point x="518.4" y="732.0"/>
      <point x="442.4" y="732.0" type="curve" smooth="yes"/>
      <point x="196.8" y="732.0"/>
      <point x="78.2" y="629.0"/>
      <point x="78.2" y="467.2" type="curve" smooth="yes"/>
      <point x="78.2" y="352.8"/>
      <point x="159.5" y="293.6"/>
      <point x="279.6" y="269.2" type="curve" smooth="yes"/>
      <point x="332.0" y="257.6" type="line" smooth="yes"/>
      <point x="386.8" y="245.8"/>
      <point x="411.2" y="237.4"/>
      <point x="411.2" y="199.2" type="curve" smooth="yes"/>
      <point x="411.2" y="150.0"/>
      <point x="355.2" y="132.0"/>
      <point x="276.4" y="132.0" type="curve" smooth="yes"/>
      <point x="181.2" y="132.0"/>
      <point x="107.2" y="154.8"/>
      <point x="60.4" y="184.39999999999998" type="curve"/>
    </contour>
  </outline>
</glyph>
<glyph name="T" format="2">
  <advance width="634.4"/>
  <unicode hex="0054"/>
  <note>
T
</note>
  <anchor x="271.4" y="0.0" name="bottom"/>
  <anchor x="334.2" y="360.0" name="center"/>
  <anchor x="404.2" y="720.0" name="top"/>
  <outline>
    <contour>
      <point x="107.6" y="720.0" type="line"/>
      <point x="79.0" y="566.0" type="line"/>
      <point x="290.4" y="566.0" type="line"/>
      <point x="182.8" y="0.0" type="line"/>
      <point x="360.0" y="0.0" type="line"/>
      <point x="467.6" y="566.0" type="line"/>
      <point x="678.2" y="566.0" type="line"/>
      <point x="706.8" y="720.0" type="line"/>
    </contour>
  </outline>
</glyph>
<glyph name="U" format="2">
  <advance width="751.6"/>
  <unicode hex="0055"/>
  <note>
U
</note>
  <anchor x="322.8" y="0.0" name="bottom"/>
  <anchor x="386.5" y="10.0" name="ogonek"/>
  <anchor x="463.5" y="720.0" name="top"/>
  <anchor x="725.4" y="720.0" name="topright"/>
  <outline>
    <contour>
      <point x="72.8" y="208.3" type="curve" smooth="yes"/>
      <point x="72.8" y="68.4"/>
      <point x="161.6" y="-12.0"/>
      <point x="341.4" y="-12.0" type="curve" smooth="yes"/>
      <point x="548.4" y="-12.0"/>
      <point x="652.6" y="98.0"/>
      <point x="691.4" y="301.6" type="curve" smooth="yes"/>
      <point x="771.0" y="720.0" type="line"/>
      <point x="593.8" y="720.0" type="line"/>
      <point x="511.4" y="290.4" type="line" smooth="yes"/>
      <point x="492.1" y="189.6"/>
      <point x="440.6" y="137.6"/>
      <point x="356.6" y="137.6" type="curve" smooth="yes"/>
      <point x="283.3" y="137.6"/>
      <point x="251.39999999999998" y="172.39999999999998"/>
      <point x="251.39999999999998" y="235.2" type="curve" smooth="yes"/>
      <point x="251.39999999999998" y="252.7"/>
      <point x="253.0" y="270.4"/>
      <point x="256.6" y="290.4" type="curve" smooth="yes"/>
      <point x="339.0" y="720.0" type="line"/>
      <point x="161.8" y="720.0" type="line"/>
      <point x="82.2" y="304.4" type="line" smooth="yes"/>
      <point x="75.5" y="269.6"/>
      <point x="72.8" y="237.6"/>
    </contour>
  </outline>
</glyph>
<glyph name="V" format="2">
  <advance width="695.0"/>
  <unicode hex="0056"/>
  <note>
V
</note>
  <anchor x="294.5" y="0.0" name="bottom"/>
  <anchor x="434.5" y="720.0" name="top"/>
  <outline>
    <contour>
      <point x="28.0" y="21.6" type="curve"/>
      <point x="33.6" y="9.6" type="line"/>
      <point x="84.3" y="-2.4000000000000004"/>
      <point x="140.6" y="-9.2"/>
      <point x="197.0" y="-9.2" type="curve" smooth="yes"/>
      <point x="391.4" y="-9.2"/>
      <point x="513.1" y="36.7"/>
      <point x="587.0" y="246.0" type="curve" smooth="yes"/>
      <point x="754.4" y="720.0" type="line"/>
      <point x="573.2" y="720.0" type="line"/>
      <point x="409.8" y="254.0" type="line" smooth="yes"/>
      <point x="383.2" y="178.4"/>
      <point x="354.6" y="139.2"/>
      <point x="261.8" y="139.2" type="curve" smooth="yes"/>
      <point x="243.8" y="139.2"/>
      <point x="226.0" y="140.39999999999998"/>
      <point x="196.39999999999998" y="155.6" type="curve"/>
      <point x="216.8" y="102.4" type="line"/>
      <point x="227.89999999999998" y="122.1"/>
      <point x="242.5" y="161.3"/>
      <point x="249.3" y="199.6" type="curve" smooth="yes"/>
      <point x="348.5" y="720.0" type="line"/>
      <point x="171.3" y="720.0" type="line"/>
      <point x="66.1" y="166.8" type="line" smooth="yes"/>
      <point x="58.1" y="126.8"/>
      <point x="42.8" y="58.8"/>
    </contour>
  </outline>
</glyph>
<glyph name="W" format="2">
  <advance width="1100.0"/>
  <unicode hex="0057"/>
  <note>
W
</note>
  <anchor x="497.0" y="0.0" name="bottom"/>
  <anchor x="637.0" y="720.0" name="top"/>
  <outline>
    <contour>
      <point x="633.2" y="-9.2" type="curve" smooth="yes"/>
      <point x="803.5" y="-9.2"/>
      <point x="936.0" y="67.2"/>
      <point x="997.6" y="238.8" type="curve" smooth="yes"/>
      <point x="1170.0" y="720.0" type="line"/>
      <point x="988.8" y="720.0" type="line"/>
      <point x="822.0" y="251.6" type="line" smooth="yes"/>
      <point x="795.2" y="178.1"/>
      <point x="747.6" y="139.2"/>
      <point x="665.6" y="139.2" type="curve" smooth="yes"/>
      <point x="640.4" y="139.2"/>
      <point x="619.5" y="140.6"/>
      <point x="593.6" y="148.39999999999998" type="curve"/>
      <point x="652.8" y="104.8" type="line"/>
      <point x="660.8" y="134.2"/>
      <point x="669.5" y="180.9"/>
      <point x="675.6" y="234.8" type="curve" smooth="yes"/>
      <point x="725.2" y="720.0" type="line"/>
      <point x="553.6" y="720.0" type="line"/>
      <point x="495.6" y="153.6" type="line" smooth="yes"/>
      <point x="491.2" y="114.3"/>
      <point x="483.0" y="58.8"/>
      <point x="471.6" y="21.6" type="curve"/>
      <point x="477.2" y="9.6" type="line"/>
      <point x="526.8" y="-1.2000000000000002"/>
      <point x="578.7" y="-9.2"/>
    </contour>
    <contour>
      <point x="208.0" y="-9.2" type="curve" smooth="yes"/>
      <point x="375.2" y="-9.2"/>
      <point x="484.7" y="86.7"/>
      <point x="525.4" y="237.6" type="curve" smooth="yes"/>
      <point x="547.6" y="321.6" type="line"/>
      <point x="557.6" y="582.4" type="line"/>
      <point x="422.0" y="265.6" type="line" smooth="yes"/>
      <point x="391.1" y="192.8"/>
      <point x="353.2" y="139.2"/>
      <point x="271.2" y="139.2" type="curve" smooth="yes"/>
      <point x="252.9" y="139.2"/>
      <point x="242.8" y="140.39999999999998"/>
      <point x="218.4" y="152.8" type="curve"/>
      <point x="238.8" y="106.4" type="line"/>
      <point x="246.2" y="132.8"/>
      <point x="254.0" y="179.9"/>
      <point x="260.4" y="234.8" type="curve" smooth="yes"/>
      <point x="311.2" y="720.0" type="line"/>
      <point x="134.0" y="720.0" type="line"/>
      <point x="78.8" y="181.6" type="line" smooth="yes"/>
      <point x="73.5" y="127.1"/>
      <point x="65.6" y="68.4"/>
      <point x="50.8" y="21.6" type="curve"/>
      <point x="56.400000000000006" y="9.6" type="line"/>
      <point x="94.8" y="-1.8000000000000007"/>
      <point x="158.4" y="-9.2"/>
    </contour>
  </outline>
</glyph>
<glyph name="X" format="2">
  <advance width="705.0"/>
  <unicode hex="0058"/>
  <note>
X
</note>
  <anchor x="299.5" y="0.0" name="bottom"/>
  <anchor x="439.5" y="720.0" name="top"/>
  <outline>
    <contour>
      <point x="-30.0" y="0.0" type="line"/>
      <point x="166.39999999999998" y="0.0" type="line"/>
      <point x="416.4" y="302.4" type="line"/>
      <point x="779.2" y="709.2" type="line"/>
      <point x="779.2" y="720.0" type="line"/>
      <point x="582.8" y="720.0" type="line"/>
      <point x="338.0" y="422.8" type="line"/>
      <point x="-30.0" y="10.8" type="line"/>
    </contour>
    <contour>
      <point x="450.8" y="0.0" type="line"/>
      <point x="642.0" y="0.0" type="line"/>
      <point x="642.0" y="10.8" type="line"/>
      <point x="438.8" y="424.0" type="line"/>
      <point x="295.6" y="720.0" type="line"/>
      <point x="104.4" y="720.0" type="line"/>
      <point x="104.4" y="709.2" type="line"/>
      <point x="310.4" y="287.6" type="line"/>
    </contour>
  </outline>
</glyph>
<glyph name="Y" format="2">
  <advance width="656.8"/>
  <unicode hex="0059"/>
  <note>
Y
</note>
  <anchor x="275.4" y="0.0" name="bottom"/>
  <anchor x="415.4" y="720.0" name="top"/>
  <anchor x="107.0" y="720.0" name="topleft"/>
  <outline>
    <contour>
      <point x="244.9" y="304.9" type="line"/>
      <point x="187.0" y="0.0" type="line"/>
      <point x="364.2" y="0.0" type="line"/>
      <point x="421.1" y="297.7" type="line"/>
      <point x="743.8" y="709.2" type="line"/>
      <point x="743.8" y="720.0" type="line"/>
      <point x="558.6" y="720.0" type="line"/>
      <point x="332.0" y="402.0" type="line"/>
      <point x="384.8" y="392.0" type="line"/>
      <point x="270.8" y="720.0" type="line"/>
      <point x="93.0" y="720.0" type="line"/>
      <point x="93.0" y="709.2" type="line"/>
    </contour>
  </outline>
</glyph>
<glyph name="Z" format="2">
  <advance width="640.6"/>
  <unicode hex="005A"/>
  <note>
Z
</note>
  <anchor x="267.3" y="0.0" name="bottom"/>
  <anchor x="407.3" y="720.0" name="top"/>
  <outline>
    <contour>
      <point x="135.7" y="720.0" type="line"/>
      <point x="105.7" y="566.0" type="line"/>
      <point x="485.6" y="566.0" type="line"/>
      <point x="462.0" y="620.4" type="line"/>
      <point x="41.7" y="136.8" type="line" smooth="yes"/>
      <point x="6.099999999999998" y="96.0"/>
      <point x="-11.8" y="51.0"/>
      <point x="-8.3" y="10.8" type="curve"/>
      <point x="2.5" y="0.0" type="line"/>
      <point x="553.3" y="0.0" type="line"/>
      <point x="583.3" y="154.0" type="line"/>
      <point x="186.8" y="154.0" type="line"/>
      <point x="203.2" y="92.4" type="line"/>
      <point x="631.3" y="583.2" type="line" smooth="yes"/>
      <point x="669.7" y="626.8"/>
      <point x="685.5" y="665.5"/>
      <point x="681.3" y="709.2" type="curve"/>
      <point x="673.3" y="720.0" type="line"/>
    </contour>
  </outline>
</glyph>
<glyph name="bracketleft" format="2">
  <advance width="388.8"/>
  <unicode hex="005B"/>
  <note>
bracketleft
</note>
  <outline>
    <contour>
      <point x="172.8" y="760.0" type="line"/>
      <point x="8.800000000000004" y="-88.0" type="line"/>
      <point x="300.8" y="-88.0" type="line"/>
      <point x="324.6" y="38.4" type="line"/>
      <point x="183.8" y="38.4" type="line"/>
      <point x="299.2" y="633.6" type="line"/>
      <point x="441.0" y="633.6" type="line"/>
      <point x="464.8" y="760.0" type="line"/>
    </contour>
  </outline>
</glyph>
<glyph name="backslash" format="2">
  <advance width="566.4"/>
  <unicode hex="005C"/>
  <note>
backslash
</note>
  <outline>
    <contour>
      <point x="345.0" y="0.0" type="line"/>
      <point x="489.4" y="0.0" type="line"/>
      <point x="261.4" y="720.0" type="line"/>
      <point x="117.0" y="720.0" type="line"/>
    </contour>
  </outline>
</glyph>
<glyph name="bracketright" format="2">
  <advance width="388.8"/>
  <unicode hex="005D"/>
  <note>
bracketright
</note>
  <outline>
    <contour>
      <point x="112.3" y="760.0" type="line"/>
      <point x="88.5" y="633.6" type="line"/>
      <point x="228.3" y="633.6" type="line"/>
      <point x="112.9" y="38.4" type="line"/>
      <point x="-27.9" y="38.4" type="line"/>
      <point x="-51.7" y="-88.0" type="line"/>
      <point x="240.3" y="-88.0" type="line"/>
      <point x="404.3" y="760.0" type="line"/>
    </contour>
  </outline>
</glyph>
<glyph name="asciicircum" format="2">
  <advance width="616.0"/>
  <unicode hex="005E"/>
  <note>
asciicircum
</note>
  <outline>
    <contour>
      <point x="90.6" y="386.0" type="line"/>
      <point x="215.0" y="386.0" type="line"/>
      <point x="316.4" y="561.2" type="line"/>
      <point x="419.9" y="386.0" type="line"/>
      <point x="541.5" y="386.0" type="line"/>
      <point x="541.5" y="394.0" type="line"/>
      <point x="352.8" y="723.6" type="line"/>
      <point x="280.0" y="723.6" type="line"/>
      <point x="90.6" y="394.0" type="line"/>
    </contour>
  </outline>
</glyph>
<glyph name="underscore" format="2">
  <advance width="500.0"/>
  <unicode hex="005F"/>
  <note>
underscore
</note>
  <outline>
    <contour>
      <point x="432.0" y="-12.0" type="line"/>
      <point x="-36.0" y="-12.0" type="line"/>
      <point x="-60.4" y="-134.0" type="line"/>
      <point x="407.6" y="-134.0" type="line"/>
    </contour>
  </outline>
</glyph>
<glyph name="a" format="2">
  <advance width="613.8"/>
  <unicode hex="0061"/>
  <note>
a
</note>
  <anchor x="253.9" y="0.0" name="bottom"/>
  <anchor x="507.2" y="22.4" name="ogonek"/>
  <anchor x="359.9" y="546.8" name="top"/>
  <outline>
    <contour>
      <point x="274.4" y="-12.0" type="curve" smooth="yes"/>
      <point x="358.8" y="-12.0"/>
      <point x="433.6" y="1.2000000000000002"/>
      <point x="507.2" y="22.4" type="curve"/>
      <point x="514.0" y="30.4" type="line"/>
      <point x="511.2" y="82.4"/>
      <point x="523.7" y="141.0"/>
      <point x="534.0" y="194.4" type="curve" smooth="yes"/>
      <point x="555.2" y="304.4" type="line" smooth="yes"/>
      <point x="590.5" y="487.6"/>
      <point x="502.4" y="561.6"/>
      <point x="314.8" y="561.6" type="curve" smooth="yes"/>
      <point x="253.6" y="561.6"/>
      <point x="195.6" y="553.0"/>
      <point x="145.0" y="539.2" type="curve"/>
      <point x="119.2" y="404.8" type="line"/>
      <point x="131.2" y="404.8" type="line"/>
      <point x="165.8" y="419.4"/>
      <point x="219.2" y="431.2"/>
      <point x="279.2" y="431.2" type="curve" smooth="yes"/>
      <point x="367.2" y="431.2"/>
      <point x="406.7" y="401.8"/>
      <point x="384.3" y="313.3" type="curve" smooth="yes"/>
      <point x="364.0" y="204.7" type="line" smooth="yes"/>
      <point x="355.2" y="161.1"/>
      <point x="350.1" y="103.2"/>
      <point x="370.6" y="74.6" type="curve"/>
      <point x="373.2" y="120.0" type="line"/>
      <point x="348.8" y="108.4"/>
      <point x="310.4" y="103.19999999999999"/>
      <point x="281.2" y="103.19999999999999" type="curve" smooth="yes"/>
      <point x="226.0" y="103.19999999999999"/>
      <point x="190.8" y="117.4"/>
      <point x="190.8" y="160.6" type="curve" smooth="yes"/>
      <point x="190.8" y="208.6"/>
      <point x="234.0" y="230.8"/>
      <point x="298.8" y="230.8" type="curve" smooth="yes"/>
      <point x="339.2" y="230.8"/>
      <point x="361.2" y="224.4"/>
      <point x="383.2" y="214.0" type="curve"/>
      <point x="400.0" y="319.2" type="line"/>
      <point x="380.9" y="325.2"/>
      <point x="338.8" y="334.8"/>
      <point x="292.0" y="334.8" type="curve" smooth="yes"/>
      <point x="144.8" y="334.8"/>
      <point x="28.8" y="281.6"/>
      <point x="28.8" y="149.6" type="curve" smooth="yes"/>
      <point x="28.8" y="32.8"/>
      <point x="113.2" y="-12.0"/>
    </contour>
  </outline>
</glyph>
<glyph name="b" format="2">
  <advance width="664.2"/>
  <unicode hex="0062"/>
  <note>
b
</note>
  <anchor x="279.1" y="0.0" name="bottom"/>
  <anchor x="426.4" y="760.0" name="top"/>
  <outline>
    <contour>
      <point x="256.4" y="-12.0" type="curve" smooth="yes"/>
      <point x="479.2" y="-12.0"/>
      <point x="630.4" y="103.2"/>
      <point x="630.4" y="322.8" type="curve" smooth="yes"/>
      <point x="630.4" y="477.6"/>
      <point x="540.0" y="561.6"/>
      <point x="406.8" y="561.6" type="curve" smooth="yes"/>
      <point x="362.2" y="561.6"/>
      <point x="325.0" y="553.0"/>
      <point x="292.4" y="537.6" type="curve"/>
      <point x="270.4" y="417.4" type="line"/>
      <point x="287.6" y="425.1"/>
      <point x="309.6" y="431.2"/>
      <point x="339.2" y="431.2" type="curve" smooth="yes"/>
      <point x="411.2" y="431.2"/>
      <point x="451.0" y="391.6"/>
      <point x="451.0" y="308.8" type="curve" smooth="yes"/>
      <point x="451.0" y="193.6"/>
      <point x="388.0" y="115.6"/>
      <point x="285.6" y="115.6" type="curve" smooth="yes"/>
      <point x="246.6" y="115.6"/>
      <point x="218.8" y="123.6"/>
      <point x="200.39999999999998" y="134.4" type="curve"/>
      <point x="208.39999999999998" y="87.6" type="line"/>
      <point x="219.2" y="109.5"/>
      <point x="232.8" y="147.4"/>
      <point x="240.8" y="187.2" type="curve" smooth="yes"/>
      <point x="352.4" y="760.0" type="line"/>
      <point x="166.9" y="760.0" type="line"/>
      <point x="160.1" y="749.2" type="line"/>
      <point x="161.8" y="702.0"/>
      <point x="151.8" y="639.2"/>
      <point x="143.1" y="593.6" type="curve" smooth="yes"/>
      <point x="60.6" y="168.8" type="line" smooth="yes"/>
      <point x="49.8" y="114.8"/>
      <point x="40.6" y="75.2"/>
      <point x="24.400000000000002" y="26.4" type="curve"/>
      <point x="28.400000000000002" y="18.4" type="line"/>
      <point x="80.4" y="0.0"/>
      <point x="178.8" y="-12.0"/>
    </contour>
  </outline>
</glyph>
<glyph name="c" format="2">
  <advance width="523.6"/>
  <unicode hex="0063"/>
  <note>
c
</note>
  <anchor x="260.2" y="0.0" name="bottom"/>
  <anchor x="357.2" y="546.8" name="top"/>
  <outline>
    <contour>
      <point x="42.4" y="228.4" type="curve" smooth="yes"/>
      <point x="42.4" y="64.8"/>
      <point x="146.0" y="-10.8"/>
      <point x="317.2" y="-10.8" type="curve" smooth="yes"/>
      <point x="354.0" y="-10.8"/>
      <point x="399.4" y="-4.199999999999999"/>
      <point x="434.0" y="7.600000000000001" type="curve"/>
      <point x="461.2" y="147.6" type="line"/>
      <point x="450.4" y="147.6" type="line"/>
      <point x="424.3" y="137.8"/>
      <point x="395.2" y="128.0"/>
      <point x="354.4" y="128.0" type="curve" smooth="yes"/>
      <point x="271.2" y="128.0"/>
      <point x="221.8" y="164.8"/>
      <point x="221.8" y="239.6" type="curve" smooth="yes"/>
      <point x="221.8" y="356.0"/>
      <point x="302.4" y="422.8"/>
      <point x="404.8" y="422.8" type="curve" smooth="yes"/>
      <point x="451.2" y="422.8"/>
      <point x="479.0" y="413.6"/>
      <point x="498.8" y="403.8" type="curve"/>
      <point x="509.6" y="403.8" type="line"/>
      <point x="536.8" y="543.2" type="line"/>
      <point x="507.4" y="555.0"/>
      <point x="454.0" y="561.6"/>
      <point x="408.8" y="561.6" type="curve" smooth="yes"/>
      <point x="182.0" y="561.6"/>
      <point x="42.4" y="426.8"/>
    </contour>
  </outline>
</glyph>
<glyph name="d" format="2">
  <advance width="664.2"/>
  <unicode hex="0064"/>
  <note>
d
</note>
  <anchor x="274.1" y="0.0" name="bottom"/>
  <anchor x="559.6" y="651.8" name="center"/>
  <anchor x="435.4" y="760.0" name="top"/>
  <anchor x="776.5" y="546.8" name="topright"/>
  <outline>
    <contour>
      <point x="470.0" y="415.6" type="curve"/>
      <point x="500.0" y="537.6" type="line"/>
      <point x="476.0" y="549.6"/>
      <point x="438.6" y="561.6"/>
      <point x="383.8" y="561.6" type="curve" smooth="yes"/>
      <point x="147.0" y="561.6"/>
      <point x="42.4" y="396.0"/>
      <point x="42.4" y="235.2" type="curve" smooth="yes"/>
      <point x="42.4" y="56.8"/>
      <point x="158.6" y="-12.0"/>
      <point x="317.2" y="-12.0" type="curve" smooth="yes"/>
      <point x="416.0" y="-12.0"/>
      <point x="487.2" y="5.6"/>
      <point x="551.2" y="26.8" type="curve"/>
      <point x="558.0" y="34.8" type="line"/>
      <point x="558.6" y="82.0"/>
      <point x="567.4" y="139.8"/>
      <point x="576.8" y="186.8" type="curve" smooth="yes"/>
      <point x="687.8" y="760.0" type="line"/>
      <point x="503.0" y="760.0" type="line"/>
      <point x="496.2" y="749.2" type="line"/>
      <point x="497.9" y="702.0"/>
      <point x="487.2" y="633.6"/>
      <point x="479.2" y="593.6" type="curve" smooth="yes"/>
      <point x="406.4" y="214.8" type="line" smooth="yes"/>
      <point x="397.6" y="168.0"/>
      <point x="395.6" y="122.8"/>
      <point x="398.4" y="89.2" type="curve"/>
      <point x="432.4" y="142.4" type="line"/>
      <point x="410.0" y="132.0"/>
      <point x="377.2" y="118.4"/>
      <point x="334.8" y="118.4" type="curve" smooth="yes"/>
      <point x="257.6" y="118.4"/>
      <point x="221.8" y="160.8"/>
      <point x="221.8" y="235.2" type="curve" smooth="yes"/>
      <point x="221.8" y="353.2"/>
      <point x="286.4" y="434.0"/>
      <point x="387.6" y="434.0" type="curve" smooth="yes"/>
      <point x="426.4" y="434.0"/>
      <point x="452.8" y="424.8"/>
    </contour>
  </outline>
</glyph>
<glyph name="e" format="2">
  <advance width="626.0"/>
  <unicode hex="0065"/>
  <note>
e
</note>
  <anchor x="268.1" y="0.0" name="bottom"/>
  <anchor x="498.1" y="14.4" name="ogonek"/>
  <anchor x="373.1" y="546.8" name="top"/>
  <outline>
    <contour>
      <point x="339.3" y="-10.8" type="curve" smooth="yes"/>
      <point x="400.5" y="-10.8"/>
      <point x="454.9" y="-1.5999999999999996"/>
      <point x="498.1" y="14.4" type="curve"/>
      <point x="525.3" y="151.6" type="line"/>
      <point x="514.5" y="151.6" type="line"/>
      <point x="482.8" y="135.6"/>
      <point x="423.7" y="122.4"/>
      <point x="366.9" y="122.4" type="curve" smooth="yes"/>
      <point x="274.1" y="122.4"/>
      <point x="217.89999999999998" y="156.4"/>
      <point x="217.89999999999998" y="242.4" type="curve" smooth="yes"/>
      <point x="217.89999999999998" y="256.8" type="line" smooth="yes"/>
      <point x="217.89999999999998" y="363.2"/>
      <point x="270.9" y="439.6"/>
      <point x="351.3" y="439.6" type="curve" smooth="yes"/>
      <point x="408.5" y="439.6"/>
      <point x="435.5" y="409.6"/>
      <point x="435.5" y="362.8" type="curve" smooth="yes"/>
      <point x="435.5" y="351.4"/>
      <point x="433.5" y="339.0"/>
      <point x="430.9" y="327.2" type="curve"/>
      <point x="152.9" y="327.2" type="line"/>
      <point x="152.9" y="226.0" type="line"/>
      <point x="578.1" y="226.0" type="line"/>
      <point x="589.5" y="267.6"/>
      <point x="598.1" y="314.4"/>
      <point x="598.1" y="355.6" type="curve" smooth="yes"/>
      <point x="598.1" y="478.8"/>
      <point x="526.1" y="561.6"/>
      <point x="358.1" y="561.6" type="curve" smooth="yes"/>
      <point x="175.7" y="561.6"/>
      <point x="44.1" y="425.6"/>
      <point x="44.1" y="231.2" type="curve" smooth="yes"/>
      <point x="44.1" y="59.2"/>
      <point x="168.5" y="-10.8"/>
    </contour>
  </outline>
</glyph>
<glyph name="f" format="2">
  <advance width="425.6"/>
  <unicode hex="0066"/>
  <note>
f
</note>
  <anchor x="159.8" y="0.0" name="bottom"/>
  <anchor x="307.1" y="760.0" name="top"/>
  <outline>
    <contour>
      <point x="52.0" y="0.0" type="line"/>
      <point x="228.0" y="0.0" type="line"/>
      <point x="334.0" y="546.8" type="line"/>
      <point x="345.2" y="609.6"/>
      <point x="378.4" y="640.8"/>
      <point x="441.6" y="640.8" type="curve" smooth="yes"/>
      <point x="470.8" y="640.8"/>
      <point x="491.0" y="635.4"/>
      <point x="504.0" y="628.8" type="curve"/>
      <point x="514.8" y="628.8" type="line"/>
      <point x="540.6" y="759.2" type="line"/>
      <point x="521.2" y="765.8"/>
      <point x="481.6" y="771.2"/>
      <point x="444.0" y="771.2" type="curve" smooth="yes"/>
      <point x="292.0" y="771.2"/>
      <point x="190.8" y="712.8"/>
      <point x="158.0" y="546.8" type="curve" smooth="yes"/>
    </contour>
    <contour>
      <point x="40.400000000000006" y="410.8" type="line"/>
      <point x="435.6" y="410.8" type="line"/>
      <point x="462.8" y="546.8" type="line"/>
      <point x="67.6" y="546.8" type="line"/>
    </contour>
  </outline>
</glyph>
<glyph name="g" format="2">
  <advance width="661.4"/>
  <unicode hex="0067"/>
  <note>
g
</note>
  <anchor x="230.7" y="-240.0" name="bottom"/>
  <anchor x="383.7" y="546.8" name="top"/>
  <outline>
    <contour>
      <point x="172.4" y="-240.0" type="curve" smooth="yes"/>
      <point x="381.2" y="-240.0"/>
      <point x="506.2" y="-152.4"/>
      <point x="543.2" y="36.0" type="curve" smooth="yes"/>
      <point x="608.7" y="370.8" type="line" smooth="yes"/>
      <point x="616.7" y="410.8"/>
      <point x="630.8" y="471.6"/>
      <point x="645.6" y="506.4" type="curve"/>
      <point x="638.8" y="517.2" type="line"/>
      <point x="570.9" y="541.2"/>
      <point x="493.8" y="556.0"/>
      <point x="403.6" y="556.0" type="curve" smooth="yes"/>
      <point x="179.6" y="556.0"/>
      <point x="40.8" y="433.6"/>
      <point x="40.8" y="232.0" type="curve" smooth="yes"/>
      <point x="40.8" y="78.8"/>
      <point x="137.6" y="1.2000000000000002"/>
      <point x="281.6" y="1.2000000000000002" type="curve" smooth="yes"/>
      <point x="316.0" y="1.2000000000000002"/>
      <point x="362.0" y="9.2"/>
      <point x="379.2" y="20.0" type="curve"/>
      <point x="403.6" y="147.6" type="line"/>
      <point x="389.2" y="139.6"/>
      <point x="366.8" y="131.6"/>
      <point x="332.8" y="131.6" type="curve" smooth="yes"/>
      <point x="253.4" y="131.6"/>
      <point x="220.2" y="171.6"/>
      <point x="220.2" y="243.2" type="curve" smooth="yes"/>
      <point x="220.2" y="348.8"/>
      <point x="279.2" y="428.4"/>
      <point x="381.6" y="428.4" type="curve" smooth="yes"/>
      <point x="418.0" y="428.4"/>
      <point x="434.8" y="423.9"/>
      <point x="460.8" y="411.6" type="curve"/>
      <point x="454.8" y="441.8" type="line"/>
      <point x="443.2" y="420.2"/>
      <point x="436.9" y="391.2"/>
      <point x="429.2" y="352.4" type="curve" smooth="yes"/>
      <point x="368.4" y="44.8" type="line"/>
      <point x="354.0" y="-58.400000000000006"/>
      <point x="297.2" y="-101.2"/>
      <point x="183.2" y="-101.2" type="curve" smooth="yes"/>
      <point x="136.4" y="-101.2"/>
      <point x="81.6" y="-90.4"/>
      <point x="47.2" y="-70.4" type="curve"/>
      <point x="36.4" y="-70.4" type="line"/>
      <point x="9.2" y="-210.4" type="line"/>
      <point x="46.4" y="-229.2"/>
      <point x="118.8" y="-240.0"/>
    </contour>
  </outline>
</glyph>
<glyph name="h" format="2">
  <advance width="676.4"/>
  <unicode hex="0068"/>
  <note>
h
</note>
  <anchor x="291.0" y="0.0" name="bottom"/>
  <anchor x="260.7" y="651.8" name="center"/>
  <anchor x="258.7" y="760.0" name="top"/>
  <outline>
    <contour>
      <point x="203.2" y="0.0" type="line"/>
      <point x="351.2" y="760.0" type="line"/>
      <point x="165.7" y="760.0" type="line"/>
      <point x="158.9" y="749.2" type="line"/>
      <point x="160.6" y="702.0"/>
      <point x="150.6" y="639.2"/>
      <point x="141.9" y="593.6" type="curve" smooth="yes"/>
      <point x="27.200000000000003" y="0.0" type="line"/>
    </contour>
    <contour>
      <point x="267.2" y="537.6" type="curve"/>
      <point x="251.6" y="404.8" type="line"/>
      <point x="283.8" y="415.8"/>
      <point x="321.2" y="422.8"/>
      <point x="349.6" y="422.8" type="curve" smooth="yes"/>
      <point x="414.4" y="422.8"/>
      <point x="440.6" y="393.2"/>
      <point x="440.6" y="343.4" type="curve" smooth="yes"/>
      <point x="440.6" y="332.3"/>
      <point x="439.3" y="315.8"/>
      <point x="436.0" y="298.0" type="curve" smooth="yes"/>
      <point x="378.8" y="0.0" type="line"/>
      <point x="554.8" y="0.0" type="line"/>
      <point x="612.0" y="298.0" type="line" smooth="yes"/>
      <point x="617.7" y="327.1"/>
      <point x="620.0" y="352.8"/>
      <point x="620.0" y="375.6" type="curve" smooth="yes"/>
      <point x="620.0" y="484.0"/>
      <point x="548.8" y="561.6"/>
      <point x="403.2" y="561.6" type="curve" smooth="yes"/>
      <point x="352.4" y="561.6"/>
      <point x="308.8" y="552.4"/>
    </contour>
  </outline>
</glyph>
<glyph name="k" format="2">
  <advance width="638.0"/>
  <unicode hex="006B"/>
  <note>
k
</note>
  <anchor x="266.0" y="0.0" name="bottom"/>
  <anchor x="413.3" y="760.0" name="top"/>
  <outline>
    <contour>
      <point x="492.2" y="546.8" type="line"/>
      <point x="223.6" y="286.8" type="line"/>
      <point x="379.8" y="0.0" type="line"/>
      <point x="571.8" y="0.0" type="line"/>
      <point x="571.8" y="12.0" type="line"/>
      <point x="551.2" y="38.8"/>
      <point x="533.3" y="67.8"/>
      <point x="514.4" y="99.6" type="curve" smooth="yes"/>
      <point x="370.4" y="350.0" type="line"/>
      <point x="355.2" y="232.4" type="line"/>
      <point x="576.0" y="440.4" type="line" smooth="yes"/>
      <point x="608.6" y="470.5"/>
      <point x="661.1" y="516.0"/>
      <point x="687.6" y="534.8" type="curve"/>
      <point x="687.6" y="546.8" type="line"/>
    </contour>
    <contour>
      <point x="200.39999999999998" y="0.0" type="line"/>
      <point x="348.4" y="760.0" type="line"/>
      <point x="162.9" y="760.0" type="line"/>
      <point x="156.1" y="749.2" type="line"/>
      <point x="157.8" y="702.0"/>
      <point x="147.8" y="639.2"/>
      <point x="139.1" y="593.6" type="curve" smooth="yes"/>
      <point x="24.400000000000002" y="0.0" type="line"/>
    </contour>
  </outline>
</glyph>
<glyph name="l" format="2">
  <advance width="328.8"/>
  <unicode hex="006C"/>
  <note>
l
</note>
  <anchor x="106.4" y="0.0" name="bottom"/>
  <anchor x="196.8" y="383.0" name="center"/>
  <anchor x="412.0" y="357.2" name="periodCAT"/>
  <anchor x="267.7" y="760.0" name="top"/>
  <anchor x="446.0" y="546.8" name="topright"/>
  <outline>
    <contour>
      <point x="27.200000000000003" y="0.0" type="line"/>
      <point x="203.2" y="0.0" type="line"/>
      <point x="351.2" y="760.0" type="line"/>
      <point x="165.7" y="760.0" type="line"/>
      <point x="158.9" y="749.2" type="line"/>
      <point x="160.6" y="702.0"/>
      <point x="150.6" y="639.2"/>
      <point x="141.9" y="593.6" type="curve" smooth="yes"/>
    </contour>
  </outline>
</glyph>
<glyph name="m" format="2">
  <advance width="1009.2"/>
  <unicode hex="006D"/>
  <note>
m
</note>
  <anchor x="451.6" y="0.0" name="bottom"/>
  <anchor x="557.6" y="546.8" name="top"/>
  <outline>
    <contour>
      <point x="27.200000000000003" y="0.0" type="line"/>
      <point x="203.2" y="0.0" type="line"/>
      <point x="268.0" y="336.0" type="line" smooth="yes"/>
      <point x="275.8" y="379.3"/>
      <point x="281.3" y="424.3"/>
      <point x="273.2" y="453.6" type="curve"/>
      <point x="247.6" y="401.6" type="line"/>
      <point x="278.6" y="414.2"/>
      <point x="307.6" y="422.8"/>
      <point x="343.2" y="422.8" type="curve" smooth="yes"/>
      <point x="410.4" y="422.8"/>
      <point x="433.9" y="393.2"/>
      <point x="433.9" y="343.4" type="curve" smooth="yes"/>
      <point x="433.9" y="332.0"/>
      <point x="432.6" y="315.8"/>
      <point x="429.3" y="298.0" type="curve" smooth="yes"/>
      <point x="372.1" y="0.0" type="line"/>
      <point x="548.1" y="0.0" type="line"/>
      <point x="605.3" y="298.0" type="line" smooth="yes"/>
      <point x="611.0" y="327.1"/>
      <point x="613.3" y="352.8"/>
      <point x="613.3" y="375.6" type="curve" smooth="yes"/>
      <point x="613.3" y="515.2"/>
      <point x="516.4" y="561.6"/>
      <point x="359.2" y="561.6" type="curve" smooth="yes"/>
      <point x="279.2" y="561.6"/>
      <point x="183.2" y="542.8"/>
      <point x="123.2" y="521.6" type="curve"/>
      <point x="116.4" y="513.6" type="line"/>
      <point x="115.8" y="466.4"/>
      <point x="107.0" y="411.7"/>
      <point x="97.6" y="364.0" type="curve" smooth="yes"/>
    </contour>
    <contour>
      <point x="708.8" y="0.0" type="line"/>
      <point x="884.8" y="0.0" type="line"/>
      <point x="942.0" y="298.0" type="line" smooth="yes"/>
      <point x="947.7" y="327.1"/>
      <point x="950.0" y="352.8"/>
      <point x="950.0" y="375.6" type="curve" smooth="yes"/>
      <point x="950.0" y="512.0"/>
      <point x="858.8" y="561.6"/>
      <point x="723.3" y="561.6" type="curve" smooth="yes"/>
      <point x="651.2" y="561.6"/>
      <point x="582.0" y="541.6"/>
      <point x="523.2" y="517.6" type="curve"/>
      <point x="592.4" y="402.0" type="line"/>
      <point x="621.2" y="416.4"/>
      <point x="650.0" y="422.8"/>
      <point x="679.6" y="422.8" type="curve" smooth="yes"/>
      <point x="746.8" y="422.8"/>
      <point x="770.6" y="393.2"/>
      <point x="770.6" y="343.4" type="curve" smooth="yes"/>
      <point x="770.6" y="332.0"/>
      <point x="769.3" y="315.8"/>
      <point x="766.0" y="298.0" type="curve" smooth="yes"/>
    </contour>
  </outline>
</glyph>
<glyph name="n" format="2">
  <advance width="676.4"/>
  <unicode hex="006E"/>
  <note>
n
</note>
  <anchor x="285.2" y="0.0" name="bottom"/>
  <anchor x="391.2" y="546.8" name="top"/>
  <outline>
    <contour>
      <point x="27.200000000000003" y="0.0" type="line"/>
      <point x="203.2" y="0.0" type="line"/>
      <point x="268.0" y="336.0" type="line" smooth="yes"/>
      <point x="275.8" y="379.3"/>
      <point x="281.3" y="421.5"/>
      <point x="273.2" y="450.8" type="curve"/>
      <point x="247.6" y="398.8" type="line"/>
      <point x="269.6" y="410.8"/>
      <point x="307.6" y="422.8"/>
      <point x="347.2" y="422.8" type="curve" smooth="yes"/>
      <point x="414.4" y="422.8"/>
      <point x="440.6" y="393.2"/>
      <point x="440.6" y="343.4" type="curve" smooth="yes"/>
      <point x="440.6" y="332.0"/>
      <point x="439.3" y="315.8"/>
      <point x="436.0" y="298.0" type="curve" smooth="yes"/>
      <point x="378.8" y="0.0" type="line"/>
      <point x="554.8" y="0.0" type="line"/>
      <point x="612.0" y="298.0" type="line" smooth="yes"/>
      <point x="617.7" y="327.1"/>
      <point x="620.0" y="352.8"/>
      <point x="620.0" y="375.6" type="curve" smooth="yes"/>
      <point x="620.0" y="512.0"/>
      <point x="526.4" y="561.6"/>
      <point x="363.2" y="561.6" type="curve" smooth="yes"/>
      <point x="283.2" y="561.6"/>
      <point x="183.2" y="542.8"/>
      <point x="123.2" y="521.6" type="curve"/>
      <point x="116.4" y="513.6" type="line"/>
      <point x="115.8" y="466.4"/>
      <point x="107.0" y="411.7"/>
      <point x="97.6" y="364.0" type="curve" smooth="yes"/>
    </contour>
  </outline>
</glyph>
<glyph name="o" format="2">
  <advance width="651.6"/>
  <unicode hex="006F"/>
  <note>
o
</note>
  <anchor x="272.8" y="0.0" name="bottom"/>
  <anchor x="325.8" y="273.4" name="center"/>
  <anchor x="385.1" y="0.0" name="ogonek"/>
  <anchor x="381.6" y="546.8" name="top"/>
  <anchor x="464.6" y="546.8" name="topright"/>
  <outline>
    <contour>
      <point x="42.4" y="219.2" type="curve" smooth="yes"/>
      <point x="42.4" y="70.4"/>
      <point x="133.6" y="-10.8"/>
      <point x="294.8" y="-10.8" type="curve" smooth="yes"/>
      <point x="511.6" y="-10.8"/>
      <point x="617.2" y="154.0"/>
      <point x="617.2" y="331.6" type="curve" smooth="yes"/>
      <point x="617.2" y="480.4"/>
      <point x="526.0" y="561.6"/>
      <point x="364.8" y="561.6" type="curve" smooth="yes"/>
      <point x="148.0" y="561.6"/>
      <point x="42.4" y="396.8"/>
    </contour>
    <contour>
      <point x="221.8" y="210.8" type="curve" smooth="yes"/>
      <point x="221.8" y="298.4"/>
      <point x="258.8" y="434.0"/>
      <point x="356.8" y="434.0" type="curve" smooth="yes"/>
      <point x="408.8" y="434.0"/>
      <point x="437.8" y="401.2"/>
      <point x="437.8" y="340.0" type="curve" smooth="yes"/>
      <point x="437.8" y="252.4"/>
      <point x="400.8" y="116.8"/>
      <point x="302.8" y="116.8" type="curve" smooth="yes"/>
      <point x="250.8" y="116.8"/>
      <point x="221.8" y="149.6"/>
    </contour>
  </outline>
</glyph>
<glyph name="p" format="2">
  <advance width="667.0"/>
  <unicode hex="0070"/>
  <note>
p
</note>
  <anchor x="280.5" y="0.0" name="bottom"/>
  <anchor x="386.5" y="546.8" name="top"/>
  <outline>
    <contour>
      <point x="196.0" y="145.2" type="curve"/>
      <point x="177.2" y="14.8" type="line"/>
      <point x="195.6" y="0.0"/>
      <point x="236.4" y="-12.0"/>
      <point x="291.2" y="-12.0" type="curve" smooth="yes"/>
      <point x="528.0" y="-12.0"/>
      <point x="632.6" y="153.6"/>
      <point x="632.6" y="314.4" type="curve" smooth="yes"/>
      <point x="632.6" y="492.8"/>
      <point x="516.4" y="561.6"/>
      <point x="360.8" y="561.6" type="curve" smooth="yes"/>
      <point x="260.8" y="561.6"/>
      <point x="186.0" y="542.8"/>
      <point x="123.8" y="522.8" type="curve"/>
      <point x="117.0" y="514.8" type="line"/>
      <point x="116.4" y="467.6"/>
      <point x="107.6" y="413.6"/>
      <point x="98.2" y="365.2" type="curve" smooth="yes"/>
      <point x="-16.799999999999997" y="-232.0" type="line"/>
      <point x="159.2" y="-232.0" type="line"/>
      <point x="268.6" y="337.2" type="line" smooth="yes"/>
      <point x="277.4" y="383.7"/>
      <point x="280.5" y="429.1"/>
      <point x="273.2" y="454.8" type="curve"/>
      <point x="243.2" y="401.6" type="line"/>
      <point x="264.6" y="417.0"/>
      <point x="302.4" y="431.2"/>
      <point x="342.0" y="431.2" type="curve" smooth="yes"/>
      <point x="419.6" y="431.2"/>
      <point x="453.2" y="386.0"/>
      <point x="453.2" y="314.4" type="curve" smooth="yes"/>
      <point x="453.2" y="196.4"/>
      <point x="389.2" y="115.6"/>
      <point x="286.8" y="115.6" type="curve" smooth="yes"/>
      <point x="234.0" y="115.6"/>
      <point x="218.8" y="127.6"/>
    </contour>
  </outline>
</glyph>
<glyph name="q" format="2">
  <advance width="664.2"/>
  <unicode hex="0071"/>
  <note>
q
</note>
  <anchor x="279.1" y="0.0" name="bottom"/>
  <anchor x="385.1" y="546.8" name="top"/>
  <outline>
    <contour>
      <point x="401.2" y="16.4" type="curve"/>
      <point x="418.4" y="139.6" type="line"/>
      <point x="394.8" y="126.4"/>
      <point x="368.8" y="118.4"/>
      <point x="334.8" y="118.4" type="curve" smooth="yes"/>
      <point x="256.0" y="118.4"/>
      <point x="221.8" y="163.6"/>
      <point x="221.8" y="238.0" type="curve" smooth="yes"/>
      <point x="221.8" y="353.2"/>
      <point x="282.4" y="434.0"/>
      <point x="386.0" y="434.0" type="curve" smooth="yes"/>
      <point x="428.0" y="434.0"/>
      <point x="443.2" y="428.8"/>
      <point x="484.8" y="408.8" type="curve"/>
      <point x="470.0" y="457.8" type="line"/>
      <point x="449.6" y="431.0"/>
      <point x="443.6" y="401.0"/>
      <point x="434.8" y="356.8" type="curve" smooth="yes"/>
      <point x="319.8" y="-232.0" type="line"/>
      <point x="495.8" y="-232.0" type="line"/>
      <point x="615.6" y="381.6" type="line" smooth="yes"/>
      <point x="623.6" y="421.6"/>
      <point x="636.4" y="477.2"/>
      <point x="651.2" y="512.0" type="curve"/>
      <point x="644.4" y="522.8" type="line"/>
      <point x="576.5" y="546.8"/>
      <point x="498.2" y="561.6"/>
      <point x="408.0" y="561.6" type="curve" smooth="yes"/>
      <point x="182.8" y="561.6"/>
      <point x="42.4" y="438.0"/>
      <point x="42.4" y="226.8" type="curve" smooth="yes"/>
      <point x="42.4" y="65.2"/>
      <point x="139.6" y="-12.0"/>
      <point x="292.0" y="-12.0" type="curve" smooth="yes"/>
      <point x="340.4" y="-12.0"/>
      <point x="372.0" y="-1.2000000000000002"/>
    </contour>
  </outline>
</glyph>
<glyph name="r" format="2">
  <advance width="426.0"/>
  <unicode hex="0072"/>
  <note>
r
</note>
  <anchor x="110.4" y="0.0" name="bottom"/>
  <anchor x="266.0" y="546.8" name="top"/>
  <outline>
    <contour>
      <point x="94.8" y="364.0" type="curve" smooth="yes"/>
      <point x="24.400000000000002" y="0.0" type="line"/>
      <point x="200.39999999999998" y="0.0" type="line"/>
      <point x="265.2" y="336.0" type="line" smooth="yes"/>
      <point x="273.7" y="381.1"/>
      <point x="275.7" y="424.0"/>
      <point x="273.2" y="456.4" type="curve"/>
      <point x="242.3" y="401.9" type="line"/>
      <point x="268.2" y="416.9"/>
      <point x="303.6" y="423.2"/>
      <point x="353.2" y="423.2" type="curve" smooth="yes"/>
      <point x="378.8" y="423.2"/>
      <point x="402.8" y="419.8"/>
      <point x="424.4" y="413.6" type="curve"/>
      <point x="435.2" y="413.6" type="line"/>
      <point x="462.4" y="552.4" type="line"/>
      <point x="423.9" y="557.9"/>
      <point x="384.8" y="559.2"/>
      <point x="364.0" y="559.2" type="curve" smooth="yes"/>
      <point x="258.8" y="559.2"/>
      <point x="178.9" y="541.6"/>
      <point x="120.4" y="521.6" type="curve"/>
      <point x="113.6" y="513.6" type="line"/>
      <point x="113.0" y="466.4"/>
      <point x="104.2" y="411.7"/>
    </contour>
  </outline>
</glyph>
<glyph name="s" format="2">
  <advance width="547.6"/>
  <unicode hex="0073"/>
  <note>
s
</note>
  <anchor x="220.8" y="0.0" name="bottom"/>
  <anchor x="326.8" y="546.8" name="top"/>
  <outline>
    <contour>
      <point x="33.6" y="160.6" type="line"/>
      <point x="6.4" y="20.0" type="line"/>
      <point x="62.8" y="0.0"/>
      <point x="136.0" y="-8.0"/>
      <point x="208.4" y="-8.0" type="curve" smooth="yes"/>
      <point x="391.6" y="-8.0"/>
      <point x="496.6" y="55.2"/>
      <point x="496.6" y="172.8" type="curve" smooth="yes"/>
      <point x="496.6" y="265.2"/>
      <point x="428.6" y="303.8"/>
      <point x="349.2" y="322.4" type="curve" smooth="yes"/>
      <point x="314.4" y="330.4" type="line" smooth="yes"/>
      <point x="268.0" y="341.2"/>
      <point x="238.39999999999998" y="348.8"/>
      <point x="238.39999999999998" y="378.4" type="curve" smooth="yes"/>
      <point x="238.39999999999998" y="413.2"/>
      <point x="277.2" y="427.2"/>
      <point x="341.2" y="427.2" type="curve" smooth="yes"/>
      <point x="390.0" y="427.2"/>
      <point x="439.2" y="419.3"/>
      <point x="490.0" y="397.0" type="curve"/>
      <point x="500.8" y="397.0" type="line"/>
      <point x="528.0" y="536.4" type="line"/>
      <point x="476.8" y="552.4"/>
      <point x="416.0" y="557.6"/>
      <point x="352.0" y="557.6" type="curve" smooth="yes"/>
      <point x="152.0" y="557.6"/>
      <point x="64.4" y="474.8"/>
      <point x="64.4" y="367.6" type="curve" smooth="yes"/>
      <point x="64.4" y="276.4"/>
      <point x="126.0" y="241.8"/>
      <point x="211.6" y="222.0" type="curve" smooth="yes"/>
      <point x="246.4" y="214.0" type="line" smooth="yes"/>
      <point x="292.5" y="203.5"/>
      <point x="321.2" y="195.8"/>
      <point x="321.2" y="166.0" type="curve" smooth="yes"/>
      <point x="321.2" y="130.4"/>
      <point x="276.4" y="122.4"/>
      <point x="212.4" y="122.4" type="curve" smooth="yes"/>
      <point x="151.2" y="122.4"/>
      <point x="88.4" y="137.2"/>
      <point x="44.4" y="160.6" type="curve"/>
    </contour>
  </outline>
</glyph>
<glyph name="t" format="2">
  <advance width="471.2"/>
  <unicode hex="0074"/>
  <note>
t
</note>
  <anchor x="214.7" y="0.0" name="bottom"/>
  <anchor x="229.6" y="275.8" name="center"/>
  <anchor x="271.6" y="683.6" name="top"/>
  <anchor x="479.4" y="601.6" name="topright"/>
  <outline>
    <contour>
      <point x="292.8" y="-8.0" type="curve" smooth="yes"/>
      <point x="337.2" y="-8.0"/>
      <point x="369.8" y="-2.0"/>
      <point x="401.6" y="8.0" type="curve"/>
      <point x="427.6" y="146.8" type="line"/>
      <point x="416.8" y="146.8" type="line"/>
      <point x="396.2" y="136.8"/>
      <point x="371.6" y="130.8"/>
      <point x="346.4" y="130.8" type="curve" smooth="yes"/>
      <point x="290.8" y="130.8"/>
      <point x="267.5" y="156.0"/>
      <point x="267.5" y="194.4" type="curve" smooth="yes"/>
      <point x="267.5" y="201.7"/>
      <point x="268.5" y="214.6"/>
      <point x="270.8" y="224.8" type="curve"/>
      <point x="359.6" y="683.6" type="line"/>
      <point x="183.6" y="683.6" type="line"/>
      <point x="96.2" y="227.6" type="line" smooth="yes"/>
      <point x="91.8" y="204.9"/>
      <point x="89.4" y="183.0"/>
      <point x="89.4" y="164.0" type="curve" smooth="yes"/>
      <point x="89.4" y="44.0"/>
      <point x="167.6" y="-8.0"/>
    </contour>
    <contour>
      <point x="41.6" y="410.8" type="line"/>
      <point x="452.0" y="410.8" type="line"/>
      <point x="479.2" y="546.8" type="line"/>
      <point x="68.8" y="546.8" type="line"/>
    </contour>
  </outline>
</glyph>
<glyph name="u" format="2">
  <advance width="674.0"/>
  <unicode hex="0075"/>
  <note>
u
</note>
  <anchor x="284.0" y="0.0" name="bottom"/>
  <anchor x="558.8" y="28.0" name="ogonek"/>
  <anchor x="390.0" y="546.8" name="top"/>
  <anchor x="559.8" y="546.8" name="topright"/>
  <outline>
    <contour>
      <point x="62.0" y="174.0" type="curve" smooth="yes"/>
      <point x="62.0" y="37.6"/>
      <point x="155.6" y="-12.0"/>
      <point x="318.8" y="-12.0" type="curve" smooth="yes"/>
      <point x="398.8" y="-12.0"/>
      <point x="498.8" y="6.8"/>
      <point x="558.8" y="28.0" type="curve"/>
      <point x="565.6" y="36.0" type="line"/>
      <point x="566.2" y="83.2"/>
      <point x="575.0" y="137.9"/>
      <point x="584.4" y="185.6" type="curve" smooth="yes"/>
      <point x="654.8" y="546.8" type="line"/>
      <point x="470.0" y="546.8" type="line"/>
      <point x="463.2" y="536.0" type="line"/>
      <point x="464.9" y="488.8"/>
      <point x="455.5" y="428.4"/>
      <point x="446.8" y="382.8" type="curve" smooth="yes"/>
      <point x="414.0" y="213.6" type="line" smooth="yes"/>
      <point x="404.9" y="169.6"/>
      <point x="403.2" y="127.8"/>
      <point x="406.0" y="96.0" type="curve"/>
      <point x="445.6" y="150.8" type="line"/>
      <point x="414.0" y="137.6"/>
      <point x="373.2" y="126.8"/>
      <point x="334.8" y="126.8" type="curve" smooth="yes"/>
      <point x="267.6" y="126.8"/>
      <point x="241.39999999999998" y="156.39999999999998"/>
      <point x="241.39999999999998" y="206.2" type="curve" smooth="yes"/>
      <point x="241.39999999999998" y="217.6"/>
      <point x="242.7" y="233.8"/>
      <point x="246.0" y="251.6" type="curve" smooth="yes"/>
      <point x="303.2" y="546.8" type="line"/>
      <point x="118.4" y="546.8" type="line"/>
      <point x="111.6" y="536.0" type="line"/>
      <point x="113.3" y="488.8"/>
      <point x="103.9" y="428.4"/>
      <point x="95.2" y="382.8" type="curve" smooth="yes"/>
      <point x="70.0" y="251.6" type="line" smooth="yes"/>
      <point x="64.3" y="222.5"/>
      <point x="62.0" y="196.8"/>
    </contour>
  </outline>
</glyph>
<glyph name="v" format="2">
  <advance width="608.8"/>
  <unicode hex="0076"/>
  <note>
v
</note>
  <anchor x="251.4" y="0.0" name="bottom"/>
  <anchor x="357.4" y="546.8" name="top"/>
  <outline>
    <contour>
      <point x="62.4" y="534.8" type="line"/>
      <point x="140.4" y="0.0" type="line"/>
      <point x="361.2" y="0.0" type="line"/>
      <point x="658.4" y="534.8" type="line"/>
      <point x="658.4" y="546.8" type="line"/>
      <point x="474.0" y="546.8" type="line"/>
      <point x="256.4" y="103.6" type="line"/>
      <point x="296.0" y="81.6" type="line"/>
      <point x="245.2" y="546.8" type="line"/>
      <point x="62.4" y="546.8" type="line"/>
    </contour>
  </outline>
</glyph>
<glyph name="w" format="2">
  <advance width="906.4"/>
  <unicode hex="0077"/>
  <note>
w
</note>
  <anchor x="400.2" y="0.0" name="bottom"/>
  <anchor x="506.2" y="546.8" name="top"/>
  <outline>
    <contour>
      <point x="62.4" y="534.8" type="line"/>
      <point x="112.0" y="0.0" type="line"/>
      <point x="306.8" y="0.0" type="line"/>
      <point x="497.6" y="376.4" type="line"/>
      <point x="455.6" y="376.4" type="line"/>
      <point x="495.2" y="0.0" type="line"/>
      <point x="687.2" y="0.0" type="line"/>
      <point x="953.2" y="534.8" type="line"/>
      <point x="953.2" y="546.8" type="line"/>
      <point x="768.8" y="546.8" type="line"/>
      <point x="582.0" y="112.4" type="line"/>
      <point x="617.6" y="105.6" type="line"/>
      <point x="572.4" y="546.8" type="line"/>
      <point x="445.6" y="546.8" type="line"/>
      <point x="230.8" y="120.8" type="line"/>
      <point x="270.4" y="112.0" type="line"/>
      <point x="245.2" y="546.8" type="line"/>
      <point x="62.4" y="546.8" type="line"/>
    </contour>
  </outline>
</glyph>
<glyph name="x" format="2">
  <advance width="621.6"/>
  <unicode hex="0078"/>
  <note>
x
</note>
  <anchor x="257.8" y="0.0" name="bottom"/>
  <anchor x="363.8" y="546.8" name="top"/>
  <outline>
    <contour>
      <point x="-25.6" y="0.0" type="line"/>
      <point x="160.0" y="0.0" type="line"/>
      <point x="383.2" y="244.4" type="line"/>
      <point x="664.8" y="536.0" type="line"/>
      <point x="664.8" y="546.8" type="line"/>
      <point x="479.2" y="546.8" type="line"/>
      <point x="282.8" y="329.2" type="line"/>
      <point x="-25.6" y="10.8" type="line"/>
    </contour>
    <contour>
      <point x="365.6" y="0.0" type="line"/>
      <point x="555.6" y="0.0" type="line"/>
      <point x="555.6" y="10.8" type="line"/>
      <point x="377.2" y="316.8" type="line"/>
      <point x="257.6" y="546.8" type="line"/>
      <point x="67.6" y="546.8" type="line"/>
      <point x="67.6" y="536.0" type="line"/>
      <point x="247.2" y="226.4" type="line"/>
    </contour>
  </outline>
</glyph>
<glyph name="y" format="2">
  <advance width="597.6"/>
  <unicode hex="0079"/>
  <note>
y
</note>
  <anchor x="424.0" y="0.0" name="bottom"/>
  <anchor x="351.8" y="546.8" name="top"/>
  <outline>
    <contour>
      <point x="27.0" y="-232.0" type="line"/>
      <point x="208.6" y="-232.0" type="line"/>
      <point x="649.4" y="534.8" type="line"/>
      <point x="649.4" y="546.8" type="line"/>
      <point x="470.6" y="546.8" type="line"/>
      <point x="244.0" y="114.8" type="line"/>
      <point x="27.0" y="-220.0" type="line"/>
    </contour>
    <contour>
      <point x="159.2" y="-67.19999999999999" type="line"/>
      <point x="290.4" y="157.2" type="line"/>
      <point x="241.8" y="546.8" type="line"/>
      <point x="59.0" y="546.8" type="line"/>
      <point x="59.0" y="534.8" type="line"/>
    </contour>
  </outline>
</glyph>
<glyph name="z" format="2">
  <advance width="570.4"/>
  <unicode hex="007A"/>
  <note>
z
</note>
  <anchor x="232.2" y="0.0" name="bottom"/>
  <anchor x="338.2" y="546.8" name="top"/>
  <outline>
    <contour>
      <point x="78.0" y="410.2" type="line"/>
      <point x="400.0" y="410.2" type="line"/>
      <point x="343.6" y="447.6" type="line"/>
      <point x="338.8" y="417.2"/>
      <point x="309.4" y="387.9"/>
      <point x="280.0" y="360.8" type="curve"/>
      <point x="81.6" y="176.8" type="line" smooth="yes"/>
      <point x="32.900000000000006" y="131.8"/>
      <point x="-4.0" y="86.0"/>
      <point x="-1.2000000000000002" y="10.8" type="curve"/>
      <point x="6.8" y="0.0" type="line"/>
      <point x="488.0" y="0.0" type="line"/>
      <point x="514.6" y="135.4" type="line"/>
      <point x="183.6" y="135.4" type="line"/>
      <point x="232.79999999999998" y="104.8" type="line"/>
      <point x="235.2" y="127.19999999999999"/>
      <point x="267.6" y="159.5"/>
      <point x="296.4" y="186.0" type="curve" smooth="yes"/>
      <point x="494.8" y="370.0" type="line" smooth="yes"/>
      <point x="543.5" y="415.0"/>
      <point x="580.4" y="460.8"/>
      <point x="577.6" y="536.0" type="curve"/>
      <point x="569.6" y="546.8" type="line"/>
      <point x="105.2" y="546.8" type="line"/>
    </contour>
  </outline>
</glyph>
<glyph name="braceleft" format="2">
  <advance width="453.2"/>
  <unicode hex="007B"/>
  <note>
braceleft
</note>
  <outline>
    <contour>
      <point x="122.8" y="194.8" type="curve" smooth="yes"/>
      <point x="102.0" y="90.8" type="line" smooth="yes"/>
      <point x="79.1" y="-27.1"/>
      <point x="136.7" y="-88.0"/>
      <point x="261.2" y="-88.0" type="curve" smooth="yes"/>
      <point x="364.0" y="-88.0" type="line"/>
      <point x="389.2" y="35.599999999999994" type="line"/>
      <point x="315.2" y="35.599999999999994" type="line" smooth="yes"/>
      <point x="275.2" y="35.599999999999994"/>
      <point x="255.7" y="60.5"/>
      <point x="264.4" y="102.4" type="curve" smooth="yes"/>
      <point x="285.2" y="207.6" type="line" smooth="yes"/>
      <point x="297.8" y="274.0"/>
      <point x="270.0" y="326.0"/>
      <point x="203.2" y="336.0" type="curve"/>
      <point x="270.5" y="343.9"/>
      <point x="322.0" y="392.4"/>
      <point x="336.0" y="464.4" type="curve" smooth="yes"/>
      <point x="356.2" y="567.2" type="line" smooth="yes"/>
      <point x="366.2" y="616.4"/>
      <point x="388.1" y="636.4"/>
      <point x="431.6" y="636.4" type="curve" smooth="yes"/>
      <point x="504.8" y="636.4" type="line"/>
      <point x="530.6" y="760.0" type="line"/>
      <point x="422.8" y="760.0" type="line" smooth="yes"/>
      <point x="302.5" y="760.0"/>
      <point x="225.2" y="712.4"/>
      <point x="198.8" y="581.2" type="curve" smooth="yes"/>
      <point x="178.0" y="477.2" type="line" smooth="yes"/>
      <point x="170.0" y="437.2"/>
      <point x="146.0" y="405.2"/>
      <point x="98.0" y="405.2" type="curve" smooth="yes"/>
      <point x="50.3" y="405.2" type="line"/>
      <point x="22.8" y="266.8" type="line"/>
      <point x="70.8" y="266.8" type="line" smooth="yes"/>
      <point x="118.6" y="266.8"/>
      <point x="129.4" y="234.8"/>
    </contour>
  </outline>
</glyph>
<glyph name="bar" format="2">
  <advance width="308.0"/>
  <unicode hex="007C"/>
  <note>
bar
</note>
  <outline>
    <contour>
      <point x="175.6" y="760.0" type="line"/>
      <point x="-21.599999999999994" y="-249.2" type="line"/>
      <point x="138.0" y="-249.2" type="line"/>
      <point x="335.2" y="760.0" type="line"/>
    </contour>
  </outline>
</glyph>
<glyph name="braceright" format="2">
  <advance width="452.5"/>
  <unicode hex="007D"/>
  <note>
braceright
</note>
  <outline>
    <contour>
      <point x="-53.1" y="-88.0" type="line"/>
      <point x="54.7" y="-88.0" type="line" smooth="yes"/>
      <point x="175.0" y="-88.0"/>
      <point x="252.3" y="-40.4"/>
      <point x="278.7" y="90.8" type="curve" smooth="yes"/>
      <point x="299.5" y="194.8" type="line" smooth="yes"/>
      <point x="307.5" y="234.8"/>
      <point x="331.5" y="266.8"/>
      <point x="379.5" y="266.8" type="curve" smooth="yes"/>
      <point x="427.2" y="266.8" type="line"/>
      <point x="454.7" y="405.2" type="line"/>
      <point x="406.7" y="405.2" type="line" smooth="yes"/>
      <point x="358.9" y="405.2"/>
      <point x="348.1" y="437.2"/>
      <point x="354.7" y="477.2" type="curve" smooth="yes"/>
      <point x="375.5" y="581.2" type="line" smooth="yes"/>
      <point x="398.4" y="699.1"/>
      <point x="340.8" y="760.0"/>
      <point x="216.3" y="760.0" type="curve" smooth="yes"/>
      <point x="113.5" y="760.0" type="line"/>
      <point x="88.3" y="636.4" type="line"/>
      <point x="162.3" y="636.4" type="line" smooth="yes"/>
      <point x="202.3" y="636.4"/>
      <point x="221.8" y="611.5"/>
      <point x="213.1" y="569.6" type="curve" smooth="yes"/>
      <point x="192.3" y="464.4" type="line" smooth="yes"/>
      <point x="179.7" y="398.0"/>
      <point x="207.5" y="346.0"/>
      <point x="274.3" y="336.0" type="curve"/>
      <point x="207.0" y="328.1"/>
      <point x="155.5" y="279.6"/>
      <point x="141.5" y="207.6" type="curve" smooth="yes"/>
      <point x="121.3" y="104.8" type="line" smooth="yes"/>
      <point x="111.3" y="55.599999999999994"/>
      <point x="89.4" y="35.599999999999994"/>
      <point x="45.9" y="35.599999999999994" type="curve" smooth="yes"/>
      <point x="-27.3" y="35.599999999999994" type="line"/>
    </contour>
  </outline>
</glyph>
<glyph name="asciitilde" format="2">
  <advance width="616.0"/>
  <unicode hex="007E"/>
  <note>
asciitilde
</note>
  <outline>
    <contour>
      <point x="560.1" y="420.6" type="curve"/>
      <point x="450.0" y="420.6" type="line"/>
      <point x="448.8" y="372.0"/>
      <point x="443.0" y="329.2"/>
      <point x="408.2" y="329.2" type="curve" smooth="yes"/>
      <point x="379.5" y="329.2"/>
      <point x="361.4" y="353.8"/>
      <point x="335.2" y="377.7" type="curve" smooth="yes"/>
      <point x="311.1" y="399.5"/>
      <point x="279.3" y="420.6"/>
      <point x="226.3" y="420.6" type="curve" smooth="yes"/>
      <point x="119.4" y="420.6"/>
      <point x="72.9" y="332.5"/>
      <point x="71.7" y="214.2" type="curve"/>
      <point x="181.8" y="214.2" type="line"/>
      <point x="183.0" y="262.8"/>
      <point x="188.8" y="305.6"/>
      <point x="223.6" y="305.6" type="curve" smooth="yes"/>
      <point x="252.3" y="305.6"/>
      <point x="270.4" y="281.0"/>
      <point x="296.6" y="257.1" type="curve" smooth="yes"/>
      <point x="320.7" y="235.3"/>
      <point x="352.5" y="214.2"/>
      <point x="405.5" y="214.2" type="curve" smooth="yes"/>
      <point x="512.4" y="214.2"/>
      <point x="558.9" y="302.3"/>
    </contour>
  </outline>
</glyph>
<glyph name="exclamdown" format="2">
  <advance width="343.6"/>
  <unicode hex="00A1"/>
  <note>
exclamdown
</note>
  <outline>
    <contour>
      <point x="-7.599999999999998" y="-186.8" type="line"/>
      <point x="170.8" y="-186.8" type="line"/>
      <point x="221.2" y="66.80000000000001" type="line" smooth="yes"/>
      <point x="237.7" y="148.60000000000002"/>
      <point x="246.4" y="232.4"/>
      <point x="247.6" y="277.2" type="curve"/>
      <point x="100.0" y="277.2" type="line"/>
      <point x="85.2" y="238.4"/>
      <point x="62.300000000000004" y="151.60000000000002"/>
      <point x="45.2" y="66.80000000000001" type="curve" smooth="yes"/>
      <point x="25.6" y="-30.8" type="line" smooth="yes"/>
      <point x="16.0" y="-77.7"/>
      <point x="4.600000000000001" y="-140.0"/>
      <point x="-10.399999999999999" y="-176.0" type="curve"/>
    </contour>
    <contour>
      <point x="191.8" y="351.6" type="curve" smooth="yes"/>
      <point x="256.1" y="351.6"/>
      <point x="305.2" y="400.0"/>
      <point x="305.2" y="466.8" type="curve" smooth="yes"/>
      <point x="305.2" y="512.8"/>
      <point x="272.5" y="544.0"/>
      <point x="221.8" y="544.0" type="curve" smooth="yes"/>
      <point x="158.8" y="544.0"/>
      <point x="108.4" y="495.6"/>
      <point x="108.4" y="428.8" type="curve" smooth="yes"/>
      <point x="108.4" y="382.8"/>
      <point x="141.7" y="351.6"/>
    </contour>
  </outline>
</glyph>
<glyph name="cent" format="2">
  <advance width="616.0"/>
  <unicode hex="00A2"/>
  <note>
cent
</note>
  <outline>
    <contour>
      <point x="346.9" y="604.0" type="line"/>
      <point x="484.1" y="604.0" type="line"/>
      <point x="521.4" y="800.0" type="line"/>
      <point x="384.2" y="800.0" type="line"/>
    </contour>
    <contour>
      <point x="89.4" y="328.4" type="curve" smooth="yes"/>
      <point x="89.4" y="164.8"/>
      <point x="191.6" y="89.2"/>
      <point x="364.2" y="89.2" type="curve" smooth="yes"/>
      <point x="401.0" y="89.2"/>
      <point x="446.4" y="95.8"/>
      <point x="481.0" y="107.6" type="curve"/>
      <point x="508.2" y="247.6" type="line"/>
      <point x="497.4" y="247.6" type="line"/>
      <point x="471.3" y="237.8"/>
      <point x="442.2" y="228.0"/>
      <point x="401.4" y="228.0" type="curve" smooth="yes"/>
      <point x="318.2" y="228.0"/>
      <point x="268.8" y="264.8"/>
      <point x="268.8" y="339.6" type="curve" smooth="yes"/>
      <point x="268.8" y="456.0"/>
      <point x="349.4" y="522.8"/>
      <point x="451.8" y="522.8" type="curve" smooth="yes"/>
      <point x="498.2" y="522.8"/>
      <point x="526.0" y="513.6"/>
      <point x="545.8" y="503.8" type="curve"/>
      <point x="556.6" y="503.8" type="line"/>
      <point x="583.8" y="643.2" type="line"/>
      <point x="554.4" y="655.0"/>
      <point x="501.0" y="661.6"/>
      <point x="455.8" y="661.6" type="curve" smooth="yes"/>
      <point x="229.0" y="661.6"/>
      <point x="89.4" y="526.8"/>
    </contour>
    <contour>
      <point x="218.9" y="-64.0" type="line"/>
      <point x="356.1" y="-64.0" type="line"/>
      <point x="393.4" y="132.0" type="line"/>
      <point x="256.2" y="132.0" type="line"/>
    </contour>
  </outline>
</glyph>
<glyph name="sterling" format="2">
  <advance width="616.0"/>
  <unicode hex="00A3"/>
  <note>
sterling
</note>
  <outline>
    <contour>
      <point x="118.8" y="10.8" type="line"/>
      <point x="294.8" y="10.8" type="line"/>
      <point x="381.6" y="468.0" type="line" smooth="yes"/>
      <point x="398.0" y="554.8"/>
      <point x="444.0" y="604.4"/>
      <point x="528.0" y="604.4" type="curve" smooth="yes"/>
      <point x="561.4" y="604.4"/>
      <point x="587.1" y="598.0"/>
      <point x="604.8" y="588.8" type="curve"/>
      <point x="615.6" y="588.8" type="line"/>
      <point x="640.0" y="714.8" type="line"/>
      <point x="614.3" y="724.0"/>
      <point x="572.4" y="732.0"/>
      <point x="522.0" y="732.0" type="curve" smooth="yes"/>
      <point x="342.0" y="732.0"/>
      <point x="236.1" y="624.8"/>
      <point x="205.6" y="465.2" type="curve" smooth="yes"/>
    </contour>
    <contour>
      <point x="66.4" y="310.8" type="line"/>
      <point x="506.0" y="310.8" type="line"/>
      <point x="530.4" y="442.4" type="line"/>
      <point x="90.8" y="442.4" type="line"/>
    </contour>
    <contour>
      <point x="-5.6" y="0.0" type="line"/>
      <point x="529.2" y="0.0" type="line"/>
      <point x="553.6" y="131.6" type="line"/>
      <point x="21.6" y="131.6" type="line"/>
    </contour>
  </outline>
</glyph>
<glyph name="currency" format="2">
  <advance width="616.0"/>
  <unicode hex="00A4"/>
  <note>
currency
</note>
  <outline>
    <contour>
      <point x="446.0" y="139.1" type="line"/>
      <point x="517.9" y="199.6" type="line"/>
      <point x="474.7" y="253.1" type="line"/>
      <point x="504.2" y="293.8"/>
      <point x="526.2" y="348.0"/>
      <point x="526.2" y="402.2" type="curve" smooth="yes"/>
      <point x="526.2" y="425.5"/>
      <point x="521.9" y="446.8"/>
      <point x="515.3" y="465.8" type="curve"/>
      <point x="579.9" y="520.4" type="line"/>
      <point x="531.9" y="579.9" type="line"/>
      <point x="468.9" y="528.0" type="line"/>
      <point x="443.2" y="545.3"/>
      <point x="408.5" y="556.3"/>
      <point x="365.5" y="556.3" type="curve" smooth="yes"/>
      <point x="323.9" y="556.3"/>
      <point x="286.6" y="545.7"/>
      <point x="253.6" y="529.1" type="curve"/>
      <point x="213.8" y="580.2" type="line"/>
      <point x="141.2" y="520.4" type="line"/>
      <point x="181.6" y="469.0" type="line"/>
      <point x="147.9" y="427.6"/>
      <point x="127.3" y="369.9"/>
      <point x="127.3" y="313.6" type="curve" smooth="yes"/>
      <point x="127.3" y="290.3"/>
      <point x="131.6" y="268.3"/>
      <point x="139.6" y="249.3" type="curve"/>
      <point x="79.2" y="199.6" type="line"/>
      <point x="127.9" y="139.4" type="line"/>
      <point x="187.4" y="189.9" type="line"/>
      <point x="213.8" y="172.6"/>
      <point x="247.1" y="163.0"/>
      <point x="288.7" y="163.0" type="curve" smooth="yes"/>
      <point x="331.7" y="163.0"/>
      <point x="370.4" y="173.6"/>
      <point x="404.1" y="192.3" type="curve"/>
    </contour>
    <contour>
      <point x="306.2" y="250.1" type="curve"/>
      <point x="254.1" y="250.1"/>
      <point x="225.9" y="281.3"/>
      <point x="225.9" y="331.1" type="curve" smooth="yes"/>
      <point x="225.9" y="410.1"/>
      <point x="280.3" y="468.9"/>
      <point x="348.7" y="468.9" type="curve" smooth="yes"/>
      <point x="400.1" y="469.2"/>
      <point x="428.3" y="437.3"/>
      <point x="428.3" y="388.2" type="curve" smooth="yes"/>
      <point x="428.3" y="308.5"/>
      <point x="373.2" y="250.4"/>
    </contour>
  </outline>
</glyph>
<glyph name="yen" format="2">
  <advance width="616.0"/>
  <unicode hex="00A5"/>
  <note>
yen
</note>
  <outline>
    <contour>
      <point x="347.2" y="252.4" type="line"/>
      <point x="698.8" y="709.2" type="line"/>
      <point x="698.8" y="720.0" type="line"/>
      <point x="532.8" y="720.0" type="line"/>
      <point x="295.6" y="384.4" type="line"/>
    </contour>
    <contour>
      <point x="280.8" y="249.2" type="line"/>
      <point x="380.0" y="384.0" type="line"/>
      <point x="269.2" y="720.0" type="line"/>
      <point x="100.4" y="720.0" type="line"/>
      <point x="100.4" y="709.2" type="line"/>
    </contour>
    <contour>
      <point x="100.0" y="317.6" type="line"/>
      <point x="539.6" y="317.6" type="line"/>
      <point x="559.8" y="422.8" type="line"/>
      <point x="120.2" y="422.8" type="line"/>
    </contour>
    <contour>
      <point x="175.6" y="0.0" type="line"/>
      <point x="341.6" y="0.0" type="line"/>
      <point x="417.6" y="400.4" type="line"/>
      <point x="251.6" y="400.4" type="line"/>
    </contour>
    <contour>
      <point x="69.2" y="151.6" type="line"/>
      <point x="508.8" y="151.6" type="line"/>
      <point x="529.0" y="256.8" type="line"/>
      <point x="89.4" y="256.8" type="line"/>
    </contour>
  </outline>
</glyph>
<glyph name="brokenbar" format="2">
  <advance width="308.0"/>
  <unicode hex="00A6"/>
  <note>
brokenbar
</note>
  <outline>
    <contour>
      <point x="174.4" y="760.0" type="line"/>
      <point x="109.4" y="421.2" type="line"/>
      <point x="269.0" y="421.2" type="line"/>
      <point x="334.0" y="760.0" type="line"/>
    </contour>
    <contour>
      <point x="203.3" y="90.8" type="line"/>
      <point x="43.7" y="90.8" type="line"/>
      <point x="-21.599999999999994" y="-249.2" type="line"/>
      <point x="138.0" y="-249.2" type="line"/>
    </contour>
  </outline>
</glyph>
<glyph name="section" format="2">
  <advance width="611.2"/>
  <unicode hex="00A7"/>
  <note>
section
</note>
  <outline>
    <contour>
      <point x="259.4" y="59.6" type="line"/>
      <point x="380.6" y="59.6" type="line"/>
      <point x="474.6" y="105.6"/>
      <point x="559.4" y="160.4"/>
      <point x="559.4" y="272.0" type="curve" smooth="yes"/>
      <point x="559.4" y="361.0"/>
      <point x="496.5" y="400.5"/>
      <point x="417.8" y="430.4" type="curve" smooth="yes"/>
      <point x="372.6" y="447.6" type="line" smooth="yes"/>
      <point x="329.3" y="463.9"/>
      <point x="301.8" y="475.2"/>
      <point x="301.8" y="517.2" type="curve" smooth="yes"/>
      <point x="301.8" y="572.0"/>
      <point x="353.0" y="602.0"/>
      <point x="430.6" y="602.0" type="curve" smooth="yes"/>
      <point x="491.4" y="602.0"/>
      <point x="529.5" y="590.0"/>
      <point x="557.8" y="574.0" type="curve"/>
      <point x="568.6" y="574.0" type="line"/>
      <point x="593.6" y="710.8" type="line"/>
      <point x="561.0" y="722.8"/>
      <point x="503.4" y="732.0"/>
      <point x="435.8" y="732.0" type="curve" smooth="yes"/>
      <point x="257.3" y="732.0"/>
      <point x="130.2" y="657.2"/>
      <point x="130.2" y="507.6" type="curve" smooth="yes"/>
      <point x="130.2" y="404.8"/>
      <point x="191.9" y="362.8"/>
      <point x="281.0" y="328.4" type="curve" smooth="yes"/>
      <point x="317.8" y="314.0" type="line" smooth="yes"/>
      <point x="372.8" y="292.4"/>
      <point x="393.4" y="276.8"/>
      <point x="393.4" y="238.8" type="curve" smooth="yes"/>
      <point x="393.4" y="178.6"/>
      <point x="326.1" y="144.2"/>
      <point x="259.4" y="124.0" type="curve"/>
    </contour>
    <contour>
      <point x="30.2" y="-74.0" type="line"/>
      <point x="5.199999999999999" y="-210.8" type="line"/>
      <point x="37.8" y="-222.8"/>
      <point x="95.4" y="-232.0"/>
      <point x="163.0" y="-232.0" type="curve" smooth="yes"/>
      <point x="341.5" y="-232.0"/>
      <point x="468.6" y="-157.2"/>
      <point x="468.6" y="-7.600000000000001" type="curve" smooth="yes"/>
      <point x="468.6" y="95.2"/>
      <point x="406.9" y="137.2"/>
      <point x="317.8" y="171.6" type="curve" smooth="yes"/>
      <point x="281.0" y="186.0" type="line" smooth="yes"/>
      <point x="226.0" y="207.6"/>
      <point x="205.4" y="223.2"/>
      <point x="205.4" y="261.2" type="curve" smooth="yes"/>
      <point x="205.4" y="321.4"/>
      <point x="272.7" y="355.8"/>
      <point x="339.4" y="376.0" type="curve"/>
      <point x="339.4" y="440.4" type="line"/>
      <point x="218.2" y="440.4" type="line"/>
      <point x="124.2" y="394.4"/>
      <point x="39.4" y="339.6"/>
      <point x="39.4" y="228.0" type="curve" smooth="yes"/>
      <point x="39.4" y="139.0"/>
      <point x="102.3" y="99.5"/>
      <point x="181.0" y="69.6" type="curve" smooth="yes"/>
      <point x="226.2" y="52.400000000000006" type="line" smooth="yes"/>
      <point x="269.5" y="36.1"/>
      <point x="297.0" y="24.8"/>
      <point x="297.0" y="-17.2" type="curve" smooth="yes"/>
      <point x="297.0" y="-72.0"/>
      <point x="245.8" y="-102.0"/>
      <point x="168.2" y="-102.0" type="curve" smooth="yes"/>
      <point x="107.4" y="-102.0"/>
      <point x="69.3" y="-90.0"/>
      <point x="41.0" y="-74.0" type="curve"/>
    </contour>
  </outline>
</glyph>
<glyph name="copyright" format="2">
  <advance width="848.0"/>
  <unicode hex="00A9"/>
  <note>
copyright
</note>
  <outline>
    <contour>
      <point x="56.8" y="360.0" type="curve" smooth="yes"/>
      <point x="56.8" y="116.8"/>
      <point x="208.0" y="-23.2"/>
      <point x="444.0" y="-23.2" type="curve" smooth="yes"/>
      <point x="680.0" y="-23.2"/>
      <point x="831.2" y="116.8"/>
      <point x="831.2" y="360.0" type="curve" smooth="yes"/>
      <point x="831.2" y="603.2"/>
      <point x="680.0" y="743.2"/>
      <point x="444.0" y="743.2" type="curve" smooth="yes"/>
      <point x="208.0" y="743.2"/>
      <point x="56.8" y="603.2"/>
    </contour>
    <contour>
      <point x="148.4" y="360.0" type="curve" smooth="yes"/>
      <point x="148.4" y="568.0"/>
      <point x="266.0" y="662.4"/>
      <point x="444.0" y="662.4" type="curve" smooth="yes"/>
      <point x="622.0" y="662.4"/>
      <point x="739.6" y="566.8"/>
      <point x="739.6" y="360.0" type="curve" smooth="yes"/>
      <point x="739.6" y="153.2"/>
      <point x="622.0" y="57.6"/>
      <point x="444.0" y="57.6" type="curve" smooth="yes"/>
      <point x="266.0" y="57.6"/>
      <point x="148.4" y="152.0"/>
    </contour>
    <contour>
      <point x="247.2" y="360.0" type="curve" smooth="yes"/>
      <point x="247.2" y="236.5"/>
      <point x="326.7" y="156.0"/>
      <point x="490.0" y="156.0" type="curve" smooth="yes"/>
      <point x="518.4" y="156.0"/>
      <point x="555.8" y="159.2"/>
      <point x="579.2" y="166.1" type="curve"/>
      <point x="579.2" y="260.0" type="line"/>
      <point x="572.4" y="260.0" type="line"/>
      <point x="553.9" y="252.8"/>
      <point x="522.6" y="246.8"/>
      <point x="495.6" y="246.8" type="curve" smooth="yes"/>
      <point x="399.9" y="246.8"/>
      <point x="365.6" y="286.6"/>
      <point x="365.6" y="360.0" type="curve" smooth="yes"/>
      <point x="365.6" y="429.2"/>
      <point x="404.8" y="473.2"/>
      <point x="495.6" y="473.2" type="curve" smooth="yes"/>
      <point x="522.6" y="473.2"/>
      <point x="553.9" y="467.2"/>
      <point x="572.4" y="460.0" type="curve"/>
      <point x="579.2" y="460.0" type="line"/>
      <point x="579.2" y="553.9" type="line"/>
      <point x="555.8" y="560.8"/>
      <point x="518.4" y="564.0"/>
      <point x="490.0" y="564.0" type="curve" smooth="yes"/>
      <point x="331.6" y="564.0"/>
      <point x="247.2" y="482.8"/>
    </contour>
  </outline>
</glyph>
<glyph name="guillemetleft" format="2">
  <advance width="636.8"/>
  <unicode hex="00AB"/>
  <note>
guillemotleft
</note>
  <outline>
    <contour>
      <point x="318.8" y="266.8" type="line"/>
      <point x="526.0" y="46.8" type="line"/>
      <point x="534.0" y="46.8" type="line"/>
      <point x="560.4" y="185.2" type="line"/>
      <point x="449.8" y="296.4" type="line"/>
      <point x="604.4" y="406.4" type="line"/>
      <point x="635.6" y="569.2" type="line"/>
      <point x="627.6" y="569.2" type="line"/>
      <point x="335.2" y="349.2" type="line"/>
    </contour>
    <contour>
      <point x="238.8" y="46.8" type="line"/>
      <point x="246.8" y="46.8" type="line"/>
      <point x="273.2" y="185.2" type="line"/>
      <point x="162.6" y="296.4" type="line"/>
      <point x="317.2" y="406.4" type="line"/>
      <point x="348.4" y="569.2" type="line"/>
      <point x="340.4" y="569.2" type="line"/>
      <point x="48.0" y="349.2" type="line"/>
      <point x="31.6" y="266.8" type="line"/>
    </contour>
  </outline>
</glyph>
<glyph name="logicalnot" format="2">
  <advance width="616.0"/>
  <unicode hex="00AC"/>
  <note>
logicalnot
</note>
  <outline>
    <contour>
      <point x="72.4" y="372.8" type="line"/>
      <point x="72.4" y="259.2" type="line"/>
      <point x="446.8" y="259.2" type="line"/>
      <point x="446.8" y="64.0" type="line"/>
      <point x="560.4" y="64.0" type="line"/>
      <point x="560.4" y="372.8" type="line"/>
    </contour>
  </outline>
</glyph>
<glyph name="registered" format="2">
  <advance width="848.0"/>
  <unicode hex="00AE"/>
  <note>
registered
</note>
  <outline>
    <contour>
      <point x="444.0" y="-23.2" type="curve" smooth="yes"/>
      <point x="680.0" y="-23.2"/>
      <point x="831.2" y="116.8"/>
      <point x="831.2" y="360.0" type="curve" smooth="yes"/>
      <point x="831.2" y="603.2"/>
      <point x="680.0" y="743.2"/>
      <point x="444.0" y="743.2" type="curve" smooth="yes"/>
      <point x="208.0" y="743.2"/>
      <point x="56.8" y="603.2"/>
      <point x="56.8" y="360.0" type="curve" smooth="yes"/>
      <point x="56.8" y="116.8"/>
      <point x="208.0" y="-23.2"/>
    </contour>
    <contour>
      <point x="273.2" y="168.0" type="line"/>
      <point x="387.0" y="168.0" type="line"/>
      <point x="387.0" y="560.6" type="line"/>
      <point x="273.2" y="560.6" type="line"/>
      <point x="273.2" y="472.0" type="line"/>
    </contour>
    <contour>
      <point x="519.2" y="168.0" type="line"/>
      <point x="643.2" y="168.0" type="line"/>
      <point x="643.2" y="176.0" type="line"/>
      <point x="510.6" y="340.4" type="line"/>
      <point x="406.4" y="320.4" type="line"/>
    </contour>
    <contour>
      <point x="444.0" y="57.6" type="curve" smooth="yes"/>
      <point x="266.0" y="57.6"/>
      <point x="148.4" y="152.0"/>
      <point x="148.4" y="360.0" type="curve" smooth="yes"/>
      <point x="148.4" y="568.0"/>
      <point x="266.0" y="662.4"/>
      <point x="444.0" y="662.4" type="curve" smooth="yes"/>
      <point x="622.0" y="662.4"/>
      <point x="739.6" y="566.8"/>
      <point x="739.6" y="360.0" type="curve" smooth="yes"/>
      <point x="739.6" y="153.2"/>
      <point x="622.0" y="57.6"/>
    </contour>
    <contour>
      <point x="341.0" y="257.6" type="line"/>
      <point x="426.6" y="257.6" type="line" smooth="yes"/>
      <point x="550.4" y="257.6"/>
      <point x="620.8" y="331.3"/>
      <point x="620.8" y="422.0" type="curve" smooth="yes"/>
      <point x="620.8" y="511.3"/>
      <point x="570.0" y="560.6"/>
      <point x="450.0" y="560.6" type="curve" smooth="yes"/>
      <point x="341.0" y="560.6" type="line"/>
      <point x="341.0" y="474.4" type="line"/>
      <point x="441.0" y="474.4" type="line" smooth="yes"/>
      <point x="481.9" y="474.4"/>
      <point x="507.0" y="460.3"/>
      <point x="507.0" y="421.3" type="curve" smooth="yes"/>
      <point x="507.0" y="377.2"/>
      <point x="485.9" y="340.4"/>
      <point x="423.8" y="340.4" type="curve" smooth="yes"/>
      <point x="341.0" y="340.4" type="line"/>
    </contour>
  </outline>
</glyph>
<glyph name="degree" format="2">
  <advance width="420.0"/>
  <unicode hex="00B0"/>
  <note>
degree
</note>
  <outline>
    <contour>
      <point x="279.4" y="466.0" type="curve" smooth="yes"/>
      <point x="363.8" y="466.0"/>
      <point x="429.4" y="519.6"/>
      <point x="429.4" y="608.0" type="curve" smooth="yes"/>
      <point x="429.4" y="696.4"/>
      <point x="363.8" y="750.0"/>
      <point x="279.4" y="750.0" type="curve" smooth="yes"/>
      <point x="195.0" y="750.0"/>
      <point x="129.4" y="696.4"/>
      <point x="129.4" y="608.0" type="curve" smooth="yes"/>
      <point x="129.4" y="519.6"/>
      <point x="195.0" y="466.0"/>
    </contour>
    <contour>
      <point x="279.4" y="540.4" type="curve" smooth="yes"/>
      <point x="240.4" y="540.4"/>
      <point x="211.8" y="565.6"/>
      <point x="211.8" y="608.0" type="curve" smooth="yes"/>
      <point x="211.8" y="650.4"/>
      <point x="240.4" y="675.6"/>
      <point x="279.4" y="675.6" type="curve" smooth="yes"/>
      <point x="318.4" y="675.6"/>
      <point x="347.0" y="650.4"/>
      <point x="347.0" y="608.0" type="curve" smooth="yes"/>
      <point x="347.0" y="565.6"/>
      <point x="318.4" y="540.4"/>
    </contour>
  </outline>
</glyph>
<glyph name="plusminus" format="2">
  <advance width="616.0"/>
  <unicode hex="00B1"/>
  <note>
plusminus
</note>
  <outline>
    <contour>
      <point x="259.6" y="189.6" type="line"/>
      <point x="373.2" y="189.6" type="line"/>
      <point x="373.2" y="677.6" type="line"/>
      <point x="259.6" y="677.6" type="line"/>
    </contour>
    <contour>
      <point x="72.4" y="0.0" type="line"/>
      <point x="560.4" y="0.0" type="line"/>
      <point x="560.4" y="113.6" type="line"/>
      <point x="72.4" y="113.6" type="line"/>
    </contour>
    <contour>
      <point x="72.4" y="376.8" type="line"/>
      <point x="560.4" y="376.8" type="line"/>
      <point x="560.4" y="490.4" type="line"/>
      <point x="72.4" y="490.4" type="line"/>
    </contour>
  </outline>
</glyph>
<glyph name="paragraph" format="2">
  <advance width="706.0"/>
  <unicode hex="00B6"/>
  <note>
paragraph
</note>
  <outline>
    <contour>
      <point x="282.0" y="248.0" type="curve" smooth="yes"/>
      <point x="296.6" y="248.0" type="line"/>
      <point x="202.0" y="-249.2" type="line"/>
      <point x="328.0" y="-249.2" type="line"/>
      <point x="489.1" y="593.6" type="line"/>
      <point x="571.5" y="593.6" type="line"/>
      <point x="410.4" y="-249.2" type="line"/>
      <point x="530.8" y="-249.2" type="line"/>
      <point x="716.0" y="720.0" type="line"/>
      <point x="366.7" y="720.0" type="line" smooth="yes"/>
      <point x="220.4" y="720.0"/>
      <point x="83.2" y="624.1"/>
      <point x="83.2" y="445.6" type="curve" smooth="yes"/>
      <point x="83.2" y="317.3"/>
      <point x="170.3" y="248.0"/>
    </contour>
  </outline>
</glyph>
<glyph name="periodcentered" format="2">
  <advance width="282.8"/>
  <unicode hex="00B7"/>
  <note>
periodcentered
</note>
  <outline>
    <contour>
      <point x="149.2" y="272.0" type="curve" smooth="yes"/>
      <point x="212.2" y="272.0"/>
      <point x="262.6" y="320.4"/>
      <point x="262.6" y="387.2" type="curve" smooth="yes"/>
      <point x="262.6" y="433.2"/>
      <point x="229.3" y="464.4"/>
      <point x="179.2" y="464.4" type="curve" smooth="yes"/>
      <point x="114.9" y="464.4"/>
      <point x="65.80000000000001" y="416.0"/>
      <point x="65.80000000000001" y="349.2" type="curve" smooth="yes"/>
      <point x="65.80000000000001" y="303.2"/>
      <point x="98.5" y="272.0"/>
    </contour>
  </outline>
</glyph>
<glyph name="guillemetright" format="2">
  <advance width="636.1"/>
  <unicode hex="00BB"/>
  <note>
guillemotright
</note>
  <outline>
    <contour>
      <point x="301.7" y="46.8" type="line"/>
      <point x="309.7" y="46.8" type="line"/>
      <point x="602.1" y="266.8" type="line"/>
      <point x="618.5" y="349.2" type="line"/>
      <point x="411.3" y="569.2" type="line"/>
      <point x="403.3" y="569.2" type="line"/>
      <point x="376.9" y="430.8" type="line"/>
      <point x="487.5" y="319.6" type="line"/>
      <point x="332.9" y="209.6" type="line"/>
    </contour>
    <contour>
      <point x="14.5" y="46.8" type="line"/>
      <point x="22.5" y="46.8" type="line"/>
      <point x="314.9" y="266.8" type="line"/>
      <point x="331.3" y="349.2" type="line"/>
      <point x="124.1" y="569.2" type="line"/>
      <point x="116.1" y="569.2" type="line"/>
      <point x="89.7" y="430.8" type="line"/>
      <point x="200.3" y="319.6" type="line"/>
      <point x="45.7" y="209.6" type="line"/>
    </contour>
  </outline>
</glyph>
<glyph name="questiondown" format="2">
  <advance width="505.6"/>
  <unicode hex="00BF"/>
  <note>
questiondown
</note>
  <outline>
    <contour>
      <point x="317.6" y="350.2" type="curve" smooth="yes"/>
      <point x="381.2" y="350.2"/>
      <point x="431.0" y="401.4"/>
      <point x="431.0" y="462.6" type="curve" smooth="yes"/>
      <point x="431.0" y="514.2"/>
      <point x="397.6" y="542.6"/>
      <point x="347.6" y="542.6" type="curve" smooth="yes"/>
      <point x="284.6" y="542.6"/>
      <point x="234.2" y="491.4"/>
      <point x="234.2" y="430.2" type="curve" smooth="yes"/>
      <point x="234.2" y="378.6"/>
      <point x="268.2" y="350.2"/>
    </contour>
    <contour>
      <point x="-22.0" y="-37.8" type="curve" smooth="yes"/>
      <point x="-22.0" y="-148.6"/>
      <point x="52.5" y="-200.2"/>
      <point x="193.2" y="-200.2" type="curve" smooth="yes"/>
      <point x="253.6" y="-200.2"/>
      <point x="319.6" y="-189.4"/>
      <point x="378.0" y="-167.0" type="curve"/>
      <point x="405.2" y="-28.6" type="line"/>
      <point x="394.4" y="-28.6" type="line"/>
      <point x="349.9" y="-51.0"/>
      <point x="294.4" y="-65.80000000000001"/>
      <point x="243.2" y="-65.80000000000001" type="curve" smooth="yes"/>
      <point x="185.1" y="-65.80000000000001"/>
      <point x="156.39999999999998" y="-48.300000000000004"/>
      <point x="156.39999999999998" y="-8.600000000000001" type="curve" smooth="yes"/>
      <point x="156.39999999999998" y="36.9"/>
      <point x="194.5" y="64.0"/>
      <point x="239.6" y="88.6" type="curve" smooth="yes"/>
      <point x="285.2" y="113.4" type="line" smooth="yes"/>
      <point x="345.2" y="146.1"/>
      <point x="369.9" y="190.6"/>
      <point x="378.4" y="252.2" type="curve" smooth="yes"/>
      <point x="386.0" y="299.0" type="line"/>
      <point x="226.8" y="299.0" type="line"/>
      <point x="219.2" y="256.2" type="line" smooth="yes"/>
      <point x="213.9" y="223.8"/>
      <point x="203.8" y="201.5"/>
      <point x="168.4" y="181.4" type="curve" smooth="yes"/>
      <point x="133.2" y="161.8" type="line" smooth="yes"/>
      <point x="90.3" y="137.8"/>
      <point x="-22.0" y="78.4"/>
    </contour>
  </outline>
</glyph>
<glyph name="AE" format="2">
  <advance width="998.2"/>
  <unicode hex="00C6"/>
  <note>
AE
</note>
  <anchor x="441.1" y="0.0" name="bottom"/>
  <anchor x="594.1" y="720.0" name="top"/>
  <outline>
    <contour>
      <point x="-15.299999999999999" y="0.0" type="line"/>
      <point x="165.89999999999998" y="0.0" type="line"/>
      <point x="331.7" y="466.0" type="line" smooth="yes"/>
      <point x="358.9" y="541.3"/>
      <point x="399.1" y="579.6"/>
      <point x="491.9" y="579.6" type="curve" smooth="yes"/>
      <point x="508.2" y="579.6"/>
      <point x="533.6" y="576.3"/>
      <point x="548.4" y="570.4" type="curve"/>
      <point x="541.8" y="611.0" type="line"/>
      <point x="532.3" y="591.3"/>
      <point x="520.3" y="557.1"/>
      <point x="513.5" y="520.4" type="curve" smooth="yes"/>
      <point x="411.5" y="0.0" type="line"/>
      <point x="588.7" y="0.0" type="line"/>
      <point x="696.7" y="553.2" type="line" smooth="yes"/>
      <point x="704.7" y="593.2"/>
      <point x="718.2" y="654.4"/>
      <point x="733.6" y="691.6" type="curve"/>
      <point x="728.0" y="703.6" type="line"/>
      <point x="674.5" y="718.4"/>
      <point x="615.9" y="728.0"/>
      <point x="548.3" y="728.0" type="curve" smooth="yes"/>
      <point x="362.3" y="728.0"/>
      <point x="229.0" y="683.0"/>
      <point x="154.5" y="474.0" type="curve" smooth="yes"/>
    </contour>
    <contour>
      <point x="178.4" y="183.6" type="line"/>
      <point x="489.6" y="183.6" type="line"/>
      <point x="516.8" y="326.4" type="line"/>
      <point x="220.4" y="326.4" type="line"/>
    </contour>
    <contour>
      <point x="534.4" y="0.0" type="line"/>
      <point x="896.4" y="0.0" type="line"/>
      <point x="925.0" y="154.0" type="line"/>
      <point x="564.4" y="154.0" type="line"/>
    </contour>
    <contour>
      <point x="594.0" y="288.4" type="line"/>
      <point x="893.6" y="288.4" type="line"/>
      <point x="920.8" y="434.0" type="line"/>
      <point x="621.2" y="434.0" type="line"/>
    </contour>
    <contour>
      <point x="596.4" y="566.0" type="line"/>
      <point x="998.6" y="566.0" type="line"/>
      <point x="1027.2" y="720.0" type="line"/>
      <point x="626.4" y="720.0" type="line"/>
    </contour>
  </outline>
</glyph>
<glyph name="multiply" format="2">
  <advance width="616.0"/>
  <unicode hex="00D7"/>
  <note>
multiply
</note>
  <outline>
    <contour>
      <point x="175.3" y="95.1" type="line"/>
      <point x="537.3" y="457.1" type="line"/>
      <point x="457.5" y="536.9" type="line"/>
      <point x="95.5" y="174.9" type="line"/>
    </contour>
    <contour>
      <point x="457.5" y="95.1" type="line"/>
      <point x="537.3" y="174.9" type="line"/>
      <point x="175.3" y="536.9" type="line"/>
      <point x="95.5" y="457.1" type="line"/>
    </contour>
  </outline>
</glyph>
<glyph name="Thorn" format="2">
  <advance width="673.8"/>
  <unicode hex="00DE"/>
  <note>
Thorn
</note>
  <outline>
    <contour>
      <point x="274.4" y="629.2" type="line"/>
      <point x="247.2" y="480.8" type="line"/>
      <point x="402.8" y="480.8" type="line" smooth="yes"/>
      <point x="459.6" y="480.8"/>
      <point x="496.8" y="454.4"/>
      <point x="496.8" y="392.4" type="curve" smooth="yes"/>
      <point x="496.8" y="312.4"/>
      <point x="444.0" y="236.0"/>
      <point x="336.0" y="236.0" type="curve" smooth="yes"/>
      <point x="197.2" y="236.0" type="line"/>
      <point x="170.0" y="93.2" type="line"/>
      <point x="336.0" y="93.2" type="line" smooth="yes"/>
      <point x="543.6" y="93.2"/>
      <point x="675.2" y="243.2"/>
      <point x="675.2" y="403.6" type="curve" smooth="yes"/>
      <point x="675.2" y="555.6"/>
      <point x="579.6" y="629.2"/>
      <point x="412.8" y="629.2" type="curve" smooth="yes"/>
    </contour>
    <contour>
      <point x="167.2" y="720.0" type="line"/>
      <point x="27.200000000000003" y="0.0" type="line"/>
      <point x="204.39999999999998" y="0.0" type="line"/>
      <point x="344.4" y="720.0" type="line"/>
    </contour>
  </outline>
</glyph>
<glyph name="germandbls" format="2">
  <advance width="688.8"/>
  <unicode hex="00DF"/>
  <note>
germandbls
</note>
  <outline>
    <contour>
      <point x="418.2" y="-8.0" type="curve" smooth="yes"/>
      <point x="540.0" y="-8.0"/>
      <point x="645.2" y="48.0"/>
      <point x="645.2" y="179.6" type="curve" smooth="yes"/>
      <point x="645.2" y="235.6"/>
      <point x="622.3" y="267.2"/>
      <point x="599.2" y="295.2" type="curve" smooth="yes"/>
      <point x="587.2" y="310.0" type="line" smooth="yes"/>
      <point x="569.3" y="332.1"/>
      <point x="557.0" y="346.0"/>
      <point x="557.0" y="373.6" type="curve" smooth="yes"/>
      <point x="557.0" y="410.8"/>
      <point x="581.3" y="436.3"/>
      <point x="605.6" y="469.2" type="curve" smooth="yes"/>
      <point x="632.4" y="506.7"/>
      <point x="657.8" y="548.0"/>
      <point x="657.8" y="606.4" type="curve" smooth="yes"/>
      <point x="657.8" y="718.4"/>
      <point x="573.2" y="771.2"/>
      <point x="446.8" y="771.2" type="curve" smooth="yes"/>
      <point x="292.4" y="771.2"/>
      <point x="189.6" y="713.2"/>
      <point x="156.0" y="537.2" type="curve" smooth="yes"/>
      <point x="52.0" y="0.0" type="line"/>
      <point x="228.0" y="0.0" type="line"/>
      <point x="333.2" y="542.0" type="line" smooth="yes"/>
      <point x="346.4" y="609.2"/>
      <point x="372.4" y="640.8"/>
      <point x="427.6" y="640.8" type="curve" smooth="yes"/>
      <point x="479.2" y="640.8"/>
      <point x="492.0" y="612.8"/>
      <point x="492.0" y="580.0" type="curve" smooth="yes"/>
      <point x="492.0" y="544.4"/>
      <point x="471.8" y="510.4"/>
      <point x="448.8" y="482.0" type="curve" smooth="yes"/>
      <point x="419.3" y="445.7"/>
      <point x="394.8" y="408.8"/>
      <point x="394.8" y="362.8" type="curve" smooth="yes"/>
      <point x="394.8" y="318.0"/>
      <point x="416.7" y="287.7"/>
      <point x="438.2" y="262.0" type="curve" smooth="yes"/>
      <point x="450.2" y="247.2" type="line" smooth="yes"/>
      <point x="463.8" y="231.5"/>
      <point x="478.8" y="218.4"/>
      <point x="478.8" y="186.8" type="curve" smooth="yes"/>
      <point x="478.8" y="149.2"/>
      <point x="456.8" y="124.0"/>
      <point x="405.6" y="124.0" type="curve" smooth="yes"/>
      <point x="374.0" y="124.0"/>
      <point x="357.8" y="132.6"/>
      <point x="341.2" y="141.2" type="curve"/>
      <point x="330.4" y="141.2" type="line"/>
      <point x="303.2" y="8.0" type="line"/>
      <point x="335.2" y="-1.0"/>
      <point x="367.4" y="-8.0"/>
    </contour>
    <contour>
      <point x="40.400000000000006" y="410.8" type="line"/>
      <point x="168.0" y="410.8" type="line"/>
      <point x="195.2" y="546.8" type="line"/>
      <point x="67.6" y="546.8" type="line"/>
    </contour>
  </outline>
</glyph>
<glyph name="ae" format="2">
  <advance width="951.9"/>
  <unicode hex="00E6"/>
  <note>
ae
</note>
  <anchor x="423.1" y="0.0" name="bottom"/>
  <anchor x="529.1" y="546.8" name="top"/>
  <outline>
    <contour>
      <point x="665.2" y="-10.8" type="curve" smooth="yes"/>
      <point x="726.4" y="-10.8"/>
      <point x="780.8" y="-1.5999999999999996"/>
      <point x="824.0" y="14.4" type="curve"/>
      <point x="851.2" y="151.6" type="line"/>
      <point x="840.4" y="151.6" type="line"/>
      <point x="808.7" y="135.6"/>
      <point x="749.6" y="122.4"/>
      <point x="692.8" y="122.4" type="curve" smooth="yes"/>
      <point x="600.0" y="122.4"/>
      <point x="543.8" y="156.4"/>
      <point x="543.8" y="242.4" type="curve" smooth="yes"/>
      <point x="543.8" y="256.8" type="line" smooth="yes"/>
      <point x="543.8" y="363.2"/>
      <point x="596.8" y="439.6"/>
      <point x="677.2" y="439.6" type="curve" smooth="yes"/>
      <point x="734.4" y="439.6"/>
      <point x="761.4" y="409.6"/>
      <point x="761.4" y="362.8" type="curve" smooth="yes"/>
      <point x="761.4" y="351.4"/>
      <point x="759.4" y="339.0"/>
      <point x="756.8" y="327.2" type="curve"/>
      <point x="478.8" y="327.2" type="line"/>
      <point x="478.8" y="226.0" type="line"/>
      <point x="904.0" y="226.0" type="line"/>
      <point x="915.4" y="267.6"/>
      <point x="924.0" y="314.4"/>
      <point x="924.0" y="355.6" type="curve" smooth="yes"/>
      <point x="924.0" y="478.8"/>
      <point x="852.0" y="561.6"/>
      <point x="684.0" y="561.6" type="curve" smooth="yes"/>
      <point x="507.9" y="561.6"/>
      <point x="381.8" y="425.6"/>
      <point x="381.8" y="231.2" type="curve" smooth="yes"/>
      <point x="381.8" y="59.2"/>
      <point x="494.7" y="-10.8"/>
    </contour>
    <contour>
      <point x="274.4" y="-12.0" type="curve" smooth="yes"/>
      <point x="368.4" y="-12.0"/>
      <point x="445.2" y="18.8"/>
      <point x="515.6" y="65.2" type="curve"/>
      <point x="507.2" y="137.6" type="line"/>
      <point x="429.6" y="151.6" type="line"/>
      <point x="379.2" y="116.0"/>
      <point x="332.0" y="103.19999999999999"/>
      <point x="281.2" y="103.19999999999999" type="curve" smooth="yes"/>
      <point x="226.0" y="103.19999999999999"/>
      <point x="190.8" y="117.4"/>
      <point x="190.8" y="160.6" type="curve" smooth="yes"/>
      <point x="190.8" y="208.6"/>
      <point x="234.0" y="230.8"/>
      <point x="298.8" y="230.8" type="curve" smooth="yes"/>
      <point x="342.0" y="230.8"/>
      <point x="364.0" y="224.4"/>
      <point x="391.6" y="214.0" type="curve"/>
      <point x="429.6" y="214.0" type="line"/>
      <point x="429.6" y="319.2" type="line"/>
      <point x="400.0" y="319.2" type="line"/>
      <point x="380.9" y="325.2"/>
      <point x="338.8" y="334.8"/>
      <point x="292.0" y="334.8" type="curve" smooth="yes"/>
      <point x="144.8" y="334.8"/>
      <point x="28.8" y="281.6"/>
      <point x="28.8" y="149.6" type="curve" smooth="yes"/>
      <point x="28.8" y="32.8"/>
      <point x="113.2" y="-12.0"/>
    </contour>
    <contour>
      <point x="379.6" y="263.2" type="line"/>
      <point x="557.6" y="407.6" type="line"/>
      <point x="557.6" y="504.4"/>
      <point x="464.4" y="561.6"/>
      <point x="314.8" y="561.6" type="curve" smooth="yes"/>
      <point x="253.6" y="561.6"/>
      <point x="195.6" y="553.0"/>
      <point x="145.0" y="539.2" type="curve"/>
      <point x="119.2" y="404.8" type="line"/>
      <point x="131.2" y="404.8" type="line"/>
      <point x="165.8" y="419.4"/>
      <point x="219.2" y="431.2"/>
      <point x="279.2" y="431.2" type="curve" smooth="yes"/>
      <point x="372.8" y="431.2"/>
      <point x="420.6" y="398.7"/>
      <point x="382.9" y="300.0" type="curve"/>
    </contour>
  </outline>
</glyph>
<glyph name="eth" format="2">
  <advance width="653.4"/>
  <unicode hex="00F0"/>
  <note>
eth
</note>
  <outline>
    <contour>
      <point x="277.2" y="-12.0" type="curve" smooth="yes"/>
      <point x="532.8" y="-12.0"/>
      <point x="635.0" y="224.8"/>
      <point x="635.0" y="430.8" type="curve" smooth="yes"/>
      <point x="635.0" y="628.0"/>
      <point x="524.4" y="732.0"/>
      <point x="335.2" y="732.0" type="curve" smooth="yes"/>
      <point x="284.8" y="732.0"/>
      <point x="240.8" y="724.8"/>
      <point x="196.4" y="713.6" type="curve"/>
      <point x="169.2" y="570.8" type="line"/>
      <point x="180.0" y="570.8" type="line"/>
      <point x="212.0" y="584.0"/>
      <point x="245.2" y="596.0"/>
      <point x="290.0" y="596.0" type="curve" smooth="yes"/>
      <point x="405.2" y="596.0"/>
      <point x="466.8" y="553.2"/>
      <point x="466.8" y="419.6" type="curve"/>
      <point x="466.8" y="304.0"/>
      <point x="415.2" y="121.19999999999999"/>
      <point x="298.0" y="121.19999999999999" type="curve" smooth="yes"/>
      <point x="232.39999999999998" y="121.19999999999999"/>
      <point x="204.8" y="152.4"/>
      <point x="204.8" y="209.2" type="curve" smooth="yes"/>
      <point x="204.8" y="284.4"/>
      <point x="257.2" y="343.2"/>
      <point x="340.8" y="343.2" type="curve" smooth="yes"/>
      <point x="408.0" y="343.2"/>
      <point x="460.0" y="311.6"/>
      <point x="474.0" y="274.4" type="curve"/>
      <point x="498.0" y="396.0" type="line"/>
      <point x="466.0" y="436.4"/>
      <point x="426.4" y="465.2"/>
      <point x="324.0" y="465.2" type="curve" smooth="yes"/>
      <point x="156.0" y="465.2"/>
      <point x="40.0" y="351.2"/>
      <point x="40.0" y="195.2" type="curve" smooth="yes"/>
      <point x="40.0" y="56.8"/>
      <point x="134.8" y="-12.0"/>
    </contour>
    <contour>
      <point x="352.0" y="498.4" type="line"/>
      <point x="597.6" y="726.4" type="line"/>
      <point x="540.8" y="785.6" type="line"/>
      <point x="295.2" y="557.6" type="line"/>
    </contour>
  </outline>
</glyph>
<glyph name="divide" format="2">
  <advance width="616.0"/>
  <unicode hex="00F7"/>
  <note>
divide
</note>
  <outline>
    <contour>
      <point x="316.4" y="422.8" type="curve" smooth="yes"/>
      <point x="355.3" y="422.8"/>
      <point x="384.8" y="447.6"/>
      <point x="384.8" y="491.2" type="curve" smooth="yes"/>
      <point x="384.8" y="533.1"/>
      <point x="355.3" y="559.6"/>
      <point x="316.4" y="559.6" type="curve" smooth="yes"/>
      <point x="277.5" y="559.6"/>
      <point x="248.0" y="533.1"/>
      <point x="248.0" y="491.2" type="curve" smooth="yes"/>
      <point x="248.0" y="447.6"/>
      <point x="277.5" y="422.8"/>
    </contour>
    <contour>
      <point x="248.0" y="146.4" type="curve" smooth="yes"/>
      <point x="248.0" y="102.8"/>
      <point x="277.5" y="78.0"/>
      <point x="316.4" y="78.0" type="curve" smooth="yes"/>
      <point x="355.3" y="78.0"/>
      <point x="384.8" y="102.8"/>
      <point x="384.8" y="146.4" type="curve" smooth="yes"/>
      <point x="384.8" y="188.3"/>
      <point x="355.3" y="214.8"/>
      <point x="316.4" y="214.8" type="curve" smooth="yes"/>
      <point x="277.5" y="214.8"/>
      <point x="248.0" y="188.3"/>
    </contour>
    <contour>
      <point x="72.4" y="372.8" type="line"/>
      <point x="72.4" y="259.2" type="line"/>
      <point x="560.4" y="259.2" type="line"/>
      <point x="560.4" y="372.8" type="line"/>
    </contour>
  </outline>
</glyph>
<glyph name="thorn" format="2">
  <advance width="664.2"/>
  <unicode hex="00FE"/>
  <note>
thorn
</note>
  <outline>
    <contour>
      <point x="-16.799999999999997" y="-232.0" type="line"/>
      <point x="159.2" y="-232.0" type="line"/>
      <point x="351.8" y="760.0" type="line"/>
      <point x="166.3" y="760.0" type="line"/>
      <point x="159.5" y="749.2" type="line"/>
      <point x="161.2" y="702.0"/>
      <point x="151.2" y="639.2"/>
      <point x="142.5" y="593.6" type="curve" smooth="yes"/>
    </contour>
    <contour>
      <point x="257.6" y="-12.0" type="curve" smooth="yes"/>
      <point x="480.4" y="-12.0"/>
      <point x="629.8" y="103.2"/>
      <point x="629.8" y="320.0" type="curve" smooth="yes"/>
      <point x="629.8" y="470.4"/>
      <point x="541.6" y="556.0"/>
      <point x="405.6" y="556.0" type="curve" smooth="yes"/>
      <point x="362.8" y="556.0"/>
      <point x="325.6" y="552.0"/>
      <point x="256.0" y="518.8" type="curve"/>
      <point x="225.2" y="405.6" type="line"/>
      <point x="262.4" y="405.6" type="line"/>
      <point x="286.0" y="420.4"/>
      <point x="312.0" y="425.6"/>
      <point x="339.2" y="425.6" type="curve" smooth="yes"/>
      <point x="411.2" y="425.6"/>
      <point x="450.4" y="386.0"/>
      <point x="450.4" y="306.0" type="curve" smooth="yes"/>
      <point x="450.4" y="193.6"/>
      <point x="389.2" y="115.6"/>
      <point x="286.8" y="115.6" type="curve" smooth="yes"/>
      <point x="257.2" y="115.6"/>
      <point x="228.39999999999998" y="118.0"/>
      <point x="210.0" y="134.0" type="curve"/>
      <point x="162.4" y="134.0" type="line"/>
      <point x="130.8" y="-2.0" type="line"/>
      <point x="185.6" y="-2.0" type="line"/>
      <point x="206.8" y="-8.399999999999999"/>
      <point x="230.8" y="-12.0"/>
    </contour>
  </outline>
</glyph>
<glyph name="idotless" format="2">
  <advance width="328.8"/>
  <unicode hex="0131"/>
  <note>
dotlessi
</note>
  <anchor x="112.1" y="0.0" name="bottom"/>
  <anchor x="200.39999999999998" y="0.0" name="ogonek"/>
  <anchor x="218.7" y="546.8" name="top"/>
  <outline>
    <contour>
      <point x="24.400000000000002" y="0.0" type="line"/>
      <point x="200.39999999999998" y="0.0" type="line"/>
      <point x="306.4" y="546.8" type="line"/>
      <point x="121.6" y="546.8" type="line"/>
      <point x="114.8" y="536.0" type="line"/>
      <point x="116.5" y="488.8"/>
      <point x="106.5" y="426.0"/>
      <point x="97.8" y="380.4" type="curve" smooth="yes"/>
    </contour>
  </outline>
</glyph>
<glyph name="kgreenlandic" format="2">
  <advance width="638.0"/>
  <unicode hex="0138"/>
  <note>
k
</note>
  <anchor x="266.0" y="0.0" name="bottom"/>
  <anchor x="413.3" y="760.0" name="top"/>
  <outline>
    <contour>
      <point x="481.0" y="546.8" type="line"/>
      <point x="223.6" y="286.8" type="line"/>
      <point x="368.6" y="0.0" type="line"/>
      <point x="560.6" y="0.0" type="line"/>
      <point x="560.6" y="12.0" type="line"/>
      <point x="540.0" y="38.8"/>
      <point x="521.4" y="66.4"/>
      <point x="503.2" y="99.6" type="curve" smooth="yes"/>
      <point x="370.4" y="343.0" type="line"/>
      <point x="355.2" y="239.4" type="line"/>
      <point x="564.8" y="440.4" type="line" smooth="yes"/>
      <point x="597.4" y="471.2"/>
      <point x="649.9" y="516.0"/>
      <point x="676.4" y="534.8" type="curve"/>
      <point x="676.4" y="546.8" type="line"/>
    </contour>
    <contour>
      <point x="200.39999999999998" y="0.0" type="line"/>
      <point x="319.0" y="611.6" type="line"/>
      <point x="133.5" y="611.6" type="line"/>
      <point x="126.7" y="600.8" type="line"/>
      <point x="128.4" y="553.6"/>
      <point x="118.4" y="490.8"/>
      <point x="109.7" y="445.20000000000005" type="curve" smooth="yes"/>
      <point x="24.400000000000002" y="0.0" type="line"/>
    </contour>
  </outline>
</glyph>
<glyph name="Eng" format="2">
  <advance width="769.6"/>
  <unicode hex="014A"/>
  <note>
Eng
</note>
  <outline>
    <contour>
      <point x="554.4" y="119.6" type="line"/>
      <point x="594.0" y="340.0" type="line"/>
      <point x="304.8" y="720.0" type="line"/>
      <point x="164.4" y="720.0" type="line"/>
      <point x="27.200000000000003" y="0.0" type="line"/>
      <point x="204.39999999999998" y="0.0" type="line"/>
      <point x="300.8" y="510.0" type="line"/>
      <point x="253.6" y="515.2" type="line"/>
    </contour>
    <contour>
      <point x="347.9" y="-240.0" type="curve" smooth="yes"/>
      <point x="509.1" y="-240.0"/>
      <point x="612.6" y="-167.2"/>
      <point x="646.9" y="6.599999999999994" type="curve" smooth="yes"/>
      <point x="786.8" y="720.0" type="line"/>
      <point x="609.6" y="720.0" type="line"/>
      <point x="471.1" y="15.0" type="line" smooth="yes"/>
      <point x="455.6" y="-63.900000000000006"/>
      <point x="409.5" y="-94.4"/>
      <point x="335.1" y="-94.4" type="curve" smooth="yes"/>
      <point x="304.7" y="-94.4"/>
      <point x="282.7" y="-87.80000000000001"/>
      <point x="266.7" y="-78.4" type="curve"/>
      <point x="255.9" y="-78.4" type="line"/>
      <point x="228.7" y="-224.0" type="line"/>
      <point x="254.1" y="-232.0"/>
      <point x="305.5" y="-240.0"/>
    </contour>
  </outline>
</glyph>
<glyph name="eng" format="2">
  <advance width="676.4"/>
  <unicode hex="014B"/>
  <note>
eng
</note>
  <anchor x="285.2" y="0.0" name="bottom"/>
  <anchor x="391.2" y="546.8" name="top"/>
  <outline>
    <contour>
      <point x="267.4" y="-240.0" type="curve" smooth="yes"/>
      <point x="414.2" y="-240.0"/>
      <point x="523.7" y="-163.2"/>
      <point x="551.8" y="-15.600000000000001" type="curve" smooth="yes"/>
      <point x="566.9" y="63.2" type="line"/>
      <point x="390.9" y="63.2" type="line"/>
      <point x="375.8" y="-15.600000000000001" type="line" smooth="yes"/>
      <point x="366.0" y="-68.0"/>
      <point x="335.6" y="-101.2"/>
      <point x="269.8" y="-101.2" type="curve" smooth="yes"/>
      <point x="243.0" y="-101.2"/>
      <point x="228.0" y="-97.2"/>
      <point x="207.4" y="-89.2" type="curve"/>
      <point x="196.6" y="-89.2" type="line"/>
      <point x="169.4" y="-228.0" type="line"/>
      <point x="191.8" y="-235.4"/>
      <point x="225.8" y="-240.0"/>
    </contour>
    <component base="n"/>
  </outline>
</glyph>
<glyph name="OE" format="2">
  <advance width="1109.0"/>
  <unicode hex="0152"/>
  <note>
OE
</note>
  <anchor x="496.5" y="0.0" name="bottom"/>
  <anchor x="649.5" y="720.0" name="top"/>
  <outline>
    <contour>
      <point x="383.6" y="-12.0" type="curve" smooth="yes"/>
      <point x="650.4" y="-12.0"/>
      <point x="803.6" y="194.4"/>
      <point x="803.6" y="422.0" type="curve" smooth="yes"/>
      <point x="803.6" y="610.4"/>
      <point x="681.6" y="732.0"/>
      <point x="474.0" y="732.0" type="curve" smooth="yes"/>
      <point x="208.4" y="732.0"/>
      <point x="54.0" y="520.0"/>
      <point x="54.0" y="298.0" type="curve" smooth="yes"/>
      <point x="54.0" y="104.0"/>
      <point x="176.0" y="-12.0"/>
    </contour>
    <contour>
      <point x="393.2" y="137.6" type="curve" smooth="yes"/>
      <point x="298.4" y="137.6"/>
      <point x="235.2" y="191.6"/>
      <point x="235.2" y="306.4" type="curve" smooth="yes"/>
      <point x="235.2" y="424.0"/>
      <point x="307.6" y="582.4"/>
      <point x="464.4" y="582.4" type="curve" smooth="yes"/>
      <point x="559.2" y="582.4"/>
      <point x="622.4" y="528.4"/>
      <point x="622.4" y="413.6" type="curve" smooth="yes"/>
      <point x="622.4" y="296.0"/>
      <point x="550.0" y="137.6"/>
    </contour>
    <contour>
      <point x="468.8" y="0.0" type="line"/>
      <point x="1007.2" y="0.0" type="line"/>
      <point x="1035.8" y="154.0" type="line"/>
      <point x="498.8" y="154.0" type="line"/>
    </contour>
    <contour>
      <point x="717.2" y="288.4" type="line"/>
      <point x="1004.4" y="288.4" type="line"/>
      <point x="1031.6" y="434.0" type="line"/>
      <point x="744.4" y="434.0" type="line"/>
    </contour>
    <contour>
      <point x="589.6" y="566.0" type="line"/>
      <point x="1109.4" y="566.0" type="line"/>
      <point x="1138.0" y="720.0" type="line"/>
      <point x="534.0" y="720.0" type="line"/>
    </contour>
  </outline>
</glyph>
<glyph name="oe" format="2">
  <advance width="1002.7"/>
  <unicode hex="0153"/>
  <outline>
    <contour>
      <point x="294.8" y="-10.8" type="curve" smooth="yes"/>
      <point x="497.6" y="-10.8"/>
      <point x="597.6" y="154.0"/>
      <point x="597.6" y="331.6" type="curve" smooth="yes"/>
      <point x="597.6" y="480.4"/>
      <point x="512.0" y="561.6"/>
      <point x="364.8" y="561.6" type="curve" smooth="yes"/>
      <point x="148.0" y="561.6"/>
      <point x="42.4" y="396.8"/>
      <point x="42.4" y="219.2" type="curve" smooth="yes"/>
      <point x="42.4" y="70.4"/>
      <point x="133.6" y="-10.8"/>
    </contour>
    <contour>
      <point x="302.8" y="116.8" type="curve" smooth="yes"/>
      <point x="250.8" y="116.8"/>
      <point x="221.8" y="149.6"/>
      <point x="221.8" y="210.8" type="curve" smooth="yes"/>
      <point x="221.8" y="298.4"/>
      <point x="258.8" y="434.0"/>
      <point x="356.8" y="434.0" type="curve" smooth="yes"/>
      <point x="408.8" y="434.0"/>
      <point x="437.8" y="401.2"/>
      <point x="437.8" y="340.0" type="curve" smooth="yes"/>
      <point x="437.8" y="252.4"/>
      <point x="400.8" y="116.8"/>
    </contour>
    <contour>
      <point x="716.0" y="-10.8" type="curve" smooth="yes"/>
      <point x="777.2" y="-10.8"/>
      <point x="831.6" y="-1.5999999999999996"/>
      <point x="874.8" y="14.4" type="curve"/>
      <point x="902.0" y="151.6" type="line"/>
      <point x="891.2" y="151.6" type="line"/>
      <point x="859.5" y="135.6"/>
      <point x="800.4" y="122.4"/>
      <point x="743.6" y="122.4" type="curve" smooth="yes"/>
      <point x="650.8" y="122.4"/>
      <point x="594.6" y="156.4"/>
      <point x="594.6" y="242.4" type="curve" smooth="yes"/>
      <point x="594.6" y="256.8" type="line" smooth="yes"/>
      <point x="594.6" y="363.2"/>
      <point x="647.6" y="439.6"/>
      <point x="728.0" y="439.6" type="curve" smooth="yes"/>
      <point x="785.2" y="439.6"/>
      <point x="812.2" y="409.6"/>
      <point x="812.2" y="362.8" type="curve" smooth="yes"/>
      <point x="812.2" y="351.4"/>
      <point x="810.2" y="339.0"/>
      <point x="807.6" y="327.2" type="curve"/>
      <point x="529.6" y="327.2" type="line"/>
      <point x="529.6" y="226.0" type="line"/>
      <point x="954.8" y="226.0" type="line"/>
      <point x="966.2" y="267.6"/>
      <point x="974.8" y="314.4"/>
      <point x="974.8" y="355.6" type="curve" smooth="yes"/>
      <point x="974.8" y="478.8"/>
      <point x="902.8" y="561.6"/>
      <point x="734.8" y="561.6" type="curve" smooth="yes"/>
      <point x="558.9" y="561.6"/>
      <point x="433.2" y="434.0"/>
      <point x="433.2" y="222.8" type="curve" smooth="yes"/>
      <point x="433.2" y="59.2"/>
      <point x="551.7" y="-10.8"/>
    </contour>
  </outline>
</glyph>
<glyph name="Tbar" format="2">
  <advance width="634.4"/>
  <unicode hex="0166"/>
  <note>
Tbar
</note>
  <anchor x="271.4" y="0.0" name="bottom"/>
  <anchor x="334.2" y="360.0" name="center"/>
  <anchor x="404.2" y="720.0" name="top"/>
  <outline>
    <contour>
      <point x="93.3" y="279.2" type="line"/>
      <point x="554.5" y="279.2" type="line"/>
      <point x="578.6" y="398.4" type="line"/>
      <point x="117.4" y="398.4" type="line"/>
    </contour>
    <component base="T"/>
  </outline>
</glyph>
<glyph name="tbar" format="2">
  <advance width="471.2"/>
  <unicode hex="0167"/>
  <note>
tbar
</note>
  <anchor x="214.7" y="0.0" name="bottom"/>
  <anchor x="229.6" y="275.8" name="center"/>
  <anchor x="271.6" y="683.6" name="top"/>
  <anchor x="479.4" y="601.6" name="topright"/>
  <outline>
    <contour>
      <point x="435.8" y="321.6" type="line"/>
      <point x="25.4" y="321.6" type="line"/>
      <point x="7.200000000000003" y="231.2" type="line"/>
      <point x="417.6" y="231.2" type="line"/>
    </contour>
    <component base="t"/>
  </outline>
</glyph>
<glyph name="longs" format="2">
  <advance width="366.8"/>
  <unicode hex="017F"/>
  <note>
longs
</note>
  <outline>
    <contour>
      <point x="52.0" y="0.0" type="line"/>
      <point x="228.0" y="0.0" type="line"/>
      <point x="333.2" y="542.0" type="line" smooth="yes"/>
      <point x="346.4" y="609.2"/>
      <point x="378.0" y="640.8"/>
      <point x="441.6" y="640.8" type="curve" smooth="yes"/>
      <point x="470.8" y="640.8"/>
      <point x="489.6" y="635.4"/>
      <point x="504.0" y="628.8" type="curve"/>
      <point x="514.8" y="628.8" type="line"/>
      <point x="540.6" y="759.2" type="line"/>
      <point x="520.6" y="765.8"/>
      <point x="481.6" y="771.2"/>
      <point x="444.0" y="771.2" type="curve" smooth="yes"/>
      <point x="292.4" y="771.2"/>
      <point x="189.6" y="713.2"/>
      <point x="156.0" y="537.2" type="curve"/>
    </contour>
    <contour>
      <point x="40.400000000000006" y="410.8" type="line"/>
      <point x="168.0" y="410.8" type="line"/>
      <point x="195.2" y="546.8" type="line"/>
      <point x="67.6" y="546.8" type="line"/>
    </contour>
  </outline>
</glyph>
<glyph name="Schwa" format="2">
  <advance width="731.5"/>
  <unicode hex="018F"/>
  <outline>
    <contour>
      <point x="384.0" y="732.0" type="curve" smooth="yes"/>
      <point x="308.0" y="732.0"/>
      <point x="231.2" y="718.8"/>
      <point x="177.6" y="701.6" type="curve"/>
      <point x="147.0" y="544.6" type="line"/>
      <point x="161.5" y="544.6" type="line"/>
      <point x="203.6" y="564.9"/>
      <point x="279.2" y="582.4"/>
      <point x="349.6" y="582.4" type="curve" smooth="yes"/>
      <point x="462.3" y="582.4"/>
      <point x="538.4" y="541.8"/>
      <point x="538.4" y="419.2" type="curve" smooth="yes"/>
      <point x="538.4" y="291.9"/>
      <point x="477.6" y="137.6"/>
      <point x="336.8" y="137.6" type="curve" smooth="yes"/>
      <point x="257.5" y="137.6"/>
      <point x="220.2" y="172.6"/>
      <point x="220.2" y="238.5" type="curve" smooth="yes"/>
      <point x="220.2" y="253.9"/>
      <point x="222.7" y="273.6"/>
      <point x="227.89999999999998" y="292.2" type="curve"/>
      <point x="556.7" y="292.2" type="line"/>
      <point x="582.1" y="422.4" type="line"/>
      <point x="78.8" y="422.4" type="line"/>
      <point x="60.0" y="365.6"/>
      <point x="48.0" y="295.2"/>
      <point x="48.0" y="240.4" type="curve" smooth="yes"/>
      <point x="48.0" y="91.5"/>
      <point x="122.4" y="-12.0"/>
      <point x="322.0" y="-12.0" type="curve" smooth="yes"/>
      <point x="580.0" y="-12.0"/>
      <point x="716.8" y="210.8"/>
      <point x="716.8" y="420.4" type="curve" smooth="yes"/>
      <point x="716.8" y="652.7"/>
      <point x="578.4" y="732.0"/>
    </contour>
  </outline>
</glyph>
<glyph name="florin" format="2">
  <advance width="616.0"/>
  <unicode hex="0192"/>
  <note>
florin
</note>
  <outline>
    <contour>
      <point x="10.0" y="-120.4" type="curve" smooth="yes"/>
      <point x="-16.4" y="-120.4"/>
      <point x="-38.2" y="-115.80000000000001"/>
      <point x="-56.0" y="-107.2" type="curve"/>
      <point x="-66.8" y="-107.2" type="line"/>
      <point x="-91.2" y="-232.6" type="line"/>
      <point x="-67.8" y="-240.6"/>
      <point x="-34.0" y="-248.0"/>
      <point x="12.8" y="-248.0" type="curve" smooth="yes"/>
      <point x="190.4" y="-248.0"/>
      <point x="297.1" y="-153.2"/>
      <point x="328.8" y="15.599999999999998" type="curve" smooth="yes"/>
      <point x="413.6" y="462.8" type="line" smooth="yes"/>
      <point x="429.1" y="544.8"/>
      <point x="466.8" y="604.4"/>
      <point x="562.0" y="604.4" type="curve" smooth="yes"/>
      <point x="588.4" y="604.4"/>
      <point x="610.2" y="599.8"/>
      <point x="628.0" y="591.2" type="curve"/>
      <point x="638.8" y="591.2" type="line"/>
      <point x="663.2" y="716.6" type="line"/>
      <point x="639.8" y="724.6"/>
      <point x="606.0" y="732.0"/>
      <point x="559.2" y="732.0" type="curve" smooth="yes"/>
      <point x="384.0" y="732.0"/>
      <point x="274.9" y="637.2"/>
      <point x="243.2" y="468.4" type="curve" smooth="yes"/>
      <point x="158.4" y="21.2" type="line" smooth="yes"/>
      <point x="142.9" y="-60.800000000000004"/>
      <point x="105.2" y="-120.4"/>
    </contour>
    <contour>
      <point x="67.2" y="284.4" type="line"/>
      <point x="528.6" y="284.4" type="line"/>
      <point x="553.0" y="414.8" type="line"/>
      <point x="91.6" y="414.8" type="line"/>
    </contour>
  </outline>
</glyph>
<glyph name="jdotless" format="2">
  <advance width="328.8"/>
  <unicode hex="0237"/>
  <note>
dotlessj
</note>
  <anchor x="58.099999999999994" y="-240.0" name="bottom"/>
  <anchor x="220.9" y="546.8" name="top"/>
  <outline>
    <contour>
      <point x="-181.6" y="-228.0" type="line"/>
      <point x="-159.2" y="-235.4"/>
      <point x="-125.2" y="-240.0"/>
      <point x="-83.6" y="-240.0" type="curve" smooth="yes"/>
      <point x="69.0" y="-240.0"/>
      <point x="171.7" y="-164.4"/>
      <point x="202.2" y="-7.200000000000003" type="curve" smooth="yes"/>
      <point x="309.8" y="546.8" type="line"/>
      <point x="125.0" y="546.8" type="line"/>
      <point x="118.2" y="536.0" type="line"/>
      <point x="119.9" y="488.8"/>
      <point x="109.9" y="426.0"/>
      <point x="101.2" y="380.4" type="curve" smooth="yes"/>
      <point x="24.8" y="-15.600000000000001" type="line" smooth="yes"/>
      <point x="13.600000000000001" y="-75.0"/>
      <point x="-20.4" y="-101.2"/>
      <point x="-81.2" y="-101.2" type="curve" smooth="yes"/>
      <point x="-108.0" y="-101.2"/>
      <point x="-123.0" y="-97.2"/>
      <point x="-143.6" y="-89.2" type="curve"/>
      <point x="-154.4" y="-89.2" type="line"/>
    </contour>
  </outline>
</glyph>
<glyph name="schwa" format="2">
  <advance width="633.6"/>
  <unicode hex="0259"/>
  <outline>
    <contour>
      <point x="302.6" y="561.6" type="curve" smooth="yes"/>
      <point x="241.4" y="561.6"/>
      <point x="187.0" y="552.4"/>
      <point x="143.8" y="536.4" type="curve"/>
      <point x="116.6" y="399.2" type="line"/>
      <point x="127.4" y="399.2" type="line"/>
      <point x="159.1" y="415.2"/>
      <point x="218.2" y="428.4"/>
      <point x="275.0" y="428.4" type="curve" smooth="yes"/>
      <point x="367.8" y="428.4"/>
      <point x="424.0" y="394.4"/>
      <point x="424.0" y="308.4" type="curve" smooth="yes"/>
      <point x="424.0" y="294.0" type="line" smooth="yes"/>
      <point x="424.0" y="187.6"/>
      <point x="371.0" y="111.19999999999999"/>
      <point x="290.6" y="111.19999999999999" type="curve" smooth="yes"/>
      <point x="233.4" y="111.19999999999999"/>
      <point x="206.39999999999998" y="141.2"/>
      <point x="206.39999999999998" y="188.0" type="curve" smooth="yes"/>
      <point x="206.39999999999998" y="199.4"/>
      <point x="208.39999999999998" y="211.8"/>
      <point x="211.0" y="223.6" type="curve"/>
      <point x="489.0" y="223.6" type="line"/>
      <point x="489.0" y="324.8" type="line"/>
      <point x="63.8" y="324.8" type="line"/>
      <point x="52.4" y="283.2"/>
      <point x="43.8" y="236.4"/>
      <point x="43.8" y="195.2" type="curve" smooth="yes"/>
      <point x="43.8" y="72.0"/>
      <point x="115.8" y="-10.8"/>
      <point x="283.8" y="-10.8" type="curve" smooth="yes"/>
      <point x="466.2" y="-10.8"/>
      <point x="597.8" y="125.2"/>
      <point x="597.8" y="319.6" type="curve" smooth="yes"/>
      <point x="597.8" y="491.6"/>
      <point x="473.4" y="561.6"/>
    </contour>
  </outline>
</glyph>
<glyph name="primemod" format="2">
  <advance width="222.0"/>
  <unicode hex="02B9"/>
  <outline>
    <contour>
      <point x="69.4" y="720.0" type="line"/>
      <point x="19.2" y="467.2" type="line"/>
      <point x="142.8" y="467.2" type="line"/>
      <point x="206.6" y="720.0" type="line"/>
    </contour>
  </outline>
</glyph>
<glyph name="apostrophemod" format="2">
  <advance width="231.6"/>
  <unicode hex="02BC"/>
  <outline>
    <contour>
      <point x="177.8" y="694.8" type="curve"/>
      <point x="115.0" y="611.4" type="line"/>
      <point x="115.0" y="606.8" type="line"/>
      <point x="201.8" y="606.8" type="line"/>
      <point x="243.8" y="663.2" type="line" smooth="yes"/>
      <point x="260.1" y="685.3"/>
      <point x="288.6" y="721.7"/>
      <point x="288.6" y="758.0" type="curve" smooth="yes"/>
      <point x="288.6" y="791.7"/>
      <point x="264.0" y="816.0"/>
      <point x="227.8" y="816.0" type="curve" smooth="yes"/>
      <point x="182.8" y="816.0"/>
      <point x="148.2" y="787.3"/>
      <point x="148.2" y="742.0" type="curve" smooth="yes"/>
      <point x="148.2" y="717.8"/>
      <point x="164.0" y="701.6"/>
    </contour>
  </outline>
</glyph>
<glyph name="ringhalfright" format="2">
  <advance width="205.6"/>
  <unicode hex="02BE"/>
  <note>
uni02BE
</note>
  <outline>
    <contour>
      <point x="74.8" y="509.6" type="curve"/>
      <point x="60.7" y="435.6" type="line"/>
      <point x="144.9" y="435.6"/>
      <point x="250.1" y="467.8"/>
      <point x="250.1" y="605.7" type="curve" smooth="yes"/>
      <point x="250.1" y="687.7"/>
      <point x="187.7" y="720.0"/>
      <point x="116.1" y="720.0" type="curve"/>
      <point x="101.3" y="646.0" type="line"/>
      <point x="141.3" y="644.8"/>
      <point x="164.8" y="633.3"/>
      <point x="164.8" y="598.8" type="curve" smooth="yes"/>
      <point x="164.8" y="530.9"/>
      <point x="125.4" y="510.8"/>
    </contour>
  </outline>
</glyph>
<glyph name="ringhalfleft" format="2">
  <advance width="205.6"/>
  <unicode hex="02BF"/>
  <note>
uni02BF
</note>
  <outline>
    <contour>
      <point x="213.5" y="435.6" type="curve"/>
      <point x="227.6" y="509.6" type="line"/>
      <point x="187.3" y="510.5"/>
      <point x="164.1" y="522.3"/>
      <point x="164.1" y="556.4" type="curve" smooth="yes"/>
      <point x="164.1" y="624.4"/>
      <point x="203.8" y="644.8"/>
      <point x="254.1" y="646.0" type="curve"/>
      <point x="268.9" y="720.0" type="line"/>
      <point x="184.0" y="720.0"/>
      <point x="79.2" y="687.8"/>
      <point x="79.2" y="549.9" type="curve" smooth="yes"/>
      <point x="79.2" y="467.9"/>
      <point x="141.9" y="435.6"/>
    </contour>
  </outline>
</glyph>
<glyph name="verticallinemod" format="2">
  <advance width="222.0"/>
  <unicode hex="02C8"/>
  <outline>
    <contour>
      <point x="94.0" y="470.0" type="line"/>
      <point x="217.6" y="470.0" type="line"/>
      <point x="281.2" y="760.0" type="line"/>
      <point x="144.0" y="760.0" type="line"/>
    </contour>
  </outline>
</glyph>
<glyph name="firsttonechinese" format="2">
  <advance width="654.0"/>
  <unicode hex="02C9"/>
  <note>
uni02C9
</note>
  <outline>
    <contour>
      <point x="252.8" y="720.0" type="line"/>
      <point x="234.0" y="624.4" type="line"/>
      <point x="569.2" y="624.4" type="line"/>
      <point x="588.0" y="720.0" type="line"/>
    </contour>
  </outline>
</glyph>
<glyph name="gravecomb" format="2">
  <unicode hex="0300"/>
  <note>
grave
</note>
  <anchor x="380.0" y="546.8" name="_top"/>
  <anchor x="421.3" y="760.0" name="top"/>
  <outline>
    <contour>
      <point x="339.0" y="604.0" type="line"/>
      <point x="453.0" y="604.0" type="line"/>
      <point x="453.0" y="608.0" type="line"/>
      <point x="398.6" y="760.0" type="line"/>
      <point x="244.6" y="760.0" type="line"/>
      <point x="244.6" y="756.0" type="line"/>
    </contour>
  </outline>
</glyph>
<glyph name="acutecomb" format="2">
  <unicode hex="0301"/>
  <note>
acute
</note>
  <anchor x="413.3" y="546.8" name="_top"/>
  <anchor x="458.6" y="760.0" name="top"/>
  <outline>
    <contour>
      <point x="304.8" y="604.0" type="line"/>
      <point x="426.8" y="604.0" type="line"/>
      <point x="578.4" y="756.0" type="line"/>
      <point x="578.4" y="760.0" type="line"/>
      <point x="419.2" y="760.0" type="line"/>
      <point x="304.8" y="608.0" type="line"/>
    </contour>
  </outline>
</glyph>
<glyph name="circumflexcomb" format="2">
  <unicode hex="0302"/>
  <note>
circumflex
</note>
  <anchor x="380.0" y="546.8" name="_top"/>
  <anchor x="421.3" y="760.0" name="top"/>
  <outline>
    <contour>
      <point x="211.5" y="604.0" type="line"/>
      <point x="315.1" y="604.0" type="line"/>
      <point x="406.4" y="679.0" type="line"/>
      <point x="460.3" y="604.0" type="line"/>
      <point x="549.1" y="604.0" type="line"/>
      <point x="549.1" y="608.0" type="line"/>
      <point x="482.8" y="760.0" type="line"/>
      <point x="346.8" y="760.0" type="line"/>
      <point x="211.5" y="608.0" type="line"/>
    </contour>
  </outline>
</glyph>
<glyph name="tildecomb" format="2">
  <unicode hex="0303"/>
  <note>
tilde
</note>
  <anchor x="380.0" y="546.8" name="_top"/>
  <anchor x="421.3" y="760.0" name="top"/>
  <outline>
    <contour>
      <point x="203.1" y="614.5" type="curve"/>
      <point x="288.3" y="614.5" type="line"/>
      <point x="295.1" y="653.3"/>
      <point x="305.5" y="682.5"/>
      <point x="338.7" y="682.5" type="curve" smooth="yes"/>
      <point x="360.8" y="682.5"/>
      <point x="376.5" y="667.7"/>
      <point x="392.3" y="651.7" type="curve" smooth="yes"/>
      <point x="412.1" y="632.1"/>
      <point x="440.7" y="614.5"/>
      <point x="480.7" y="614.5" type="curve" smooth="yes"/>
      <point x="564.3" y="614.5"/>
      <point x="606.7" y="687.3"/>
      <point x="617.5" y="767.7" type="curve"/>
      <point x="532.3" y="767.7" type="line"/>
      <point x="525.5" y="728.9"/>
      <point x="515.1" y="699.7"/>
      <point x="481.9" y="699.7" type="curve" smooth="yes"/>
      <point x="459.8" y="699.7"/>
      <point x="444.8" y="712.4"/>
      <point x="428.3" y="727.7" type="curve" smooth="yes"/>
      <point x="409.2" y="745.2"/>
      <point x="379.9" y="767.7"/>
      <point x="339.9" y="767.7" type="curve" smooth="yes"/>
      <point x="256.3" y="767.7"/>
      <point x="213.9" y="694.9"/>
    </contour>
  </outline>
</glyph>
<glyph name="macroncomb" format="2">
  <unicode hex="0304"/>
  <note>
macron
</note>
  <anchor x="384.1" y="546.8" name="_top"/>
  <anchor x="421.1" y="720.0" name="top"/>
  <outline>
    <contour>
      <point x="252.8" y="720.0" type="line"/>
      <point x="234.0" y="624.4" type="line"/>
      <point x="569.2" y="624.4" type="line"/>
      <point x="588.0" y="720.0" type="line"/>
    </contour>
  </outline>
</glyph>
<glyph name="brevecomb" format="2">
  <unicode hex="0306"/>
  <note>
breve
</note>
  <anchor x="395.6" y="546.8" name="_top"/>
  <anchor x="440.9" y="760.0" name="top"/>
  <outline>
    <contour>
      <point x="406.4" y="606.0" type="curve" smooth="yes"/>
      <point x="512.4" y="606.0"/>
      <point x="561.6" y="680.0"/>
      <point x="572.9" y="760.0" type="curve"/>
      <point x="497.7" y="760.0" type="line"/>
      <point x="489.2" y="712.0"/>
      <point x="466.4" y="685.6"/>
      <point x="413.2" y="685.6" type="curve" smooth="yes"/>
      <point x="364.0" y="685.6"/>
      <point x="346.4" y="712.0"/>
      <point x="355.3" y="760.0" type="curve"/>
      <point x="280.1" y="760.0" type="line"/>
      <point x="262.0" y="678.4"/>
      <point x="301.6" y="606.0"/>
    </contour>
  </outline>
</glyph>
<glyph name="dotaccentcomb" format="2">
  <unicode hex="0307"/>
  <note>
dotaccent
</note>
  <anchor x="382.5" y="546.8" name="_top"/>
  <anchor x="426.9" y="755.2" name="top"/>
  <outline>
    <contour>
      <point x="402.4" y="612.8" type="curve" smooth="yes"/>
      <point x="449.0" y="612.8"/>
      <point x="484.4" y="649.2"/>
      <point x="484.4" y="696.0" type="curve" smooth="yes"/>
      <point x="484.4" y="732.4"/>
      <point x="460.0" y="755.2"/>
      <point x="421.2" y="755.2" type="curve" smooth="yes"/>
      <point x="374.6" y="755.2"/>
      <point x="339.2" y="718.8"/>
      <point x="339.2" y="672.0" type="curve" smooth="yes"/>
      <point x="339.2" y="635.6"/>
      <point x="363.6" y="612.8"/>
    </contour>
  </outline>
</glyph>
<glyph name="dieresiscomb" format="2">
  <unicode hex="0308"/>
  <note>
dieresis
</note>
  <anchor x="384.5" y="546.8" name="_top"/>
  <anchor x="428.2" y="752.4" name="top"/>
  <outline>
    <contour>
      <point x="502.4" y="615.6" type="curve" smooth="yes"/>
      <point x="549.0" y="615.6"/>
      <point x="581.6" y="652.0"/>
      <point x="581.6" y="696.0" type="curve" smooth="yes"/>
      <point x="581.6" y="729.6"/>
      <point x="560.0" y="752.4"/>
      <point x="521.2" y="752.4" type="curve" smooth="yes"/>
      <point x="474.6" y="752.4"/>
      <point x="442.0" y="716.0"/>
      <point x="442.0" y="672.0" type="curve" smooth="yes"/>
      <point x="442.0" y="638.4"/>
      <point x="463.6" y="615.6"/>
    </contour>
    <contour>
      <point x="306.4" y="615.6" type="curve" smooth="yes"/>
      <point x="353.0" y="615.6"/>
      <point x="385.6" y="652.0"/>
      <point x="385.6" y="696.0" type="curve" smooth="yes"/>
      <point x="385.6" y="729.6"/>
      <point x="364.0" y="752.4"/>
      <point x="325.2" y="752.4" type="curve" smooth="yes"/>
      <point x="278.6" y="752.4"/>
      <point x="246.0" y="716.0"/>
      <point x="246.0" y="672.0" type="curve" smooth="yes"/>
      <point x="246.0" y="638.4"/>
      <point x="267.6" y="615.6"/>
    </contour>
  </outline>
</glyph>
<glyph name="hookabovecomb" format="2">
  <unicode hex="0309"/>
  <anchor x="360.4" y="546.8" name="_top"/>
  <anchor x="415.2" y="828.3" name="top"/>
  <outline>
    <contour>
      <point x="333.7" y="640.5" type="curve"/>
      <point x="391.6" y="613.9" type="line"/>
      <point x="421.9" y="655.7"/>
      <point x="488.5" y="685.3"/>
      <point x="496.3" y="741.7" type="curve" smooth="yes"/>
      <point x="503.5" y="790.6"/>
      <point x="473.7" y="828.3"/>
      <point x="414.7" y="828.3" type="curve" smooth="yes"/>
      <point x="368.6" y="828.3"/>
      <point x="327.0" y="801.8"/>
      <point x="291.5" y="756.0" type="curve"/>
      <point x="331.3" y="723.1" type="line"/>
      <point x="345.6" y="739.7"/>
      <point x="364.6" y="756.6"/>
      <point x="386.5" y="756.6" type="curve" smooth="yes"/>
      <point x="401.1" y="756.6"/>
      <point x="411.0" y="745.0"/>
      <point x="408.6" y="729.1" type="curve" smooth="yes"/>
      <point x="403.1" y="692.6"/>
      <point x="355.4" y="680.0"/>
    </contour>
  </outline>
</glyph>
<glyph name="ringcomb" format="2">
  <unicode hex="030A"/>
  <note>
ring
</note>
  <anchor x="380.0" y="546.8" name="_top"/>
  <anchor x="436.3" y="836.0" name="top"/>
  <outline>
    <contour>
      <point x="403.5" y="602.6" type="curve" smooth="yes"/>
      <point x="474.3" y="602.6"/>
      <point x="538.3" y="651.8"/>
      <point x="538.3" y="734.6" type="curve" smooth="yes"/>
      <point x="538.3" y="798.6"/>
      <point x="494.3" y="837.4"/>
      <point x="426.3" y="837.4" type="curve" smooth="yes"/>
      <point x="355.5" y="837.4"/>
      <point x="291.5" y="788.2"/>
      <point x="291.5" y="705.4" type="curve" smooth="yes"/>
      <point x="291.5" y="641.4"/>
      <point x="335.5" y="602.6"/>
    </contour>
    <contour>
      <point x="406.3" y="660.4" type="curve" smooth="yes"/>
      <point x="376.8" y="660.4"/>
      <point x="355.3" y="677.5"/>
      <point x="355.3" y="709.4" type="curve" smooth="yes"/>
      <point x="355.3" y="750.8"/>
      <point x="385.7" y="779.6"/>
      <point x="423.5" y="779.6" type="curve" smooth="yes"/>
      <point x="453.0" y="779.6"/>
      <point x="474.5" y="762.5"/>
      <point x="474.5" y="730.6" type="curve" smooth="yes"/>
      <point x="474.5" y="689.2"/>
      <point x="444.1" y="660.4"/>
    </contour>
  </outline>
</glyph>
<glyph name="hungarumlautcomb" format="2">
  <unicode hex="030B"/>
  <note>
hungarumlaut
</note>
  <anchor x="424.5" y="546.8" name="_top"/>
  <anchor x="469.8" y="760.0" name="top"/>
  <outline>
    <contour>
      <point x="422.0" y="604.0" type="line"/>
      <point x="530.4" y="604.0" type="line"/>
      <point x="682.0" y="756.0" type="line"/>
      <point x="682.0" y="760.0" type="line"/>
      <point x="537.6" y="760.0" type="line"/>
      <point x="422.0" y="608.0" type="line"/>
    </contour>
    <contour>
      <point x="223.6" y="604.0" type="line"/>
      <point x="332.0" y="604.0" type="line"/>
      <point x="483.6" y="756.0" type="line"/>
      <point x="483.6" y="760.0" type="line"/>
      <point x="339.2" y="760.0" type="line"/>
      <point x="223.6" y="608.0" type="line"/>
    </contour>
  </outline>
</glyph>
<glyph name="caroncomb" format="2">
  <unicode hex="030C"/>
  <note>
caron
</note>
  <anchor x="380.0" y="546.8" name="_top"/>
  <anchor x="421.3" y="760.0" name="top"/>
  <outline>
    <contour>
      <point x="326.9" y="604.0" type="line"/>
      <point x="462.9" y="604.0" type="line"/>
      <point x="598.2" y="756.0" type="line"/>
      <point x="598.2" y="760.0" type="line"/>
      <point x="494.6" y="760.0" type="line"/>
      <point x="402.3" y="684.0" type="line"/>
      <point x="349.4" y="760.0" type="line"/>
      <point x="260.6" y="760.0" type="line"/>
      <point x="260.6" y="756.0" type="line"/>
    </contour>
  </outline>
</glyph>
<glyph name="dblgravecomb" format="2">
  <unicode hex="030F"/>
  <anchor x="379.3" y="546.8" name="_top"/>
  <anchor x="420.6" y="760.0" name="top"/>
  <outline>
    <contour>
      <point x="240.5" y="604.0" type="line"/>
      <point x="354.5" y="604.0" type="line"/>
      <point x="354.5" y="608.0" type="line"/>
      <point x="300.1" y="760.0" type="line"/>
      <point x="146.1" y="760.0" type="line"/>
      <point x="146.1" y="756.0" type="line"/>
    </contour>
    <contour>
      <point x="437.9" y="604.0" type="line"/>
      <point x="551.9" y="604.0" type="line"/>
      <point x="551.9" y="608.0" type="line"/>
      <point x="497.5" y="760.0" type="line"/>
      <point x="343.5" y="760.0" type="line"/>
      <point x="343.5" y="756.0" type="line"/>
    </contour>
  </outline>
</glyph>
<glyph name="breveinvertedcomb" format="2">
  <unicode hex="0311"/>
  <anchor x="341.0" y="546.8" name="_top"/>
  <anchor x="382.3" y="760.0" name="top"/>
  <outline>
    <contour>
      <point x="376.0" y="760.0" type="curve" smooth="yes"/>
      <point x="270.0" y="760.0"/>
      <point x="220.8" y="686.0"/>
      <point x="209.5" y="606.0" type="curve"/>
      <point x="284.7" y="606.0" type="line"/>
      <point x="293.2" y="654.0"/>
      <point x="316.0" y="680.4"/>
      <point x="369.2" y="680.4" type="curve" smooth="yes"/>
      <point x="418.4" y="680.4"/>
      <point x="436.0" y="654.0"/>
      <point x="427.1" y="606.0" type="curve"/>
      <point x="502.3" y="606.0" type="line"/>
      <point x="520.4" y="687.6"/>
      <point x="480.8" y="760.0"/>
    </contour>
  </outline>
</glyph>
<glyph name="commaturnedabovecomb" format="2">
  <unicode hex="0312"/>
  <anchor x="359.1" y="546.8" name="_top"/>
  <anchor x="411.3" y="816.0" name="top"/>
  <outline>
    <contour>
      <point x="415.2" y="728.0" type="curve"/>
      <point x="478.0" y="811.4" type="line"/>
      <point x="478.0" y="816.0" type="line"/>
      <point x="391.2" y="816.0" type="line"/>
      <point x="349.2" y="759.6" type="line" smooth="yes"/>
      <point x="332.9" y="737.5"/>
      <point x="304.4" y="701.1"/>
      <point x="304.4" y="664.8" type="curve" smooth="yes"/>
      <point x="304.4" y="631.1"/>
      <point x="329.0" y="606.8"/>
      <point x="365.2" y="606.8" type="curve" smooth="yes"/>
      <point x="410.2" y="606.8"/>
      <point x="444.8" y="635.5"/>
      <point x="444.8" y="680.8" type="curve" smooth="yes"/>
      <point x="444.8" y="705.0"/>
      <point x="429.0" y="721.2"/>
    </contour>
  </outline>
</glyph>
<glyph name="horncomb" format="2">
  <unicode hex="031B"/>
  <anchor x="229.2" y="546.8" name="_topright"/>
  <outline>
    <contour>
      <point x="221.2" y="443.1" type="line"/>
      <point x="349.3" y="443.1"/>
      <point x="410.9" y="538.8"/>
      <point x="421.9" y="618.8" type="curve"/>
      <point x="312.2" y="618.8" type="line"/>
      <point x="305.2" y="570.8"/>
      <point x="281.2" y="546.8"/>
      <point x="229.2" y="546.8" type="curve"/>
    </contour>
  </outline>
</glyph>
<glyph name="dotbelowcomb" format="2">
  <unicode hex="0323"/>
  <note>
dot.below
</note>
  <anchor x="274.0" y="0.0" name="_bottom"/>
  <anchor x="233.3" y="-209.6" name="bottom"/>
  <outline>
    <contour>
      <point x="241.7" y="-209.6" type="curve" smooth="yes"/>
      <point x="288.3" y="-209.6"/>
      <point x="323.7" y="-173.2"/>
      <point x="323.7" y="-126.4" type="curve" smooth="yes"/>
      <point x="323.7" y="-90.0"/>
      <point x="299.3" y="-67.2"/>
      <point x="260.5" y="-67.2" type="curve" smooth="yes"/>
      <point x="213.9" y="-67.2"/>
      <point x="178.5" y="-103.6"/>
      <point x="178.5" y="-150.4" type="curve" smooth="yes"/>
      <point x="178.5" y="-186.8"/>
      <point x="202.9" y="-209.6"/>
    </contour>
  </outline>
</glyph>
